Amatic-Bold.ufo
<glyph name="exclam" format="1">
  <advance width="594"></advance>
  <unicode hex="0021"></unicode>
  <outline>
    <contour>
      <point x="367" y="26" type="curve" smooth="yes"></point>
      <point x="367" y="-27"></point>
      <point x="322" y="-46"></point>
      <point x="266" y="-46" type="curve" smooth="yes"></point>
      <point x="241" y="-46"></point>
      <point x="198" y="-20"></point>
      <point x="198" y="33" type="curve"></point>
      <point x="198" y="78"></point>
      <point x="235" y="125"></point>
      <point x="283" y="125" type="curve" smooth="yes"></point>
      <point x="338" y="125"></point>
      <point x="367" y="77"></point>
    </contour>
    <contour>
      <point x="341" y="446" type="curve" smooth="yes"></point>
      <point x="341" y="348"></point>
      <point x="323" y="306"></point>
      <point x="303" y="306" type="curve" smooth="yes"></point>
      <point x="277" y="306"></point>
      <point x="247" y="375"></point>
      <point x="247" y="482" type="curve" smooth="yes"></point>
      <point x="247" y="596"></point>
      <point x="255" y="713"></point>
      <point x="255" y="821" type="curve" smooth="yes"></point>
      <point x="255" y="1045"></point>
      <point x="245" y="1269"></point>
      <point x="245" y="1493" type="curve" smooth="yes"></point>
      <point x="245" y="1537"></point>
      <point x="290" y="1572"></point>
      <point x="332" y="1572" type="curve" smooth="yes"></point>
      <point x="360" y="1572"></point>
      <point x="382" y="1550"></point>
      <point x="382" y="1522" type="curve" smooth="yes"></point>
      <point x="382" y="1195"></point>
      <point x="339" y="870"></point>
      <point x="339" y="543" type="curve" smooth="yes"></point>
      <point x="339" y="511"></point>
      <point x="341" y="478"></point>
    </contour>
  </outline>
</glyph>
<glyph name="quotedbl" format="1">
  <advance width="702"/>
  <unicode hex="0022"/>
  <outline>
    <contour>
      <point x="231" y="1193" type="line" smooth="yes"/>
      <point x="227" y="1193"/>
      <point x="222" y="1435"/>
      <point x="222" y="1531" type="curve" smooth="yes"/>
      <point x="222" y="1559"/>
      <point x="245" y="1578"/>
      <point x="263" y="1578" type="curve" smooth="yes"/>
      <point x="293" y="1578"/>
      <point x="308" y="1556"/>
      <point x="312" y="1525" type="curve" smooth="yes"/>
      <point x="312" y="1521"/>
      <point x="313" y="1514"/>
      <point x="313" y="1511" type="curve" smooth="yes"/>
      <point x="313" y="1407"/>
      <point x="278" y="1193"/>
      <point x="238" y="1193" type="curve" smooth="yes"/>
    </contour>
    <contour>
      <point x="437" y="1193" type="line" smooth="yes"/>
      <point x="424" y="1193"/>
      <point x="408" y="1435"/>
      <point x="408" y="1531" type="curve" smooth="yes"/>
      <point x="408" y="1559"/>
      <point x="441" y="1578"/>
      <point x="469" y="1578" type="curve" smooth="yes"/>
      <point x="488" y="1578"/>
      <point x="498" y="1556"/>
      <point x="503" y="1531" type="curve"/>
      <point x="500" y="1433"/>
      <point x="477" y="1193"/>
      <point x="444" y="1193" type="curve" smooth="yes"/>
    </contour>
  </outline>
</glyph>
<glyph name="numbersign" format="1">
  <advance width="882"></advance>
  <unicode hex="0023"></unicode>
  <outline>
    <contour>
      <point x="747" y="637" type="curve"></point>
      <point x="748" y="637" type="line"></point>
      <point x="747" y="592"></point>
      <point x="699" y="585"></point>
      <point x="664" y="586" type="curve" smooth="yes"></point>
      <point x="634" y="587" type="line"></point>
      <point x="616" y="378"></point>
      <point x="578" y="171"></point>
      <point x="578" y="-39" type="curve"></point>
      <point x="543" y="-81" type="line"></point>
      <point x="514" y="-81"></point>
      <point x="472" y="-74"></point>
      <point x="472" y="-37" type="curve" smooth="yes"></point>
      <point x="472" y="171"></point>
      <point x="530" y="374"></point>
      <point x="537" y="581" type="curve"></point>
      <point x="490" y="585"></point>
      <point x="442" y="585"></point>
      <point x="395" y="585" type="curve"></point>
      <point x="345" y="582" type="line"></point>
      <point x="333" y="488"></point>
      <point x="320" y="-80"></point>
      <point x="234" y="-80" type="curve" smooth="yes"></point>
      <point x="209" y="-80"></point>
      <point x="176" y="-65"></point>
      <point x="176" y="-36" type="curve" smooth="yes"></point>
      <point x="176" y="170"></point>
      <point x="208" y="375"></point>
      <point x="247" y="576" type="curve"></point>
      <point x="229" y="574"></point>
      <point x="208" y="571"></point>
      <point x="187" y="571" type="curve" smooth="yes"></point>
      <point x="143" y="571"></point>
      <point x="102" y="583"></point>
      <point x="102" y="637" type="curve" smooth="yes"></point>
      <point x="102" y="676"></point>
      <point x="152" y="683"></point>
      <point x="198" y="683" type="curve" smooth="yes"></point>
      <point x="223" y="683"></point>
      <point x="247" y="681"></point>
      <point x="260" y="681" type="curve"></point>
      <point x="275" y="769"></point>
      <point x="284" y="859"></point>
      <point x="291" y="948" type="curve"></point>
      <point x="278" y="947"></point>
      <point x="259" y="945"></point>
      <point x="240" y="945" type="curve" smooth="yes"></point>
      <point x="194" y="945"></point>
      <point x="143" y="955"></point>
      <point x="143" y="1004" type="curve" smooth="yes"></point>
      <point x="143" y="1014" type="line"></point>
      <point x="173" y="1047" type="line"></point>
      <point x="194" y="1047"></point>
      <point x="215" y="1046"></point>
      <point x="236" y="1046" type="curve" smooth="yes"></point>
      <point x="257" y="1046"></point>
      <point x="278" y="1047"></point>
      <point x="299" y="1049" type="curve"></point>
      <point x="316" y="1185"></point>
      <point x="344" y="1320"></point>
      <point x="344" y="1457" type="curve" smooth="yes"></point>
      <point x="344" y="1468"></point>
      <point x="343" y="1481"></point>
      <point x="343" y="1494" type="curve" smooth="yes"></point>
      <point x="343" y="1530"></point>
      <point x="349" y="1567"></point>
      <point x="396" y="1567" type="curve" smooth="yes"></point>
      <point x="411" y="1567" type="line"></point>
      <point x="434" y="1520" type="line"></point>
      <point x="434" y="1365"></point>
      <point x="399" y="1213"></point>
      <point x="397" y="1058" type="curve"></point>
      <point x="415" y="1054"></point>
      <point x="433" y="1054"></point>
      <point x="452" y="1054" type="curve" smooth="yes"></point>
      <point x="493" y="1054"></point>
      <point x="536" y="1052"></point>
      <point x="576" y="1062" type="curve"></point>
      <point x="608" y="1219"></point>
      <point x="625" y="1377"></point>
      <point x="650" y="1535" type="curve"></point>
      <point x="663" y="1552"></point>
      <point x="681" y="1566"></point>
      <point x="703" y="1566" type="curve" smooth="yes"></point>
      <point x="723" y="1566"></point>
      <point x="751" y="1546"></point>
      <point x="751" y="1525" type="curve" smooth="yes"></point>
      <point x="751" y="1369"></point>
      <point x="682" y="1223"></point>
      <point x="678" y="1067" type="curve"></point>
      <point x="744" y="1067" type="line"></point>
      <point x="787" y="1020" type="line"></point>
      <point x="780" y="991"></point>
      <point x="769" y="959"></point>
      <point x="733" y="959" type="curve"></point>
      <point x="666" y="962" type="line"></point>
      <point x="647" y="875"></point>
      <point x="642" y="786"></point>
      <point x="641" y="698" type="curve"></point>
      <point x="648" y="698"></point>
      <point x="655" y="699"></point>
      <point x="662" y="699" type="curve" smooth="yes"></point>
      <point x="703" y="699"></point>
      <point x="747" y="687"></point>
    </contour>
    <contour>
      <point x="353" y="686" type="curve"></point>
      <point x="361" y="685"></point>
      <point x="370" y="685"></point>
      <point x="378" y="685" type="curve" smooth="yes"></point>
      <point x="430" y="685"></point>
      <point x="483" y="685"></point>
      <point x="534" y="691" type="curve"></point>
      <point x="549" y="777"></point>
      <point x="566" y="864"></point>
      <point x="567" y="952" type="curve"></point>
      <point x="536" y="959"></point>
      <point x="503" y="960"></point>
      <point x="471" y="960" type="curve" smooth="yes"></point>
      <point x="442" y="960"></point>
      <point x="413" y="959"></point>
      <point x="385" y="954" type="curve"></point>
      <point x="361" y="867"></point>
      <point x="356" y="776"></point>
    </contour>
  </outline>
</glyph>
<glyph name="dollar" format="1">
  <advance width="846"></advance>
  <unicode hex="0024"></unicode>
  <outline>
    <contour>
      <point x="443" y="1464" type="curve"></point>
      <point x="472" y="822" type="line"></point>
      <point x="576" y="685"></point>
      <point x="680" y="540"></point>
      <point x="680" y="342" type="curve" smooth="yes"></point>
      <point x="680" y="218"></point>
      <point x="632" y="59"></point>
      <point x="516" y="-10" type="curve"></point>
      <point x="516" y="-155" type="line"></point>
      <point x="518" y="-208"></point>
      <point x="504" y="-258"></point>
      <point x="457" y="-258" type="curve" smooth="yes"></point>
      <point x="423" y="-258"></point>
      <point x="421" y="-222"></point>
      <point x="421" y="-195" type="curve" smooth="yes"></point>
      <point x="421" y="-179" type="line"></point>
      <point x="421" y="-179"></point>
      <point x="420" y="-128"></point>
      <point x="417" y="-43" type="curve"></point>
      <point x="405" y="-45"></point>
      <point x="393" y="-45"></point>
      <point x="380" y="-45" type="curve" smooth="yes"></point>
      <point x="340" y="-45"></point>
      <point x="221" y="-31"></point>
      <point x="221" y="24" type="curve" smooth="yes"></point>
      <point x="221" y="52"></point>
      <point x="235" y="79"></point>
      <point x="267" y="79" type="curve" smooth="yes"></point>
      <point x="311" y="79"></point>
      <point x="348" y="48"></point>
      <point x="380" y="48" type="curve" smooth="yes"></point>
      <point x="392" y="48"></point>
      <point x="403" y="49"></point>
      <point x="414" y="52" type="curve"></point>
      <point x="408" y="236"></point>
      <point x="400" y="506"></point>
      <point x="392" y="774" type="curve"></point>
      <point x="282" y="924"></point>
      <point x="166" y="1073"></point>
      <point x="166" y="1245" type="curve" smooth="yes"></point>
      <point x="166" y="1350"></point>
      <point x="233" y="1473"></point>
      <point x="369" y="1535" type="curve"></point>
      <point x="368" y="1557"></point>
      <point x="368" y="1577"></point>
      <point x="367" y="1595" type="curve" smooth="yes"></point>
      <point x="360" y="1701"></point>
      <point x="439" y="1669"></point>
      <point x="439" y="1586" type="curve" smooth="yes"></point>
      <point x="439" y="1559" type="line"></point>
      <point x="477" y="1568"></point>
      <point x="518" y="1574"></point>
      <point x="564" y="1574" type="curve" smooth="yes"></point>
      <point x="612" y="1574"></point>
      <point x="666" y="1545"></point>
      <point x="685" y="1500" type="curve"></point>
      <point x="650" y="1456" type="line"></point>
      <point x="589" y="1456"></point>
      <point x="513" y="1484"></point>
    </contour>
    <contour>
      <point x="387" y="937" type="curve"></point>
      <point x="381" y="1122"></point>
      <point x="376" y="1298"></point>
      <point x="372" y="1433" type="curve"></point>
      <point x="296" y="1385"></point>
      <point x="265" y="1308"></point>
      <point x="265" y="1258" type="curve" smooth="yes"></point>
      <point x="265" y="1137"></point>
      <point x="319" y="1035"></point>
    </contour>
    <contour>
      <point x="504" y="113" type="line"></point>
      <point x="561" y="183"></point>
      <point x="586" y="291"></point>
      <point x="586" y="345" type="curve" smooth="yes"></point>
      <point x="586" y="453"></point>
      <point x="541" y="551"></point>
      <point x="480" y="647" type="curve"></point>
    </contour>
  </outline>
</glyph>
<glyph name="percent" format="1">
  <advance width="1296"></advance>
  <unicode hex="0025"></unicode>
  <outline>
    <contour>
      <point x="1052" y="467" type="line" smooth="yes"></point>
      <point x="1052" y="535"></point>
      <point x="1040" y="733"></point>
      <point x="944" y="733" type="curve" smooth="yes"></point>
      <point x="860" y="733"></point>
      <point x="853" y="428"></point>
      <point x="853" y="366" type="curve" smooth="yes"></point>
      <point x="853" y="329"></point>
      <point x="888" y="116"></point>
      <point x="928" y="116" type="curve" smooth="yes"></point>
      <point x="1047" y="116"></point>
      <point x="1052" y="303"></point>
      <point x="1052" y="386" type="curve" smooth="yes"></point>
    </contour>
    <contour>
      <point x="334" y="1449" type="curve" smooth="yes"></point>
      <point x="296" y="1449"></point>
      <point x="257" y="1210"></point>
      <point x="257" y="1165" type="curve" smooth="yes"></point>
      <point x="257" y="1102"></point>
      <point x="264" y="800"></point>
      <point x="350" y="800" type="curve" smooth="yes"></point>
      <point x="458" y="800"></point>
      <point x="462" y="1017"></point>
      <point x="462" y="1092" type="curve" smooth="yes"></point>
      <point x="462" y="1179"></point>
      <point x="462" y="1449"></point>
    </contour>
    <contour>
      <point x="769" y="1438" type="curve"></point>
      <point x="770" y="1437" type="line"></point>
      <point x="771" y="1467"></point>
      <point x="786" y="1536"></point>
      <point x="827" y="1536" type="curve" smooth="yes"></point>
      <point x="855" y="1536"></point>
      <point x="881" y="1517"></point>
      <point x="881" y="1487" type="curve" smooth="yes"></point>
      <point x="881" y="1294"></point>
      <point x="664" y="558"></point>
      <point x="609" y="308" type="curve" smooth="yes"></point>
      <point x="594" y="241"></point>
      <point x="566" y="-4"></point>
      <point x="479" y="-8" type="curve"></point>
      <point x="458" y="4"></point>
      <point x="440" y="27"></point>
      <point x="440" y="52" type="curve" smooth="yes"></point>
      <point x="440" y="272"></point>
      <point x="696" y="1167"></point>
    </contour>
    <contour>
      <point x="923" y="2" type="curve" smooth="yes"></point>
      <point x="787" y="2"></point>
      <point x="755" y="270"></point>
      <point x="755" y="370" type="curve" smooth="yes"></point>
      <point x="755" y="504"></point>
      <point x="756" y="838"></point>
      <point x="950" y="838" type="curve" smooth="yes"></point>
      <point x="1129" y="838"></point>
      <point x="1152" y="612"></point>
      <point x="1152" y="478" type="curve" smooth="yes"></point>
      <point x="1152" y="378" type="line" smooth="yes"></point>
      <point x="1152" y="229"></point>
      <point x="1115" y="2"></point>
    </contour>
    <contour>
      <point x="556" y="1140" type="line"></point>
      <point x="555" y="1141" type="line"></point>
      <point x="503" y="999"></point>
      <point x="618" y="700"></point>
      <point x="353" y="700" type="curve" smooth="yes"></point>
      <point x="159" y="700"></point>
      <point x="158" y="1025"></point>
      <point x="158" y="1163" type="curve" smooth="yes"></point>
      <point x="158" y="1255"></point>
      <point x="191" y="1553"></point>
      <point x="327" y="1553" type="curve" smooth="yes"></point>
      <point x="532" y="1553"></point>
      <point x="556" y="1300"></point>
      <point x="556" y="1147" type="curve" smooth="yes"></point>
    </contour>
  </outline>
</glyph>
<glyph name="parenleft" format="1">
  <advance width="684"/>
  <unicode hex="0028"/>
  <outline>
    <contour>
      <point x="526" y="-319" type="curve"/>
      <point x="524" y="-318" type="line"/>
      <point x="515" y="-340"/>
      <point x="494" y="-361"/>
      <point x="468" y="-361" type="curve" smooth="yes"/>
      <point x="276" y="-361"/>
      <point x="182" y="701"/>
      <point x="182" y="881" type="curve" smooth="yes"/>
      <point x="182" y="1001"/>
      <point x="261" y="1651"/>
      <point x="403" y="1651" type="curve" smooth="yes"/>
      <point x="412" y="1651" type="line"/>
      <point x="448" y="1621" type="line"/>
      <point x="447" y="1545"/>
      <point x="403" y="1484"/>
      <point x="375" y="1416" type="curve" smooth="yes"/>
      <point x="311" y="1259"/>
      <point x="284" y="1048"/>
      <point x="284" y="879" type="curve" smooth="yes"/>
      <point x="284" y="583"/>
      <point x="315" y="139"/>
      <point x="438" y="-130" type="curve" smooth="yes"/>
      <point x="467" y="-193"/>
      <point x="509" y="-251"/>
    </contour>
  </outline>
</glyph>
<glyph name="asterisk" format="1">
  <advance width="954"/>
  <unicode hex="002A"/>
  <outline>
    <contour>
      <point x="516" y="1194" type="curve"/>
      <point x="547" y="1190"/>
      <point x="577" y="1189"/>
      <point x="608" y="1189" type="curve" smooth="yes"/>
      <point x="635" y="1189"/>
      <point x="692" y="1199"/>
      <point x="743" y="1199" type="curve" smooth="yes"/>
      <point x="798" y="1199"/>
      <point x="847" y="1187"/>
      <point x="847" y="1137" type="curve" smooth="yes"/>
      <point x="847" y="1096"/>
      <point x="811" y="1085"/>
      <point x="776" y="1085" type="curve" smooth="yes"/>
      <point x="687" y="1085"/>
      <point x="598" y="1094"/>
      <point x="509" y="1094" type="curve"/>
      <point x="539" y="1015"/>
      <point x="661" y="819"/>
      <point x="661" y="752" type="curve" smooth="yes"/>
      <point x="661" y="723"/>
      <point x="638" y="700"/>
      <point x="609" y="700" type="curve" smooth="yes"/>
      <point x="552" y="700"/>
      <point x="533" y="776"/>
      <point x="531" y="821" type="curve"/>
      <point x="444" y="1011" type="line"/>
      <point x="404" y="910"/>
      <point x="367" y="782"/>
      <point x="310" y="690" type="curve"/>
      <point x="261" y="690" type="line"/>
      <point x="217" y="736" type="line"/>
      <point x="216" y="745" type="line"/>
      <point x="221" y="817"/>
      <point x="343" y="1012"/>
      <point x="372" y="1096" type="curve"/>
      <point x="131" y="1096" type="line" smooth="yes"/>
      <point x="94" y="1096"/>
      <point x="69" y="1099"/>
      <point x="69" y="1150" type="curve" smooth="yes"/>
      <point x="69" y="1175"/>
      <point x="89" y="1196"/>
      <point x="115" y="1196" type="curve" smooth="yes"/>
      <point x="358" y="1196" type="line"/>
      <point x="331" y="1250"/>
      <point x="222" y="1455"/>
      <point x="222" y="1501" type="curve" smooth="yes"/>
      <point x="222" y="1531"/>
      <point x="251" y="1547"/>
      <point x="278" y="1547" type="curve" smooth="yes"/>
      <point x="334" y="1547"/>
      <point x="404" y="1307"/>
      <point x="429" y="1258" type="curve"/>
      <point x="449" y="1317"/>
      <point x="510" y="1567"/>
      <point x="582" y="1567" type="curve" smooth="yes"/>
      <point x="611" y="1567"/>
      <point x="639" y="1542"/>
      <point x="639" y="1512" type="curve" smooth="yes"/>
      <point x="639" y="1444"/>
      <point x="546" y="1268"/>
    </contour>
  </outline>
</glyph>
<glyph name="plus" format="1">
  <advance width="900"></advance>
  <unicode hex="002B"></unicode>
  <outline>
    <contour>
      <point x="372" y="385" type="curve" smooth="yes"></point>
      <point x="372" y="451"></point>
      <point x="359" y="518"></point>
      <point x="359" y="584" type="curve" smooth="yes"></point>
      <point x="359" y="599" type="line"></point>
      <point x="331" y="599"></point>
      <point x="285" y="590"></point>
      <point x="245" y="590" type="curve" smooth="yes"></point>
      <point x="198" y="590"></point>
      <point x="158" y="602"></point>
      <point x="158" y="655" type="curve" smooth="yes"></point>
      <point x="158" y="682"></point>
      <point x="175" y="708"></point>
      <point x="204" y="708" type="curve" smooth="yes"></point>
      <point x="244" y="708"></point>
      <point x="285" y="701"></point>
      <point x="325" y="701" type="curve" smooth="yes"></point>
      <point x="341" y="701"></point>
      <point x="356" y="702"></point>
      <point x="372" y="705" type="curve"></point>
      <point x="370" y="755"></point>
      <point x="360" y="805"></point>
      <point x="360" y="855" type="curve" smooth="yes"></point>
      <point x="360" y="900"></point>
      <point x="367" y="968"></point>
      <point x="426" y="968" type="curve" smooth="yes"></point>
      <point x="458" y="968"></point>
      <point x="478" y="942"></point>
      <point x="478" y="909" type="curve" smooth="yes"></point>
      <point x="478" y="884" type="line" smooth="yes"></point>
      <point x="479" y="853"></point>
      <point x="478" y="701"></point>
      <point x="505" y="701" type="curve" smooth="yes"></point>
      <point x="530" y="701"></point>
      <point x="578" y="709"></point>
      <point x="624" y="709" type="curve" smooth="yes"></point>
      <point x="679" y="709"></point>
      <point x="730" y="697"></point>
      <point x="730" y="647" type="curve" smooth="yes"></point>
      <point x="730" y="615"></point>
      <point x="704" y="591"></point>
      <point x="672" y="591" type="curve" smooth="yes"></point>
      <point x="631" y="591"></point>
      <point x="592" y="602"></point>
      <point x="551" y="602" type="curve" smooth="yes"></point>
      <point x="517" y="602"></point>
      <point x="486" y="593"></point>
      <point x="486" y="553" type="curve" smooth="yes"></point>
      <point x="486" y="498"></point>
      <point x="505" y="444"></point>
      <point x="505" y="389" type="curve" smooth="yes"></point>
      <point x="505" y="353"></point>
      <point x="470" y="333"></point>
      <point x="438" y="333" type="curve" smooth="yes"></point>
      <point x="409" y="333"></point>
      <point x="372" y="352"></point>
    </contour>
  </outline>
</glyph>
<glyph name="comma" format="1">
  <advance width="702"></advance>
  <unicode hex="002C"></unicode>
  <outline>
    <contour>
      <point x="425" y="185" type="curve" smooth="yes"></point>
      <point x="475" y="185"></point>
      <point x="496" y="141"></point>
      <point x="496" y="77" type="curve" smooth="yes"></point>
      <point x="496" y="-15"></point>
      <point x="389" y="-202"></point>
      <point x="284" y="-202" type="curve" smooth="yes"></point>
      <point x="268" y="-202"></point>
      <point x="254" y="-192"></point>
      <point x="254" y="-175" type="curve" smooth="yes"></point>
      <point x="254" y="-163"></point>
      <point x="260" y="-146"></point>
      <point x="279" y="-130" type="curve" smooth="yes"></point>
      <point x="359" y="-36"></point>
      <point x="326" y="185"></point>
    </contour>
  </outline>
</glyph>
<glyph name="hyphen" format="1">
  <advance width="792"></advance>
  <unicode hex="002D"></unicode>
  <unicode hex="2015"></unicode>
  <outline>
    <contour>
      <point x="616" y="739" type="curve" smooth="yes"></point>
      <point x="616" y="666"></point>
      <point x="299" y="656"></point>
      <point x="241" y="656" type="curve" smooth="yes"></point>
      <point x="208" y="656"></point>
      <point x="174" y="680"></point>
      <point x="174" y="715" type="curve" smooth="yes"></point>
      <point x="174" y="787"></point>
      <point x="491" y="798"></point>
      <point x="548" y="798" type="curve" smooth="yes"></point>
      <point x="581" y="798"></point>
      <point x="616" y="775"></point>
    </contour>
  </outline>
</glyph>
<glyph name="slash" format="1">
  <advance width="774"></advance>
  <unicode hex="002F"></unicode>
  <outline>
    <contour>
      <point x="558" y="1553" type="curve" smooth="yes"></point>
      <point x="561" y="1562"></point>
      <point x="569" y="1567"></point>
      <point x="578" y="1567" type="curve" smooth="yes"></point>
      <point x="594" y="1567"></point>
      <point x="615" y="1552"></point>
      <point x="615" y="1520" type="curve" smooth="yes"></point>
      <point x="615" y="1515"></point>
      <point x="614" y="1509"></point>
      <point x="613" y="1503" type="curve" smooth="yes"></point>
      <point x="578" y="1324"></point>
      <point x="308" y="181"></point>
      <point x="210" y="-31" type="curve"></point>
      <point x="207" y="-46"></point>
      <point x="198" y="-54"></point>
      <point x="190" y="-54" type="curve" smooth="yes"></point>
      <point x="178" y="-54"></point>
      <point x="166" y="-38"></point>
      <point x="166" y="-9" type="curve" smooth="yes"></point>
      <point x="166" y="2"></point>
      <point x="168" y="15"></point>
      <point x="172" y="30" type="curve" smooth="yes"></point>
      <point x="209" y="153"></point>
      <point x="482" y="1303"></point>
    </contour>
  </outline>
</glyph>
<glyph name="one" format="1">
  <advance width="774"></advance>
  <unicode hex="0031"></unicode>
  <outline>
    <contour>
      <point x="275" y="1308" type="curve" smooth="yes"></point>
      <point x="275" y="1329"></point>
      <point x="278" y="1356"></point>
      <point x="278" y="1383" type="curve" smooth="yes"></point>
      <point x="278" y="1432"></point>
      <point x="267" y="1479"></point>
      <point x="207" y="1479" type="curve" smooth="yes"></point>
      <point x="194" y="1479"></point>
      <point x="177" y="1477"></point>
      <point x="160" y="1477" type="curve" smooth="yes"></point>
      <point x="130" y="1477"></point>
      <point x="102" y="1483"></point>
      <point x="102" y="1521" type="curve" smooth="yes"></point>
      <point x="102" y="1574"></point>
      <point x="224" y="1575"></point>
      <point x="267" y="1575" type="curve" smooth="yes"></point>
      <point x="300" y="1575"></point>
      <point x="354" y="1574"></point>
      <point x="372" y="1541" type="curve"></point>
      <point x="366" y="1513"></point>
      <point x="360" y="1484"></point>
      <point x="360" y="1455" type="curve" smooth="yes"></point>
      <point x="360" y="1329"></point>
      <point x="391" y="1205"></point>
      <point x="391" y="1079" type="curve" smooth="yes"></point>
      <point x="391" y="756"></point>
      <point x="435" y="433"></point>
      <point x="435" y="109" type="curve" smooth="yes"></point>
      <point x="435" y="96" type="line"></point>
      <point x="460" y="98"></point>
      <point x="485" y="102"></point>
      <point x="510" y="102" type="curve"></point>
      <point x="510" y="103" type="line"></point>
      <point x="546" y="103"></point>
      <point x="597" y="99"></point>
      <point x="597" y="52" type="curve" smooth="yes"></point>
      <point x="597" y="-4"></point>
      <point x="435" y="-8"></point>
      <point x="364" y="-8" type="curve" smooth="yes"></point>
      <point x="334" y="-8"></point>
      <point x="326" y="-9"></point>
      <point x="303" y="-9" type="curve" smooth="yes"></point>
      <point x="262" y="-9"></point>
      <point x="239" y="-3"></point>
      <point x="239" y="47" type="curve" smooth="yes"></point>
      <point x="239" y="75"></point>
      <point x="244" y="86"></point>
      <point x="292" y="86" type="curve" smooth="yes"></point>
      <point x="316" y="86"></point>
      <point x="337" y="93"></point>
      <point x="337" y="120" type="curve" smooth="yes"></point>
      <point x="337" y="519"></point>
      <point x="275" y="923"></point>
    </contour>
  </outline>
</glyph>
<glyph name="two" format="1">
  <advance width="774"/>
  <unicode hex="0032"/>
  <outline>
    <contour>
      <point x="279" y="86" type="curve"/>
      <point x="356" y="99"/>
      <point x="443" y="107"/>
      <point x="521" y="107" type="curve"/>
      <point x="546" y="89"/>
      <point x="564" y="70"/>
      <point x="564" y="49" type="curve" smooth="yes"/>
      <point x="564" y="35"/>
      <point x="556" y="20"/>
      <point x="537" y="4" type="curve"/>
      <point x="433" y="4"/>
      <point x="329" y="-15"/>
      <point x="225" y="-15" type="curve" smooth="yes"/>
      <point x="189" y="-15"/>
      <point x="150" y="7"/>
      <point x="150" y="47" type="curve" smooth="yes"/>
      <point x="150" y="55" type="line"/>
      <point x="208" y="125"/>
      <point x="226" y="218"/>
      <point x="263" y="299" type="curve" smooth="yes"/>
      <point x="405" y="614"/>
      <point x="494" y="886"/>
      <point x="494" y="1236" type="curve" smooth="yes"/>
      <point x="494" y="1305"/>
      <point x="490" y="1492"/>
      <point x="396" y="1500" type="curve"/>
      <point x="340" y="1470"/>
      <point x="366" y="1327"/>
      <point x="290" y="1327" type="curve" smooth="yes"/>
      <point x="252" y="1327"/>
      <point x="240" y="1357"/>
      <point x="240" y="1390" type="curve" smooth="yes"/>
      <point x="240" y="1465"/>
      <point x="280" y="1586"/>
      <point x="372" y="1586" type="curve"/>
      <point x="372" y="1587" type="line"/>
      <point x="591" y="1587"/>
      <point x="592" y="1357"/>
      <point x="592" y="1201" type="curve" smooth="yes"/>
      <point x="592" y="772"/>
      <point x="386" y="409"/>
    </contour>
  </outline>
</glyph>
<glyph name="three" format="1">
  <advance width="774"></advance>
  <unicode hex="0033"></unicode>
  <outline>
    <contour>
      <point x="515" y="1124" type="curve" smooth="yes"></point>
      <point x="515" y="1040"></point>
      <point x="466" y="993"></point>
      <point x="423" y="927" type="curve"></point>
      <point x="561" y="844"></point>
      <point x="594" y="509"></point>
      <point x="594" y="361" type="curve" smooth="yes"></point>
      <point x="594" y="213"></point>
      <point x="581" y="-20"></point>
      <point x="382" y="-20" type="curve" smooth="yes"></point>
      <point x="325" y="-20"></point>
      <point x="231" y="5"></point>
      <point x="231" y="76" type="curve" smooth="yes"></point>
      <point x="231" y="101"></point>
      <point x="233" y="110"></point>
      <point x="265" y="110" type="curve" smooth="yes"></point>
      <point x="307" y="110"></point>
      <point x="297" y="64"></point>
      <point x="366" y="64" type="curve" smooth="yes"></point>
      <point x="481" y="64"></point>
      <point x="491" y="207"></point>
      <point x="491" y="294" type="curve" smooth="yes"></point>
      <point x="491" y="482"></point>
      <point x="489" y="694"></point>
      <point x="366" y="849" type="curve"></point>
      <point x="360" y="847"></point>
      <point x="353" y="847"></point>
      <point x="345" y="847" type="curve" smooth="yes"></point>
      <point x="315" y="847"></point>
      <point x="282" y="859"></point>
      <point x="282" y="889" type="curve" smooth="yes"></point>
      <point x="283" y="950"></point>
      <point x="413" y="1016"></point>
      <point x="413" y="1150" type="curve" smooth="yes"></point>
      <point x="413" y="1216"></point>
      <point x="399" y="1477"></point>
      <point x="306" y="1477" type="curve" smooth="yes"></point>
      <point x="230" y="1477"></point>
      <point x="254" y="1360"></point>
      <point x="171" y="1360" type="curve" smooth="yes"></point>
      <point x="139" y="1360"></point>
      <point x="115" y="1387"></point>
      <point x="110" y="1416" type="curve"></point>
      <point x="144" y="1501"></point>
      <point x="213" y="1573"></point>
      <point x="310" y="1573" type="curve" smooth="yes"></point>
      <point x="481" y="1573"></point>
      <point x="515" y="1292"></point>
    </contour>
  </outline>
</glyph>
<glyph name="six" format="1">
  <advance width="774"></advance>
  <unicode hex="0036"></unicode>
  <outline>
    <contour>
      <point x="194" y="880" type="curve" smooth="yes"></point>
      <point x="194" y="1030"></point>
      <point x="193" y="1586"></point>
      <point x="414" y="1586" type="curve" smooth="yes"></point>
      <point x="434" y="1586"></point>
      <point x="462" y="1567"></point>
      <point x="462" y="1545" type="curve" smooth="yes"></point>
      <point x="462" y="1505"></point>
      <point x="417" y="1482"></point>
      <point x="384" y="1475" type="curve"></point>
      <point x="327" y="1419"></point>
      <point x="299" y="1044"></point>
      <point x="295" y="949" type="curve"></point>
      <point x="306" y="951"></point>
      <point x="317" y="952"></point>
      <point x="327" y="952" type="curve" smooth="yes"></point>
      <point x="563" y="952"></point>
      <point x="573" y="396"></point>
      <point x="573" y="236" type="curve" smooth="yes"></point>
      <point x="573" y="114"></point>
      <point x="563" y="-14"></point>
      <point x="408" y="-14" type="curve" smooth="yes"></point>
      <point x="166" y="-14"></point>
      <point x="194" y="635"></point>
    </contour>
    <contour>
      <point x="424" y="73" type="curve" smooth="yes"></point>
      <point x="476" y="73"></point>
      <point x="477" y="177"></point>
      <point x="477" y="212" type="curve" smooth="yes"></point>
      <point x="477" y="320"></point>
      <point x="457" y="860"></point>
      <point x="339" y="882" type="curve"></point>
      <point x="297" y="853"></point>
      <point x="294" y="814"></point>
      <point x="294" y="770" type="curve" smooth="yes"></point>
      <point x="294" y="635"></point>
      <point x="299" y="73"></point>
    </contour>
  </outline>
</glyph>
<glyph name="seven" format="1">
  <advance width="684"></advance>
  <unicode hex="0037"></unicode>
  <outline>
    <contour>
      <point x="297" y="119" type="curve"></point>
      <point x="298" y="114"></point>
      <point x="298" y="108"></point>
      <point x="298" y="101" type="curve" smooth="yes"></point>
      <point x="298" y="55"></point>
      <point x="268" y="-11"></point>
      <point x="218" y="-11" type="curve"></point>
      <point x="179" y="24" type="line"></point>
      <point x="179" y="80"></point>
      <point x="202" y="129"></point>
      <point x="216" y="182" type="curve" smooth="yes"></point>
      <point x="323" y="587"></point>
      <point x="391" y="1070"></point>
      <point x="400" y="1494" type="curve"></point>
      <point x="384" y="1496"></point>
      <point x="368" y="1498"></point>
      <point x="352" y="1498" type="curve" smooth="yes"></point>
      <point x="309" y="1498"></point>
      <point x="265" y="1493"></point>
      <point x="222" y="1489" type="curve"></point>
      <point x="200" y="1499"></point>
      <point x="174" y="1522"></point>
      <point x="174" y="1549" type="curve" smooth="yes"></point>
      <point x="174" y="1580"></point>
      <point x="314" y="1582"></point>
      <point x="362" y="1582" type="curve" smooth="yes"></point>
      <point x="400" y="1582" type="line" smooth="yes"></point>
      <point x="446" y="1582"></point>
      <point x="490" y="1578"></point>
      <point x="504" y="1523" type="curve"></point>
      <point x="432" y="1169"></point>
      <point x="412" y="448"></point>
    </contour>
  </outline>
</glyph>
<glyph name="eight" format="1">
  <advance width="738"></advance>
  <unicode hex="0038"></unicode>
  <outline>
    <contour>
      <point x="299" y="863" type="curve" smooth="yes"></point>
      <point x="299" y="1040"></point>
      <point x="158" y="1225"></point>
      <point x="158" y="1421" type="curve" smooth="yes"></point>
      <point x="158" y="1510"></point>
      <point x="197" y="1607"></point>
      <point x="300" y="1607" type="curve" smooth="yes"></point>
      <point x="343" y="1607" type="line"></point>
      <point x="468" y="1530"></point>
      <point x="471" y="1466"></point>
      <point x="471" y="1313" type="curve" smooth="yes"></point>
      <point x="471" y="1160"></point>
      <point x="433" y="1010"></point>
      <point x="399" y="862" type="curve"></point>
      <point x="490" y="651"></point>
      <point x="561" y="349"></point>
      <point x="561" y="119" type="curve" smooth="yes"></point>
      <point x="561" y="103"></point>
      <point x="564" y="87"></point>
      <point x="560" y="72" type="curve"></point>
      <point x="559" y="61" type="line"></point>
      <point x="559" y="60" type="line"></point>
      <point x="522" y="-24"></point>
      <point x="461" y="-82"></point>
      <point x="365" y="-82" type="curve" smooth="yes"></point>
      <point x="235" y="-82"></point>
      <point x="203" y="98"></point>
      <point x="203" y="198" type="curve" smooth="yes"></point>
      <point x="203" y="421"></point>
      <point x="299" y="672"></point>
    </contour>
    <contour>
      <point x="298" y="190" type="curve" smooth="yes"></point>
      <point x="298" y="188" type="line" smooth="yes"></point>
      <point x="298" y="151"></point>
      <point x="308" y="115"></point>
      <point x="324" y="81" type="curve"></point>
      <point x="324" y="71" type="line"></point>
      <point x="326" y="50"></point>
      <point x="340" y="6"></point>
      <point x="367" y="6" type="curve" smooth="yes"></point>
      <point x="445" y="6"></point>
      <point x="467" y="74"></point>
      <point x="467" y="140" type="curve" smooth="yes"></point>
      <point x="467" y="348"></point>
      <point x="413" y="552"></point>
      <point x="356" y="750" type="curve"></point>
      <point x="311" y="604"></point>
      <point x="298" y="345"></point>
    </contour>
    <contour>
      <point x="307" y="1515" type="line"></point>
      <point x="286" y="1515" type="line"></point>
      <point x="286" y="1516" type="line"></point>
      <point x="261" y="1488"></point>
      <point x="258" y="1449"></point>
      <point x="258" y="1413" type="curve" smooth="yes"></point>
      <point x="258" y="1317"></point>
      <point x="304" y="1101"></point>
      <point x="335" y="1007" type="curve"></point>
      <point x="363" y="1106"></point>
      <point x="380" y="1209"></point>
      <point x="380" y="1312" type="curve" smooth="yes"></point>
      <point x="380" y="1342"></point>
      <point x="364" y="1516"></point>
      <point x="329" y="1516" type="curve"></point>
    </contour>
  </outline>
</glyph>
<glyph name="nine" format="1">
  <advance width="756"></advance>
  <unicode hex="0039"></unicode>
  <outline>
    <contour>
      <point x="536" y="237" type="curve"></point>
      <point x="535" y="188"></point>
      <point x="522" y="139"></point>
      <point x="522" y="90" type="curve" smooth="yes"></point>
      <point x="522" y="78"></point>
      <point x="523" y="64"></point>
      <point x="523" y="49" type="curve" smooth="yes"></point>
      <point x="523" y="9"></point>
      <point x="505" y="-34"></point>
      <point x="455" y="-34" type="curve"></point>
      <point x="423" y="4" type="line"></point>
      <point x="453" y="94"></point>
      <point x="455" y="502"></point>
      <point x="455" y="686" type="curve" smooth="yes"></point>
      <point x="455" y="772"></point>
      <point x="452" y="848"></point>
      <point x="451" y="931" type="curve"></point>
      <point x="302" y="965"></point>
      <point x="190" y="1087"></point>
      <point x="190" y="1243" type="curve" smooth="yes"></point>
      <point x="190" y="1370"></point>
      <point x="217" y="1614"></point>
      <point x="388" y="1614" type="curve" smooth="yes"></point>
      <point x="529" y="1614"></point>
      <point x="560" y="1547"></point>
      <point x="560" y="1420" type="curve" smooth="yes"></point>
      <point x="560" y="1026"></point>
      <point x="536" y="631"></point>
    </contour>
    <contour>
      <point x="453" y="1009" type="curve"></point>
      <point x="461" y="1148"></point>
      <point x="462" y="1288"></point>
      <point x="462" y="1427" type="curve" smooth="yes"></point>
      <point x="462" y="1480"></point>
      <point x="453" y="1527"></point>
      <point x="389" y="1527" type="curve" smooth="yes"></point>
      <point x="308" y="1527"></point>
      <point x="290" y="1306"></point>
      <point x="290" y="1247" type="curve" smooth="yes"></point>
      <point x="290" y="1085"></point>
      <point x="350" y="1067"></point>
    </contour>
  </outline>
</glyph>
<glyph name="colon" format="1">
  <advance width="612"></advance>
  <unicode hex="003A"></unicode>
  <outline>
    <contour>
      <point x="214" y="250" type="curve" smooth="yes"></point>
      <point x="214" y="291"></point>
      <point x="250" y="329"></point>
      <point x="291" y="329" type="curve" smooth="yes"></point>
      <point x="330" y="329"></point>
      <point x="363" y="290"></point>
      <point x="363" y="252" type="curve" smooth="yes"></point>
      <point x="363" y="206"></point>
      <point x="328" y="177"></point>
      <point x="283" y="177" type="curve" smooth="yes"></point>
      <point x="245" y="177"></point>
      <point x="214" y="213"></point>
    </contour>
    <contour>
      <point x="235" y="1024" type="curve" smooth="yes"></point>
      <point x="235" y="1064"></point>
      <point x="270" y="1103"></point>
      <point x="311" y="1103" type="curve" smooth="yes"></point>
      <point x="350" y="1103"></point>
      <point x="384" y="1064"></point>
      <point x="384" y="1026" type="curve" smooth="yes"></point>
      <point x="384" y="979"></point>
      <point x="348" y="951"></point>
      <point x="303" y="951" type="curve" smooth="yes"></point>
      <point x="265" y="951"></point>
      <point x="235" y="987"></point>
    </contour>
  </outline>
</glyph>
<glyph name="semicolon" format="1">
  <advance width="630"></advance>
  <unicode hex="003B"></unicode>
  <outline>
    <contour>
      <point x="339" y="359" type="curve" smooth="yes"></point>
      <point x="389" y="359"></point>
      <point x="410" y="315"></point>
      <point x="410" y="251" type="curve" smooth="yes"></point>
      <point x="410" y="159"></point>
      <point x="318" y="-28"></point>
      <point x="228" y="-28" type="curve" smooth="yes"></point>
      <point x="212" y="-28"></point>
      <point x="198" y="-18"></point>
      <point x="198" y="-1" type="curve" smooth="yes"></point>
      <point x="198" y="11"></point>
      <point x="204" y="28"></point>
      <point x="223" y="44" type="curve" smooth="yes"></point>
      <point x="287" y="138"></point>
      <point x="261" y="359"></point>
    </contour>
    <contour>
      <point x="274" y="1025" type="curve" smooth="yes"></point>
      <point x="274" y="1065"></point>
      <point x="309" y="1104"></point>
      <point x="350" y="1104" type="curve" smooth="yes"></point>
      <point x="389" y="1104"></point>
      <point x="423" y="1065"></point>
      <point x="423" y="1027" type="curve" smooth="yes"></point>
      <point x="423" y="980"></point>
      <point x="387" y="952"></point>
      <point x="342" y="952" type="curve" smooth="yes"></point>
      <point x="304" y="952"></point>
      <point x="274" y="988"></point>
    </contour>
  </outline>
</glyph>
<glyph name="greater" format="1">
  <advance width="774"></advance>
  <unicode hex="003E"></unicode>
  <outline>
    <contour>
      <point x="482" y="702" type="curve" smooth="yes"></point>
      <point x="482" y="908"></point>
      <point x="227" y="1202"></point>
      <point x="225" y="1411" type="curve"></point>
      <point x="280" y="1446" type="line"></point>
      <point x="280" y="1444" type="line"></point>
      <point x="367" y="1404"></point>
      <point x="597" y="788"></point>
      <point x="600" y="698" type="curve"></point>
      <point x="239" y="-19" type="line"></point>
      <point x="226" y="-19"></point>
      <point x="214" y="-23"></point>
      <point x="201" y="-23" type="curve" smooth="yes"></point>
      <point x="180" y="-23"></point>
      <point x="158" y="-6"></point>
      <point x="158" y="24" type="curve" smooth="yes"></point>
      <point x="158" y="116"></point>
      <point x="482" y="654"></point>
    </contour>
  </outline>
</glyph>
<glyph name="question" format="1">
  <advance width="702"/>
  <unicode hex="003F"/>
  <outline>
    <contour>
      <point x="194" y="1359" type="line" smooth="yes"/>
      <point x="194" y="1446"/>
      <point x="224" y="1547"/>
      <point x="334" y="1547" type="curve" smooth="yes"/>
      <point x="494" y="1547"/>
      <point x="509" y="1388"/>
      <point x="509" y="1260" type="curve" smooth="yes"/>
      <point x="509" y="945"/>
      <point x="384" y="823"/>
      <point x="384" y="366" type="curve" smooth="yes"/>
      <point x="384" y="332"/>
      <point x="384" y="267"/>
      <point x="385" y="229" type="curve"/>
      <point x="324" y="229"/>
      <point x="353" y="223"/>
      <point x="334" y="223" type="curve" smooth="yes"/>
      <point x="313" y="223"/>
      <point x="294" y="232"/>
      <point x="284" y="269" type="curve"/>
      <point x="284" y="632"/>
      <point x="399" y="949"/>
      <point x="399" y="1258" type="curve" smooth="yes"/>
      <point x="399" y="1297"/>
      <point x="397" y="1447"/>
      <point x="338" y="1447" type="curve" smooth="yes"/>
      <point x="305" y="1447"/>
      <point x="299" y="1397"/>
      <point x="299" y="1356" type="curve" smooth="yes"/>
      <point x="299" y="1341"/>
      <point x="305" y="1299"/>
      <point x="313" y="1245" type="curve" smooth="yes"/>
      <point x="313" y="1241"/>
      <point x="276" y="1203"/>
      <point x="252" y="1203" type="curve" smooth="yes"/>
      <point x="197" y="1203"/>
      <point x="194" y="1286"/>
      <point x="194" y="1340" type="curve" smooth="yes"/>
    </contour>
    <contour>
      <point x="262" y="68" type="curve" smooth="yes"/>
      <point x="262" y="107"/>
      <point x="302" y="148"/>
      <point x="342" y="148" type="curve" smooth="yes"/>
      <point x="379" y="148"/>
      <point x="417" y="102"/>
      <point x="417" y="70" type="curve" smooth="yes"/>
      <point x="417" y="15"/>
      <point x="382" y="-8"/>
      <point x="334" y="-8" type="curve" smooth="yes"/>
      <point x="294" y="-8"/>
      <point x="262" y="31"/>
    </contour>
  </outline>
</glyph>
<glyph name="at" format="1">
  <advance width="1260"></advance>
  <unicode hex="0040"></unicode>
  <outline>
    <contour>
      <point x="565" y="-120" type="curve" smooth="yes"></point>
      <point x="152" y="-120"></point>
      <point x="150" y="685"></point>
      <point x="150" y="956" type="curve" smooth="yes"></point>
      <point x="150" y="1262"></point>
      <point x="158" y="1719"></point>
      <point x="613" y="1719" type="curve" smooth="yes"></point>
      <point x="1041" y="1719"></point>
      <point x="1120" y="1150"></point>
      <point x="1120" y="767" type="curve" smooth="yes"></point>
      <point x="1120" y="645"></point>
      <point x="1116" y="406"></point>
      <point x="944" y="406" type="curve" smooth="yes"></point>
      <point x="905" y="406"></point>
      <point x="869" y="459"></point>
      <point x="841" y="519" type="curve"></point>
      <point x="797" y="398"></point>
      <point x="713" y="306"></point>
      <point x="622" y="306" type="curve" smooth="yes"></point>
      <point x="395" y="306"></point>
      <point x="393" y="661"></point>
      <point x="393" y="851" type="curve" smooth="yes"></point>
      <point x="393" y="1047"></point>
      <point x="397" y="1351"></point>
      <point x="626" y="1351" type="curve" smooth="yes"></point>
      <point x="894" y="1351"></point>
      <point x="894" y="818"></point>
      <point x="923" y="565" type="curve"></point>
      <point x="923" y="556" type="line"></point>
      <point x="952" y="510" type="line"></point>
      <point x="1000" y="536"></point>
      <point x="1005" y="723"></point>
      <point x="1005" y="776" type="curve" smooth="yes"></point>
      <point x="1005" y="1092"></point>
      <point x="948" y="1612"></point>
      <point x="603" y="1612" type="curve" smooth="yes"></point>
      <point x="287" y="1612"></point>
      <point x="271" y="1300"></point>
      <point x="271" y="1050" type="curve" smooth="yes"></point>
      <point x="271" y="966" type="line" smooth="yes"></point>
      <point x="271" y="930" type="line" smooth="yes"></point>
      <point x="271" y="688"></point>
      <point x="279" y="-31"></point>
      <point x="569" y="-31" type="curve" smooth="yes"></point>
      <point x="865" y="-31"></point>
      <point x="929" y="150"></point>
      <point x="1011" y="150" type="curve" smooth="yes"></point>
      <point x="1023" y="150"></point>
      <point x="1029" y="142"></point>
      <point x="1029" y="130" type="curve" smooth="yes"></point>
      <point x="1029" y="72"></point>
      <point x="879" y="-120"></point>
    </contour>
    <contour>
      <point x="626" y="1246" type="curve" smooth="yes"></point>
      <point x="544" y="1246"></point>
      <point x="500" y="1035"></point>
      <point x="500" y="825" type="curve" smooth="yes"></point>
      <point x="500" y="617"></point>
      <point x="544" y="410"></point>
      <point x="638" y="410" type="curve" smooth="yes"></point>
      <point x="700" y="410"></point>
      <point x="773" y="550"></point>
      <point x="773" y="605" type="curve" smooth="yes"></point>
      <point x="773" y="759" type="line" smooth="yes"></point>
      <point x="773" y="875"></point>
      <point x="747" y="1246"></point>
    </contour>
  </outline>
</glyph>
<glyph name="A" format="1">
  <advance width="846"></advance>
  <unicode hex="0041"></unicode>
  <outline>
    <contour>
      <point x="572" y="1525" type="curve"></point>
      <point x="572" y="1370"></point>
      <point x="652" y="897"></point>
      <point x="652" y="710" type="curve" smooth="yes"></point>
      <point x="652" y="521"></point>
      <point x="695" y="284"></point>
      <point x="695" y="70" type="curve" smooth="yes"></point>
      <point x="695" y="24"></point>
      <point x="674" y="1"></point>
      <point x="627" y="1" type="curve" smooth="yes"></point>
      <point x="587" y="1"></point>
      <point x="564" y="13"></point>
      <point x="564" y="54" type="curve" smooth="yes"></point>
      <point x="564" y="321" type="line"></point>
      <point x="520" y="351"></point>
      <point x="381" y="369"></point>
      <point x="325" y="373" type="curve"></point>
      <point x="274" y="286"></point>
      <point x="282" y="117"></point>
      <point x="224" y="23" type="curve"></point>
      <point x="192" y="23"></point>
      <point x="143" y="26"></point>
      <point x="134" y="64" type="curve"></point>
      <point x="205" y="167"></point>
      <point x="353" y="1543"></point>
      <point x="506" y="1543" type="curve" smooth="yes"></point>
      <point x="528" y="1543"></point>
      <point x="554" y="1539"></point>
    </contour>
    <contour>
      <point x="494" y="1236" type="curve" smooth="yes"></point>
      <point x="494" y="1243"></point>
      <point x="494" y="1249"></point>
      <point x="495" y="1254" type="curve"></point>
      <point x="447" y="1204"></point>
      <point x="342" y="549"></point>
      <point x="338" y="464" type="curve"></point>
      <point x="397" y="448"></point>
      <point x="459" y="441"></point>
      <point x="520" y="441" type="curve" smooth="yes"></point>
      <point x="533" y="441"></point>
      <point x="550" y="444"></point>
      <point x="562" y="447" type="curve"></point>
      <point x="552" y="576"></point>
      <point x="494" y="1110"></point>
    </contour>
  </outline>
</glyph>
<glyph name="B" format="1">
  <advance width="774"/>
  <unicode hex="0042"/>
  <outline>
    <contour>
      <point x="407" y="1536" type="move" name="top"/>
    </contour>
    <contour>
      <point x="635" y="374" type="curve" smooth="yes"/>
      <point x="635" y="282"/>
      <point x="546" y="-17"/>
      <point x="290" y="-17" type="curve" smooth="yes"/>
      <point x="282" y="-17" type="line" smooth="yes"/>
      <point x="245" y="-17"/>
      <point x="186" y="-15"/>
      <point x="186" y="34" type="curve" smooth="yes"/>
      <point x="186" y="202"/>
      <point x="196" y="370"/>
      <point x="196" y="538" type="curve" smooth="yes"/>
      <point x="196" y="815"/>
      <point x="182" y="1093"/>
      <point x="182" y="1370" type="curve" smooth="yes"/>
      <point x="182" y="1382" type="line" smooth="yes"/>
      <point x="182" y="1440"/>
      <point x="185" y="1537"/>
      <point x="259" y="1537" type="curve" smooth="yes"/>
      <point x="459" y="1537"/>
      <point x="569" y="1392"/>
      <point x="569" y="1201" type="curve" smooth="yes"/>
      <point x="569" y="1075"/>
      <point x="492" y="924"/>
      <point x="403" y="859" type="curve"/>
      <point x="585" y="737"/>
      <point x="635" y="537"/>
    </contour>
    <contour>
      <point x="529" y="369" type="curve" smooth="yes"/>
      <point x="529" y="717"/>
      <point x="373" y="769"/>
      <point x="373" y="769" type="curve"/>
      <point x="300" y="769" type="line"/>
      <point x="308" y="543"/>
      <point x="310" y="316"/>
      <point x="310" y="90" type="curve"/>
      <point x="451" y="112"/>
      <point x="529" y="232"/>
    </contour>
    <contour>
      <point x="322" y="1421" type="curve" smooth="yes"/>
      <point x="293" y="1421"/>
      <point x="293" y="1376"/>
      <point x="293" y="1357" type="curve" smooth="yes"/>
      <point x="293" y="1201"/>
      <point x="300" y="1044"/>
      <point x="301" y="888" type="curve"/>
      <point x="394" y="909"/>
      <point x="438" y="1095"/>
      <point x="469" y="1173" type="curve"/>
      <point x="469" y="1246" type="line" smooth="yes"/>
      <point x="469" y="1321"/>
      <point x="404" y="1421"/>
    </contour>
  </outline>
</glyph>
<glyph name="C" format="1">
  <advance width="918"/>
  <unicode hex="0043"/>
  <outline>
    <contour>
      <point x="490" y="0" type="move" name="bot"/>
    </contour>
    <contour>
      <point x="467" y="1536" type="move" name="top"/>
    </contour>
    <contour>
      <point x="680" y="166" type="curve" smooth="yes"/>
      <point x="699" y="166"/>
      <point x="721" y="154"/>
      <point x="740" y="135" type="curve"/>
      <point x="740" y="4"/>
      <point x="595" y="-33"/>
      <point x="489" y="-33" type="curve" smooth="yes"/>
      <point x="202" y="-33"/>
      <point x="174" y="425"/>
      <point x="174" y="792" type="curve" smooth="yes"/>
      <point x="174" y="882"/>
      <point x="176" y="966"/>
      <point x="176" y="1037" type="curve" smooth="yes"/>
      <point x="176" y="1100"/>
      <point x="178" y="1164"/>
      <point x="190" y="1226" type="curve"/>
      <point x="186" y="1248"/>
      <point x="184" y="1270"/>
      <point x="184" y="1290" type="curve" smooth="yes"/>
      <point x="184" y="1463"/>
      <point x="333" y="1565"/>
      <point x="510" y="1565" type="curve" smooth="yes"/>
      <point x="565" y="1565"/>
      <point x="653" y="1531"/>
      <point x="653" y="1465" type="curve" smooth="yes"/>
      <point x="653" y="1434"/>
      <point x="624" y="1419"/>
      <point x="596" y="1419" type="curve" smooth="yes"/>
      <point x="576" y="1419"/>
      <point x="534" y="1426"/>
      <point x="523" y="1444" type="curve"/>
      <point x="523" y="1443" type="line"/>
      <point x="495" y="1443" type="line"/>
      <point x="495" y="1448" type="line"/>
      <point x="298" y="1448"/>
      <point x="293" y="1294"/>
      <point x="293" y="1140" type="curve" smooth="yes"/>
      <point x="293" y="1093"/>
      <point x="299" y="1046"/>
      <point x="299" y="999" type="curve" smooth="yes"/>
      <point x="299" y="951"/>
      <point x="281" y="904"/>
      <point x="281" y="856" type="curve" smooth="yes"/>
      <point x="281" y="807" type="line" smooth="yes"/>
      <point x="281" y="549"/>
      <point x="288" y="93"/>
      <point x="516" y="93" type="curve" smooth="yes"/>
      <point x="583" y="93"/>
      <point x="627" y="166"/>
    </contour>
  </outline>
</glyph>
<glyph name="C" format="1">
  <advance width="918"></advance>
  <unicode hex="0043"></unicode>
  <outline>
    <contour>
      <point x="680" y="166" type="curve" smooth="yes"></point>
      <point x="699" y="166"></point>
      <point x="721" y="154"></point>
      <point x="740" y="135" type="curve"></point>
      <point x="740" y="4"></point>
      <point x="595" y="-33"></point>
      <point x="489" y="-33" type="curve" smooth="yes"></point>
      <point x="202" y="-33"></point>
      <point x="174" y="425"></point>
      <point x="174" y="792" type="curve" smooth="yes"></point>
      <point x="174" y="882"></point>
      <point x="176" y="966"></point>
      <point x="176" y="1037" type="curve" smooth="yes"></point>
      <point x="176" y="1100"></point>
      <point x="178" y="1164"></point>
      <point x="190" y="1226" type="curve"></point>
      <point x="186" y="1248"></point>
      <point x="184" y="1270"></point>
      <point x="184" y="1290" type="curve" smooth="yes"></point>
      <point x="184" y="1463"></point>
      <point x="333" y="1565"></point>
      <point x="510" y="1565" type="curve" smooth="yes"></point>
      <point x="565" y="1565"></point>
      <point x="653" y="1531"></point>
      <point x="653" y="1465" type="curve" smooth="yes"></point>
      <point x="653" y="1434"></point>
      <point x="624" y="1419"></point>
      <point x="596" y="1419" type="curve" smooth="yes"></point>
      <point x="576" y="1419"></point>
      <point x="534" y="1426"></point>
      <point x="523" y="1444" type="curve"></point>
      <point x="523" y="1443" type="line"></point>
      <point x="495" y="1443" type="line"></point>
      <point x="495" y="1448" type="line"></point>
      <point x="298" y="1448"></point>
      <point x="293" y="1294"></point>
      <point x="293" y="1140" type="curve" smooth="yes"></point>
      <point x="293" y="1093"></point>
      <point x="299" y="1046"></point>
      <point x="299" y="999" type="curve" smooth="yes"></point>
      <point x="299" y="951"></point>
      <point x="281" y="904"></point>
      <point x="281" y="856" type="curve" smooth="yes"></point>
      <point x="281" y="807" type="line" smooth="yes"></point>
      <point x="281" y="549"></point>
      <point x="288" y="93"></point>
      <point x="516" y="93" type="curve" smooth="yes"></point>
      <point x="583" y="93"></point>
      <point x="627" y="166"></point>
    </contour>
  </outline>
</glyph>
<glyph name="D" format="1">
  <advance width="882"/>
  <unicode hex="0044"/>
  <outline>
    <contour>
      <point x="240" y="809" type="move" name="mid"/>
    </contour>
    <contour>
      <point x="357" y="1536" type="move" name="top"/>
    </contour>
    <contour>
      <point x="274" y="-5" type="curve" smooth="yes"/>
      <point x="232" y="-5"/>
      <point x="174" y="14"/>
      <point x="174" y="65" type="curve"/>
      <point x="219" y="112"/>
      <point x="219" y="244"/>
      <point x="219" y="306" type="curve" smooth="yes"/>
      <point x="219" y="533"/>
      <point x="181" y="758"/>
      <point x="181" y="982" type="curve" smooth="yes"/>
      <point x="181" y="1055"/>
      <point x="187" y="1131"/>
      <point x="187" y="1206" type="curve" smooth="yes"/>
      <point x="187" y="1308"/>
      <point x="142" y="1400"/>
      <point x="142" y="1481" type="curve" smooth="yes"/>
      <point x="142" y="1548"/>
      <point x="241" y="1552"/>
      <point x="299" y="1552" type="curve" smooth="yes"/>
      <point x="330" y="1552" type="line" smooth="yes"/>
      <point x="693" y="1552"/>
      <point x="699" y="1023"/>
      <point x="699" y="868" type="curve" smooth="yes"/>
      <point x="699" y="773" type="line"/>
      <point x="688" y="754"/>
      <point x="699" y="733"/>
      <point x="699" y="711" type="curve" smooth="yes"/>
      <point x="699" y="503"/>
      <point x="525" y="-5"/>
    </contour>
    <contour>
      <point x="317" y="310" type="curve" smooth="yes"/>
      <point x="317" y="114" type="line"/>
      <point x="534" y="254"/>
      <point x="594" y="615"/>
      <point x="594" y="854" type="curve" smooth="yes"/>
      <point x="594" y="1061"/>
      <point x="550" y="1429"/>
      <point x="268" y="1429" type="curve"/>
      <point x="268" y="1427" type="line" smooth="yes"/>
      <point x="269" y="1054"/>
      <point x="317" y="683"/>
    </contour>
  </outline>
</glyph>
<glyph name="E" format="1">
  <advance width="738"/>
  <unicode hex="0045"/>
  <outline>
    <contour>
      <point x="360" y="0" type="move" name="bot"/>
    </contour>
    <contour>
      <point x="406" y="0" type="move" name="ogonek"/>
    </contour>
    <contour>
      <point x="347" y="1536" type="move" name="top"/>
    </contour>
    <contour>
      <point x="551" y="50" type="line"/>
      <point x="520" y="-11"/>
      <point x="435" y="-12"/>
      <point x="376" y="-12" type="curve" smooth="yes"/>
      <point x="312" y="-12" type="line" smooth="yes"/>
      <point x="264" y="-12"/>
      <point x="210" y="-10"/>
      <point x="210" y="55" type="curve" smooth="yes"/>
      <point x="210" y="1245" type="line" smooth="yes"/>
      <point x="210" y="1316"/>
      <point x="182" y="1383"/>
      <point x="182" y="1454" type="curve" smooth="yes"/>
      <point x="182" y="1461" type="line"/>
      <point x="197" y="1486"/>
      <point x="211" y="1513"/>
      <point x="233" y="1533" type="curve"/>
      <point x="284" y="1533"/>
      <point x="334" y="1551"/>
      <point x="385" y="1551" type="curve" smooth="yes"/>
      <point x="421" y="1551"/>
      <point x="479" y="1527"/>
      <point x="479" y="1484" type="curve" smooth="yes"/>
      <point x="479" y="1432"/>
      <point x="428" y="1423"/>
      <point x="386" y="1423" type="curve" smooth="yes"/>
      <point x="366" y="1423"/>
      <point x="347" y="1425"/>
      <point x="327" y="1425" type="curve" smooth="yes"/>
      <point x="320" y="1425"/>
      <point x="312" y="1425"/>
      <point x="305" y="1424" type="curve"/>
      <point x="305" y="1311"/>
      <point x="321" y="1199"/>
      <point x="321" y="1086" type="curve" smooth="yes"/>
      <point x="321" y="1008"/>
      <point x="312" y="930"/>
      <point x="311" y="852" type="curve"/>
      <point x="343" y="858"/>
      <point x="374" y="870"/>
      <point x="407" y="870" type="curve" smooth="yes"/>
      <point x="437" y="870"/>
      <point x="467" y="844"/>
      <point x="467" y="813" type="curve" smooth="yes"/>
      <point x="467" y="782"/>
      <point x="447" y="750"/>
      <point x="413" y="750" type="curve" smooth="yes"/>
      <point x="400" y="750"/>
      <point x="381" y="752"/>
      <point x="362" y="752" type="curve" smooth="yes"/>
      <point x="341" y="752"/>
      <point x="330" y="749"/>
      <point x="320" y="737" type="curve"/>
      <point x="320" y="105" type="line"/>
      <point x="355" y="107"/>
      <point x="399" y="111"/>
      <point x="434" y="111" type="curve" smooth="yes"/>
      <point x="470" y="111"/>
      <point x="551" y="108"/>
      <point x="551" y="57" type="curve" smooth="yes"/>
    </contour>
  </outline>
</glyph>
<glyph name="F" format="1">
  <advance width="702"/>
  <unicode hex="0046"/>
  <outline>
    <contour>
      <point x="347" y="1536" type="move" name="top"/>
    </contour>
    <contour>
      <point x="360" y="81" type="curve" smooth="yes"/>
      <point x="363" y="72"/>
      <point x="364" y="64"/>
      <point x="364" y="56" type="curve" smooth="yes"/>
      <point x="364" y="21"/>
      <point x="337" y="-2"/>
      <point x="295" y="-2" type="curve" smooth="yes"/>
      <point x="240" y="-2"/>
      <point x="236" y="90"/>
      <point x="236" y="129" type="curve" smooth="yes"/>
      <point x="236" y="283"/>
      <point x="206" y="1390"/>
      <point x="174" y="1440" type="curve"/>
      <point x="174" y="1550"/>
      <point x="289" y="1554"/>
      <point x="372" y="1554" type="curve" smooth="yes"/>
      <point x="424" y="1554"/>
      <point x="459" y="1544"/>
      <point x="459" y="1484" type="curve" smooth="yes"/>
      <point x="459" y="1453"/>
      <point x="429" y="1440"/>
      <point x="402" y="1440" type="curve" smooth="yes"/>
      <point x="393" y="1440"/>
      <point x="373" y="1442"/>
      <point x="352" y="1442" type="curve" smooth="yes"/>
      <point x="324" y="1442"/>
      <point x="295" y="1438"/>
      <point x="295" y="1419" type="curve" smooth="yes"/>
      <point x="295" y="1235"/>
      <point x="324" y="1053"/>
      <point x="326" y="869" type="curve"/>
      <point x="364" y="876"/>
      <point x="401" y="891"/>
      <point x="440" y="891" type="curve" smooth="yes"/>
      <point x="472" y="891"/>
      <point x="496" y="858"/>
      <point x="496" y="828" type="curve" smooth="yes"/>
      <point x="496" y="762"/>
      <point x="371" y="764"/>
      <point x="326" y="761" type="curve"/>
      <point x="326" y="538"/>
      <point x="365" y="317"/>
      <point x="365" y="94" type="curve" smooth="yes"/>
      <point x="365" y="90"/>
      <point x="361" y="85"/>
    </contour>
  </outline>
</glyph>
<glyph name="F" format="1">
  <advance width="702"></advance>
  <unicode hex="0046"></unicode>
  <outline>
    <contour>
      <point x="360" y="81" type="curve"></point>
      <point x="363" y="72"></point>
      <point x="364" y="64"></point>
      <point x="364" y="56" type="curve" smooth="yes"></point>
      <point x="364" y="21"></point>
      <point x="337" y="-2"></point>
      <point x="295" y="-2" type="curve" smooth="yes"></point>
      <point x="240" y="-2"></point>
      <point x="236" y="90"></point>
      <point x="236" y="129" type="curve" smooth="yes"></point>
      <point x="236" y="283"></point>
      <point x="206" y="1390"></point>
      <point x="174" y="1440" type="curve"></point>
      <point x="174" y="1550"></point>
      <point x="289" y="1554"></point>
      <point x="372" y="1554" type="curve" smooth="yes"></point>
      <point x="424" y="1554"></point>
      <point x="459" y="1544"></point>
      <point x="459" y="1484" type="curve" smooth="yes"></point>
      <point x="459" y="1453"></point>
      <point x="429" y="1440"></point>
      <point x="402" y="1440" type="curve" smooth="yes"></point>
      <point x="393" y="1440"></point>
      <point x="373" y="1442"></point>
      <point x="352" y="1442" type="curve" smooth="yes"></point>
      <point x="324" y="1442"></point>
      <point x="295" y="1438"></point>
      <point x="295" y="1419" type="curve" smooth="yes"></point>
      <point x="295" y="1235"></point>
      <point x="324" y="1053"></point>
      <point x="326" y="869" type="curve"></point>
      <point x="364" y="876"></point>
      <point x="401" y="891"></point>
      <point x="440" y="891" type="curve" smooth="yes"></point>
      <point x="472" y="891"></point>
      <point x="496" y="858"></point>
      <point x="496" y="828" type="curve" smooth="yes"></point>
      <point x="496" y="762"></point>
      <point x="371" y="764"></point>
      <point x="326" y="761" type="curve"></point>
      <point x="326" y="538"></point>
      <point x="365" y="317"></point>
      <point x="365" y="94" type="curve" smooth="yes"></point>
      <point x="365" y="90"></point>
      <point x="361" y="85"></point>
    </contour>
  </outline>
</glyph>
<glyph name="G" format="1">
  <advance width="914"/>
  <unicode hex="0047"/>
  <outline>
    <contour>
      <point x="530" y="0" type="move" name="bot"/>
    </contour>
    <contour>
      <point x="507" y="1536" type="move" name="top"/>
    </contour>
    <contour>
      <point x="685" y="2" type="curve"/>
      <point x="685" y="4" type="line"/>
      <point x="636" y="-18"/>
      <point x="590" y="-54"/>
      <point x="534" y="-54" type="curve" smooth="yes"/>
      <point x="184" y="-54"/>
      <point x="175" y="464"/>
      <point x="175" y="711" type="curve" smooth="yes"/>
      <point x="175" y="753"/>
      <point x="174" y="805"/>
      <point x="174" y="862" type="curve" smooth="yes"/>
      <point x="174" y="1158"/>
      <point x="200" y="1591"/>
      <point x="525" y="1591" type="curve" smooth="yes"/>
      <point x="563" y="1591"/>
      <point x="610" y="1580"/>
      <point x="610" y="1533" type="curve" smooth="yes"/>
      <point x="610" y="1503"/>
      <point x="584" y="1485"/>
      <point x="556" y="1485" type="curve" smooth="yes"/>
      <point x="536" y="1485"/>
      <point x="517" y="1495"/>
      <point x="497" y="1495" type="curve" smooth="yes"/>
      <point x="289" y="1495"/>
      <point x="284" y="927"/>
      <point x="284" y="744" type="curve" smooth="yes"/>
      <point x="284" y="709"/>
      <point x="283" y="670"/>
      <point x="283" y="617" type="curve" smooth="yes"/>
      <point x="283" y="400"/>
      <point x="301" y="51"/>
      <point x="530" y="51" type="curve" smooth="yes"/>
      <point x="596" y="51"/>
      <point x="644" y="84"/>
      <point x="681" y="137" type="curve"/>
      <point x="680" y="190"/>
      <point x="672" y="329"/>
      <point x="648" y="371" type="curve"/>
      <point x="626" y="369"/>
      <point x="596" y="363"/>
      <point x="568" y="363" type="curve" smooth="yes"/>
      <point x="531" y="363"/>
      <point x="498" y="374"/>
      <point x="498" y="421" type="curve" smooth="yes"/>
      <point x="498" y="477"/>
      <point x="635" y="489"/>
      <point x="675" y="489" type="curve" smooth="yes"/>
      <point x="736" y="489"/>
      <point x="762" y="434"/>
      <point x="762" y="380" type="curve" smooth="yes"/>
      <point x="762" y="257"/>
      <point x="803" y="138"/>
      <point x="803" y="15" type="curve" smooth="yes"/>
      <point x="803" y="-14"/>
      <point x="784" y="-41"/>
      <point x="753" y="-41" type="curve" smooth="yes"/>
      <point x="724" y="-41"/>
      <point x="696" y="-26"/>
    </contour>
  </outline>
</glyph>
<glyph name="I" format="1">
  <advance width="702"/>
  <unicode hex="0049"/>
  <outline>
    <contour>
      <point x="346" y="0" type="move" name="ogonek"/>
    </contour>
    <contour>
      <point x="317" y="1536" type="move" name="top"/>
    </contour>
    <contour>
      <point x="466" y="8" type="line"/>
      <point x="446" y="8"/>
      <point x="388" y="3"/>
      <point x="327" y="3" type="curve" smooth="yes"/>
      <point x="241" y="3"/>
      <point x="150" y="13"/>
      <point x="150" y="64" type="curve" smooth="yes"/>
      <point x="150" y="101"/>
      <point x="180" y="113"/>
      <point x="212" y="113" type="curve" smooth="yes"/>
      <point x="229" y="113"/>
      <point x="243" y="110"/>
      <point x="255" y="110" type="curve" smooth="yes"/>
      <point x="274" y="110"/>
      <point x="285" y="118"/>
      <point x="285" y="158" type="curve" smooth="yes"/>
      <point x="285" y="474"/>
      <point x="247" y="789"/>
      <point x="247" y="1105" type="curve" smooth="yes"/>
      <point x="247" y="1175"/>
      <point x="251" y="1244"/>
      <point x="251" y="1314" type="curve" smooth="yes"/>
      <point x="251" y="1352"/>
      <point x="250" y="1390"/>
      <point x="246" y="1428" type="curve"/>
      <point x="231" y="1423"/>
      <point x="213" y="1419"/>
      <point x="198" y="1419" type="curve" smooth="yes"/>
      <point x="171" y="1419"/>
      <point x="150" y="1430"/>
      <point x="150" y="1468" type="curve" smooth="yes"/>
      <point x="150" y="1540"/>
      <point x="351" y="1553"/>
      <point x="403" y="1553" type="curve" smooth="yes"/>
      <point x="434" y="1553"/>
      <point x="463" y="1529"/>
      <point x="463" y="1497" type="curve" smooth="yes"/>
      <point x="463" y="1470"/>
      <point x="445" y="1442"/>
      <point x="415" y="1442" type="curve" smooth="yes"/>
      <point x="401" y="1442"/>
      <point x="389" y="1443"/>
      <point x="379" y="1443" type="curve" smooth="yes"/>
      <point x="355" y="1443"/>
      <point x="340" y="1437"/>
      <point x="340" y="1401" type="curve" smooth="yes"/>
      <point x="340" y="1001"/>
      <point x="390" y="603"/>
      <point x="390" y="203" type="curve" smooth="yes"/>
      <point x="390" y="124" type="line"/>
      <point x="404" y="126"/>
      <point x="418" y="127"/>
      <point x="432" y="127" type="curve" smooth="yes"/>
      <point x="477" y="127"/>
      <point x="517" y="113"/>
      <point x="517" y="55" type="curve" smooth="yes"/>
      <point x="517" y="43" type="line"/>
    </contour>
  </outline>
</glyph>
<glyph name="I" format="1">
  <advance width="702"></advance>
  <unicode hex="0049"></unicode>
  <outline>
    <contour>
      <point x="466" y="8" type="line"></point>
      <point x="446" y="8"></point>
      <point x="388" y="3"></point>
      <point x="327" y="3" type="curve" smooth="yes"></point>
      <point x="241" y="3"></point>
      <point x="150" y="13"></point>
      <point x="150" y="64" type="curve" smooth="yes"></point>
      <point x="150" y="101"></point>
      <point x="180" y="113"></point>
      <point x="212" y="113" type="curve" smooth="yes"></point>
      <point x="229" y="113"></point>
      <point x="243" y="110"></point>
      <point x="255" y="110" type="curve" smooth="yes"></point>
      <point x="274" y="110"></point>
      <point x="285" y="118"></point>
      <point x="285" y="158" type="curve" smooth="yes"></point>
      <point x="285" y="474"></point>
      <point x="247" y="789"></point>
      <point x="247" y="1105" type="curve" smooth="yes"></point>
      <point x="247" y="1175"></point>
      <point x="251" y="1244"></point>
      <point x="251" y="1314" type="curve" smooth="yes"></point>
      <point x="251" y="1352"></point>
      <point x="250" y="1390"></point>
      <point x="246" y="1428" type="curve"></point>
      <point x="231" y="1423"></point>
      <point x="213" y="1419"></point>
      <point x="198" y="1419" type="curve" smooth="yes"></point>
      <point x="171" y="1419"></point>
      <point x="150" y="1430"></point>
      <point x="150" y="1468" type="curve" smooth="yes"></point>
      <point x="150" y="1540"></point>
      <point x="351" y="1553"></point>
      <point x="403" y="1553" type="curve" smooth="yes"></point>
      <point x="434" y="1553"></point>
      <point x="463" y="1529"></point>
      <point x="463" y="1497" type="curve" smooth="yes"></point>
      <point x="463" y="1470"></point>
      <point x="445" y="1442"></point>
      <point x="415" y="1442" type="curve" smooth="yes"></point>
      <point x="401" y="1442"></point>
      <point x="389" y="1443"></point>
      <point x="379" y="1443" type="curve" smooth="yes"></point>
      <point x="355" y="1443"></point>
      <point x="340" y="1437"></point>
      <point x="340" y="1401" type="curve" smooth="yes"></point>
      <point x="340" y="1001"></point>
      <point x="390" y="603"></point>
      <point x="390" y="203" type="curve" smooth="yes"></point>
      <point x="390" y="124" type="line"></point>
      <point x="404" y="126"></point>
      <point x="418" y="127"></point>
      <point x="432" y="127" type="curve" smooth="yes"></point>
      <point x="477" y="127"></point>
      <point x="517" y="113"></point>
      <point x="517" y="55" type="curve" smooth="yes"></point>
      <point x="517" y="43" type="line"></point>
    </contour>
  </outline>
</glyph>
<glyph name="J" format="1">
  <advance width="720"/>
  <unicode hex="004A"/>
  <outline>
    <contour>
      <point x="407" y="1536" type="move" name="top"/>
    </contour>
    <contour>
      <point x="340" y="1445" type="curve"/>
      <point x="311" y="1439"/>
      <point x="281" y="1429"/>
      <point x="251" y="1429" type="curve" smooth="yes"/>
      <point x="223" y="1429"/>
      <point x="199" y="1453"/>
      <point x="199" y="1481" type="curve" smooth="yes"/>
      <point x="199" y="1553"/>
      <point x="395" y="1553"/>
      <point x="444" y="1553" type="curve" smooth="yes"/>
      <point x="470" y="1553" type="line" smooth="yes"/>
      <point x="512" y="1553"/>
      <point x="562" y="1548"/>
      <point x="562" y="1497" type="curve" smooth="yes"/>
      <point x="562" y="1453"/>
      <point x="512" y="1444"/>
      <point x="477" y="1444" type="curve" smooth="yes"/>
      <point x="475" y="1444"/>
      <point x="473" y="1445"/>
      <point x="471" y="1445" type="curve" smooth="yes"/>
      <point x="443" y="1445" type="line"/>
      <point x="443" y="1429" type="line" smooth="yes"/>
      <point x="443" y="1323"/>
      <point x="467" y="1218"/>
      <point x="467" y="1112" type="curve" smooth="yes"/>
      <point x="467" y="846"/>
      <point x="504" y="581"/>
      <point x="504" y="315" type="curve" smooth="yes"/>
      <point x="504" y="260"/>
      <point x="503" y="207"/>
      <point x="503" y="152" type="curve" smooth="yes"/>
      <point x="503" y="0"/>
      <point x="440" y="-147"/>
      <point x="305" y="-194" type="curve"/>
      <point x="265" y="-194"/>
      <point x="231" y="-175"/>
      <point x="231" y="-131" type="curve" smooth="yes"/>
      <point x="231" y="-94"/>
      <point x="281" y="-61"/>
      <point x="311" y="-48" type="curve"/>
      <point x="339" y="-12"/>
      <point x="393" y="102"/>
      <point x="393" y="241" type="curve" smooth="yes"/>
      <point x="393" y="307"/>
      <point x="396" y="374"/>
      <point x="396" y="441" type="curve" smooth="yes"/>
      <point x="396" y="469"/>
      <point x="395" y="497"/>
      <point x="394" y="525" type="curve" smooth="yes"/>
      <point x="384" y="706"/>
      <point x="378" y="1025"/>
    </contour>
  </outline>
</glyph>
<glyph name="J" format="1">
  <advance width="720"></advance>
  <unicode hex="004A"></unicode>
  <outline>
    <contour>
      <point x="340" y="1445" type="curve"></point>
      <point x="311" y="1439"></point>
      <point x="281" y="1429"></point>
      <point x="251" y="1429" type="curve" smooth="yes"></point>
      <point x="223" y="1429"></point>
      <point x="199" y="1453"></point>
      <point x="199" y="1481" type="curve" smooth="yes"></point>
      <point x="199" y="1553"></point>
      <point x="395" y="1553"></point>
      <point x="444" y="1553" type="curve" smooth="yes"></point>
      <point x="470" y="1553" type="line" smooth="yes"></point>
      <point x="512" y="1553"></point>
      <point x="562" y="1548"></point>
      <point x="562" y="1497" type="curve" smooth="yes"></point>
      <point x="562" y="1453"></point>
      <point x="512" y="1444"></point>
      <point x="477" y="1444" type="curve" smooth="yes"></point>
      <point x="475" y="1444"></point>
      <point x="473" y="1445"></point>
      <point x="471" y="1445" type="curve" smooth="yes"></point>
      <point x="443" y="1445" type="line"></point>
      <point x="443" y="1429" type="line" smooth="yes"></point>
      <point x="443" y="1323"></point>
      <point x="467" y="1218"></point>
      <point x="467" y="1112" type="curve" smooth="yes"></point>
      <point x="467" y="846"></point>
      <point x="504" y="581"></point>
      <point x="504" y="315" type="curve" smooth="yes"></point>
      <point x="504" y="260"></point>
      <point x="503" y="207"></point>
      <point x="503" y="152" type="curve" smooth="yes"></point>
      <point x="503" y="0"></point>
      <point x="440" y="-147"></point>
      <point x="305" y="-194" type="curve"></point>
      <point x="265" y="-194"></point>
      <point x="231" y="-175"></point>
      <point x="231" y="-131" type="curve" smooth="yes"></point>
      <point x="231" y="-94"></point>
      <point x="281" y="-61"></point>
      <point x="311" y="-48" type="curve"></point>
      <point x="339" y="-12"></point>
      <point x="393" y="102"></point>
      <point x="393" y="241" type="curve" smooth="yes"></point>
      <point x="393" y="334"></point>
      <point x="394" y="429"></point>
      <point x="394" y="525" type="curve" smooth="yes"></point>
      <point x="394" y="836"></point>
      <point x="388" y="1155"></point>
    </contour>
  </outline>
</glyph>
<glyph name="K" format="1">
  <advance width="864"/>
  <unicode hex="004B"/>
  <outline>
    <contour>
      <point x="430" y="0" type="move" name="bot"/>
    </contour>
    <contour>
      <point x="417" y="1536" type="move" name="top"/>
    </contour>
    <contour>
      <point x="174" y="1476" type="curve" smooth="yes"/>
      <point x="174" y="1509"/>
      <point x="197" y="1541"/>
      <point x="232" y="1541" type="curve" smooth="yes"/>
      <point x="306" y="1541"/>
      <point x="308" y="1426"/>
      <point x="308" y="1375" type="curve" smooth="yes"/>
      <point x="308" y="1235"/>
      <point x="302" y="1094"/>
      <point x="299" y="954" type="curve"/>
      <point x="338" y="1045"/>
      <point x="536" y="1596"/>
      <point x="606" y="1596" type="curve" smooth="yes"/>
      <point x="636" y="1596"/>
      <point x="664" y="1574"/>
      <point x="664" y="1542" type="curve" smooth="yes"/>
      <point x="664" y="1497"/>
      <point x="453" y="1108"/>
      <point x="427" y="991" type="curve"/>
      <point x="427" y="955" type="line"/>
      <point x="463" y="864"/>
      <point x="724" y="48"/>
      <point x="724" y="11" type="curve" smooth="yes"/>
      <point x="724" y="-23"/>
      <point x="691" y="-48"/>
      <point x="659" y="-48" type="curve" smooth="yes"/>
      <point x="643" y="-48"/>
      <point x="627" y="-41"/>
      <point x="611" y="-40" type="curve"/>
      <point x="556" y="272"/>
      <point x="493" y="590"/>
      <point x="361" y="880" type="curve"/>
      <point x="307" y="776"/>
      <point x="291" y="769"/>
      <point x="291" y="650" type="curve" smooth="yes"/>
      <point x="291" y="523"/>
      <point x="304" y="397"/>
      <point x="304" y="270" type="curve" smooth="yes"/>
      <point x="304" y="102" type="line" smooth="yes"/>
      <point x="304" y="78"/>
      <point x="302" y="-7"/>
      <point x="234" y="-7" type="curve" smooth="yes"/>
      <point x="176" y="-7"/>
      <point x="174" y="67"/>
      <point x="174" y="108" type="curve" smooth="yes"/>
      <point x="174" y="292"/>
      <point x="201" y="476"/>
      <point x="201" y="660" type="curve" smooth="yes"/>
      <point x="201" y="754"/>
      <point x="204" y="905"/>
      <point x="204" y="1049" type="curve" smooth="yes"/>
      <point x="204" y="1238"/>
      <point x="174" y="1347"/>
    </contour>
  </outline>
</glyph>
<glyph name="L" format="1">
  <advance width="684"></advance>
  <unicode hex="004C"></unicode>
  <outline>
    <contour>
      <point x="325" y="115" type="line"></point>
      <point x="481" y="115" type="line"></point>
      <point x="503" y="100"></point>
      <point x="525" y="83"></point>
      <point x="525" y="54" type="curve" smooth="yes"></point>
      <point x="525" y="25"></point>
      <point x="504" y="-4"></point>
      <point x="473" y="-4" type="curve" smooth="yes"></point>
      <point x="463" y="-4"></point>
      <point x="451" y="1"></point>
      <point x="442" y="3" type="curve"></point>
      <point x="429" y="0"></point>
      <point x="416" y="-1"></point>
      <point x="403" y="-1" type="curve" smooth="yes"></point>
      <point x="381" y="-1"></point>
      <point x="359" y="2"></point>
      <point x="337" y="2" type="curve"></point>
      <point x="323" y="-15"></point>
      <point x="300" y="-23"></point>
      <point x="279" y="-23" type="curve" smooth="yes"></point>
      <point x="245" y="-23"></point>
      <point x="210" y="7"></point>
      <point x="210" y="42" type="curve" smooth="yes"></point>
      <point x="210" y="73"></point>
      <point x="223" y="101"></point>
      <point x="223" y="132" type="curve" smooth="yes"></point>
      <point x="223" y="598"></point>
      <point x="182" y="1063"></point>
      <point x="182" y="1529" type="curve" smooth="yes"></point>
      <point x="182" y="1556"></point>
      <point x="207" y="1571"></point>
      <point x="232" y="1571" type="curve" smooth="yes"></point>
      <point x="265" y="1571"></point>
      <point x="294" y="1546"></point>
      <point x="294" y="1512" type="curve" smooth="yes"></point>
      <point x="294" y="1266"></point>
      <point x="315" y="1019"></point>
      <point x="315" y="775" type="curve" smooth="yes"></point>
      <point x="315" y="753"></point>
      <point x="320" y="732"></point>
      <point x="317" y="710" type="curve"></point>
      <point x="317" y="701" type="line"></point>
      <point x="325" y="523"></point>
      <point x="325" y="345"></point>
      <point x="325" y="167" type="curve" smooth="yes"></point>
    </contour>
  </outline>
</glyph>
<glyph name="M" format="1">
  <advance width="1044"/>
  <unicode hex="004D"/>
  <outline>
    <contour>
      <point x="517" y="1536" type="move" name="top"/>
    </contour>
    <contour>
      <point x="707" y="1517" type="curve"/>
      <point x="707" y="1529" type="line"/>
      <point x="713" y="1565"/>
      <point x="745" y="1587"/>
      <point x="780" y="1587" type="curve" smooth="yes"/>
      <point x="806" y="1587"/>
      <point x="828" y="1560"/>
      <point x="828" y="1535" type="curve" smooth="yes"/>
      <point x="828" y="1045"/>
      <point x="865" y="557"/>
      <point x="865" y="67" type="curve" smooth="yes"/>
      <point x="865" y="-2"/>
      <point x="820" y="-54"/>
      <point x="784" y="-54" type="curve" smooth="yes"/>
      <point x="760" y="-54"/>
      <point x="739" y="-30"/>
      <point x="739" y="27" type="curve" smooth="yes"/>
      <point x="739" y="314"/>
      <point x="731" y="602"/>
      <point x="731" y="889" type="curve" smooth="yes"/>
      <point x="731" y="993" type="line"/>
      <point x="696" y="801"/>
      <point x="631" y="605"/>
      <point x="605" y="414" type="curve"/>
      <point x="605" y="401" type="line"/>
      <point x="594" y="347"/>
      <point x="592" y="222"/>
      <point x="514" y="222" type="curve" smooth="yes"/>
      <point x="441" y="222"/>
      <point x="441" y="364"/>
      <point x="441" y="413" type="curve" smooth="yes"/>
      <point x="441" y="660"/>
      <point x="344" y="931"/>
      <point x="290" y="1172" type="curve"/>
      <point x="288" y="1090"/>
      <point x="286" y="1007"/>
      <point x="286" y="925" type="curve" smooth="yes"/>
      <point x="286" y="644"/>
      <point x="303" y="364"/>
      <point x="303" y="83" type="curve" smooth="yes"/>
      <point x="303" y="54"/>
      <point x="292" y="27"/>
      <point x="272" y="6" type="curve"/>
      <point x="194" y="6"/>
      <point x="182" y="68"/>
      <point x="182" y="132" type="curve" smooth="yes"/>
      <point x="182" y="243"/>
      <point x="192" y="353"/>
      <point x="192" y="464" type="curve" smooth="yes"/>
      <point x="192" y="729"/>
      <point x="185" y="993"/>
      <point x="185" y="1257" type="curve" smooth="yes"/>
      <point x="185" y="1346"/>
      <point x="186" y="1434"/>
      <point x="188" y="1522" type="curve"/>
      <point x="245" y="1554" type="line"/>
      <point x="354" y="1546"/>
      <point x="498" y="674"/>
      <point x="529" y="528" type="curve"/>
      <point x="597" y="850"/>
      <point x="688" y="1188"/>
    </contour>
  </outline>
</glyph>
<glyph name="N" format="1">
  <advance width="972"/>
  <unicode hex="004E"/>
  <outline>
    <contour>
      <point x="490" y="0" type="move" name="bot"/>
    </contour>
    <contour>
      <point x="489" y="1536" type="move" name="top"/>
    </contour>
    <contour>
      <point x="655" y="225" type="curve"/>
      <point x="655" y="463"/>
      <point x="663" y="701"/>
      <point x="663" y="939" type="curve" smooth="yes"/>
      <point x="663" y="1545" type="line"/>
      <point x="671" y="1580"/>
      <point x="697" y="1596"/>
      <point x="730" y="1596" type="curve" smooth="yes"/>
      <point x="775" y="1596"/>
      <point x="785" y="1553"/>
      <point x="785" y="1516" type="curve" smooth="yes"/>
      <point x="785" y="1504" type="line"/>
      <point x="776" y="1485"/>
      <point x="773" y="1465"/>
      <point x="773" y="1444" type="curve" smooth="yes"/>
      <point x="773" y="1193"/>
      <point x="760" y="939"/>
      <point x="760" y="687" type="curve" smooth="yes"/>
      <point x="760" y="61" type="line" smooth="yes"/>
      <point x="760" y="25"/>
      <point x="737" y="-30"/>
      <point x="701" y="-30" type="curve" smooth="yes"/>
      <point x="636" y="-30"/>
      <point x="409" y="808"/>
      <point x="286" y="1298" type="curve"/>
      <point x="286" y="626" type="line" smooth="yes"/>
      <point x="286" y="431"/>
      <point x="315" y="237"/>
      <point x="315" y="42" type="curve" smooth="yes"/>
      <point x="315" y="16"/>
      <point x="276" y="-2"/>
      <point x="243" y="-2" type="curve" smooth="yes"/>
      <point x="219" y="-2"/>
      <point x="198" y="7"/>
      <point x="198" y="30" type="curve" smooth="yes"/>
      <point x="198" y="65"/>
      <point x="208" y="109"/>
      <point x="208" y="177" type="curve" smooth="yes"/>
      <point x="208" y="371"/>
      <point x="182" y="688"/>
      <point x="182" y="812" type="curve" smooth="yes"/>
      <point x="182" y="1073" type="line" smooth="yes"/>
      <point x="182" y="1198"/>
      <point x="196" y="1324"/>
      <point x="196" y="1449" type="curve" smooth="yes"/>
      <point x="196" y="1462" type="line" smooth="yes"/>
      <point x="196" y="1508"/>
      <point x="204" y="1564"/>
      <point x="241" y="1564" type="curve" smooth="yes"/>
      <point x="365" y="1564"/>
      <point x="654" y="228"/>
    </contour>
  </outline>
</glyph>
<glyph name="O" format="1">
  <advance width="900"/>
  <unicode hex="004F"/>
  <outline>
    <contour>
      <point x="526" y="0" type="move" name="ogonek"/>
    </contour>
    <contour>
      <point x="417" y="1536" type="move" name="top"/>
    </contour>
    <contour>
      <point x="415" y="1477" type="curve" smooth="yes"/>
      <point x="283" y="1477"/>
      <point x="281" y="979"/>
      <point x="281" y="861" type="curve" smooth="yes"/>
      <point x="281" y="852" type="line" smooth="yes"/>
      <point x="281" y="720"/>
      <point x="326" y="55"/>
      <point x="491" y="55" type="curve" smooth="yes"/>
      <point x="609" y="55"/>
      <point x="621" y="561"/>
      <point x="621" y="653" type="curve" smooth="yes"/>
      <point x="621" y="797"/>
      <point x="616" y="1477"/>
    </contour>
    <contour>
      <point x="405" y="1585" type="curve" smooth="yes"/>
      <point x="698" y="1585"/>
      <point x="714" y="1071"/>
      <point x="714" y="736" type="curve" smooth="yes"/>
      <point x="714" y="618" type="line" smooth="yes"/>
      <point x="714" y="531"/>
      <point x="697" y="446"/>
      <point x="696" y="359" type="curve" smooth="yes"/>
      <point x="696" y="350" type="line"/>
      <point x="686" y="306"/>
      <point x="683" y="261"/>
      <point x="683" y="215" type="curve" smooth="yes"/>
      <point x="683" y="113"/>
      <point x="607" y="-57"/>
      <point x="487" y="-57" type="curve" smooth="yes"/>
      <point x="215" y="-57"/>
      <point x="189" y="609"/>
      <point x="189" y="799" type="curve" smooth="yes"/>
      <point x="189" y="863"/>
      <point x="186" y="948"/>
      <point x="186" y="1038" type="curve" smooth="yes"/>
      <point x="186" y="1290"/>
      <point x="211" y="1585"/>
    </contour>
  </outline>
</glyph>
<glyph name="P" format="1">
  <advance width="738"></advance>
  <unicode hex="0050"></unicode>
  <outline>
    <contour>
      <point x="219" y="789" type="curve" smooth="yes"></point>
      <point x="219" y="1059"></point>
      <point x="207" y="1327"></point>
      <point x="166" y="1520" type="curve"></point>
      <point x="184" y="1546"></point>
      <point x="213" y="1566"></point>
      <point x="245" y="1566" type="curve" smooth="yes"></point>
      <point x="456" y="1566"></point>
      <point x="566" y="1365"></point>
      <point x="566" y="1175" type="curve" smooth="yes"></point>
      <point x="566" y="983"></point>
      <point x="484" y="805"></point>
      <point x="310" y="712" type="curve"></point>
      <point x="311" y="499"></point>
      <point x="326" y="287"></point>
      <point x="326" y="74" type="curve" smooth="yes"></point>
      <point x="326" y="30"></point>
      <point x="309" y="-11"></point>
      <point x="258" y="-11" type="curve" smooth="yes"></point>
      <point x="222" y="-11"></point>
      <point x="209" y="29"></point>
      <point x="209" y="58" type="curve" smooth="yes"></point>
      <point x="209" y="260"></point>
      <point x="219" y="526"></point>
    </contour>
    <contour>
      <point x="461" y="1158" type="curve" smooth="yes"></point>
      <point x="461" y="1159" type="line" smooth="yes"></point>
      <point x="461" y="1334"></point>
      <point x="418" y="1362"></point>
      <point x="281" y="1459" type="curve"></point>
      <point x="282" y="1243"></point>
      <point x="304" y="1027"></point>
      <point x="305" y="811" type="curve"></point>
      <point x="409" y="909"></point>
      <point x="461" y="1014"></point>
    </contour>
  </outline>
</glyph>
<glyph name="Q" format="1">
  <advance width="918"/>
  <unicode hex="0051"/>
  <outline>
    <contour>
      <point x="719" y="659" type="curve" smooth="yes"/>
      <point x="719" y="567" type="line" smooth="yes"/>
      <point x="719" y="369"/>
      <point x="712" y="236"/>
      <point x="593" y="70" type="curve"/>
      <point x="603" y="27"/>
      <point x="624" y="-169"/>
      <point x="680" y="-169" type="curve" smooth="yes"/>
      <point x="688" y="-169" type="line" smooth="yes"/>
      <point x="724" y="-169"/>
      <point x="776" y="-171"/>
      <point x="776" y="-219" type="curve" smooth="yes"/>
      <point x="776" y="-270"/>
      <point x="726" y="-282"/>
      <point x="685" y="-282" type="curve" smooth="yes"/>
      <point x="654" y="-282"/>
      <point x="626" y="-268"/>
      <point x="600" y="-253" type="curve"/>
      <point x="600" y="-252" type="line"/>
      <point x="502" y="-207"/>
      <point x="505" y="-69"/>
      <point x="486" y="20" type="curve"/>
      <point x="402" y="20" type="line"/>
      <point x="208" y="149"/>
      <point x="182" y="359"/>
      <point x="182" y="574" type="curve" smooth="yes"/>
      <point x="182" y="685"/>
      <point x="192" y="797"/>
      <point x="192" y="908" type="curve" smooth="yes"/>
      <point x="192" y="943"/>
      <point x="190" y="994"/>
      <point x="190" y="1052" type="curve" smooth="yes"/>
      <point x="190" y="1265"/>
      <point x="212" y="1576"/>
      <point x="416" y="1576" type="curve" smooth="yes"/>
      <point x="694" y="1576"/>
      <point x="721" y="1186"/>
      <point x="721" y="868" type="curve" smooth="yes"/>
      <point x="721" y="792"/>
      <point x="719" y="721"/>
    </contour>
    <contour>
      <point x="399" y="1474" type="curve" smooth="yes"/>
      <point x="292" y="1474"/>
      <point x="283" y="775"/>
      <point x="283" y="653" type="curve" smooth="yes"/>
      <point x="283" y="522"/>
      <point x="297" y="95"/>
      <point x="474" y="80" type="curve"/>
      <point x="474" y="82" type="line"/>
      <point x="484" y="99"/>
      <point x="510" y="108"/>
      <point x="530" y="108" type="curve"/>
      <point x="530" y="107" type="line"/>
      <point x="590" y="162"/>
      <point x="607" y="252"/>
      <point x="607" y="327" type="curve" smooth="yes"/>
      <point x="607" y="878" type="line" smooth="yes"/>
      <point x="607" y="1109"/>
      <point x="596" y="1474"/>
    </contour>
  </outline>
</glyph>
<glyph name="Q" format="1">
  <advance width="918"></advance>
  <unicode hex="0051"></unicode>
  <outline>
    <contour>
      <point x="399" y="1474" type="curve" smooth="yes"></point>
      <point x="292" y="1474"></point>
      <point x="283" y="775"></point>
      <point x="283" y="653" type="curve" smooth="yes"></point>
      <point x="283" y="522"></point>
      <point x="297" y="95"></point>
      <point x="474" y="80" type="curve"></point>
      <point x="474" y="82" type="line"></point>
      <point x="484" y="99"></point>
      <point x="510" y="108"></point>
      <point x="530" y="108" type="curve"></point>
      <point x="530" y="107" type="line"></point>
      <point x="590" y="162"></point>
      <point x="607" y="252"></point>
      <point x="607" y="327" type="curve" smooth="yes"></point>
      <point x="607" y="793" type="line" smooth="yes"></point>
      <point x="607" y="1004"></point>
      <point x="622" y="1474"></point>
    </contour>
    <contour>
      <point x="719" y="659" type="curve" smooth="yes"></point>
      <point x="719" y="567" type="line" smooth="yes"></point>
      <point x="719" y="369"></point>
      <point x="712" y="236"></point>
      <point x="593" y="70" type="curve"></point>
      <point x="603" y="27"></point>
      <point x="624" y="-169"></point>
      <point x="680" y="-169" type="curve" smooth="yes"></point>
      <point x="688" y="-169" type="line" smooth="yes"></point>
      <point x="724" y="-169"></point>
      <point x="776" y="-171"></point>
      <point x="776" y="-219" type="curve" smooth="yes"></point>
      <point x="776" y="-270"></point>
      <point x="726" y="-282"></point>
      <point x="685" y="-282" type="curve" smooth="yes"></point>
      <point x="654" y="-282"></point>
      <point x="626" y="-268"></point>
      <point x="600" y="-253" type="curve"></point>
      <point x="600" y="-252" type="line"></point>
      <point x="502" y="-207"></point>
      <point x="505" y="-69"></point>
      <point x="486" y="20" type="curve"></point>
      <point x="402" y="20" type="line"></point>
      <point x="208" y="149"></point>
      <point x="182" y="359"></point>
      <point x="182" y="574" type="curve" smooth="yes"></point>
      <point x="182" y="685"></point>
      <point x="192" y="797"></point>
      <point x="192" y="908" type="curve" smooth="yes"></point>
      <point x="192" y="943"></point>
      <point x="190" y="994"></point>
      <point x="190" y="1052" type="curve" smooth="yes"></point>
      <point x="190" y="1265"></point>
      <point x="212" y="1576"></point>
      <point x="416" y="1576" type="curve" smooth="yes"></point>
      <point x="760" y="1576"></point>
      <point x="719" y="979"></point>
    </contour>
  </outline>
</glyph>
<glyph name="R" format="1">
  <advance width="756"/>
  <unicode hex="0052"/>
  <outline>
    <contour>
      <point x="390" y="0" type="move" name="bot"/>
    </contour>
    <contour>
      <point x="347" y="1536" type="move" name="top"/>
    </contour>
    <contour>
      <point x="395" y="1207" type="line" smooth="yes"/>
      <point x="396" y="1214"/>
      <point x="397" y="1223"/>
      <point x="397" y="1234" type="curve" smooth="yes"/>
      <point x="397" y="1308"/>
      <point x="364" y="1451"/>
      <point x="303" y="1463" type="curve"/>
      <point x="302" y="1324"/>
      <point x="292" y="1184"/>
      <point x="292" y="1045" type="curve" smooth="yes"/>
      <point x="292" y="1014"/>
      <point x="292" y="982"/>
      <point x="294" y="951" type="curve"/>
      <point x="319" y="975"/>
      <point x="342" y="1002"/>
      <point x="363" y="1030" type="curve"/>
    </contour>
    <contour>
      <point x="299" y="859" type="curve"/>
      <point x="299" y="52" type="line" smooth="yes"/>
      <point x="299" y="17"/>
      <point x="293" y="-13"/>
      <point x="242" y="-13" type="curve" smooth="yes"/>
      <point x="211" y="-13"/>
      <point x="190" y="12"/>
      <point x="190" y="44" type="curve" smooth="yes"/>
      <point x="190" y="60" type="line" smooth="yes"/>
      <point x="190" y="460"/>
      <point x="198" y="861"/>
      <point x="198" y="1261" type="curve" smooth="yes"/>
      <point x="198" y="1513" type="line" smooth="yes"/>
      <point x="198" y="1541"/>
      <point x="203" y="1557"/>
      <point x="252" y="1557" type="curve" smooth="yes"/>
      <point x="429" y="1557"/>
      <point x="510" y="1370"/>
      <point x="510" y="1217" type="curve" smooth="yes"/>
      <point x="510" y="1097"/>
      <point x="458" y="985"/>
      <point x="415" y="876" type="curve"/>
      <point x="418" y="648"/>
      <point x="555" y="299"/>
      <point x="626" y="76" type="curve"/>
      <point x="626" y="71" type="line" smooth="yes"/>
      <point x="626" y="35"/>
      <point x="627" y="-21"/>
      <point x="576" y="-21" type="curve" smooth="yes"/>
      <point x="542" y="-21"/>
      <point x="519" y="8"/>
      <point x="502" y="34" type="curve"/>
      <point x="502" y="41" type="line"/>
      <point x="486" y="299"/>
      <point x="365" y="598"/>
    </contour>
  </outline>
</glyph>
<glyph name="S" format="1">
  <advance width="774"/>
  <unicode hex="0053"/>
  <outline>
    <contour>
      <point x="360" y="0" type="move" name="bot"/>
    </contour>
    <contour>
      <point x="417" y="1536" type="move" name="top"/>
    </contour>
    <contour>
      <point x="300" y="1290" type="curve" smooth="yes"/>
      <point x="300" y="939"/>
      <point x="597" y="751"/>
      <point x="597" y="342" type="curve" smooth="yes"/>
      <point x="597" y="179"/>
      <point x="509" y="-45"/>
      <point x="317" y="-45" type="curve" smooth="yes"/>
      <point x="277" y="-45"/>
      <point x="158" y="-31"/>
      <point x="158" y="24" type="curve" smooth="yes"/>
      <point x="158" y="52"/>
      <point x="172" y="79"/>
      <point x="204" y="79" type="curve" smooth="yes"/>
      <point x="248" y="79"/>
      <point x="285" y="48"/>
      <point x="317" y="48" type="curve" smooth="yes"/>
      <point x="430" y="48"/>
      <point x="476" y="268"/>
      <point x="476" y="355" type="curve" smooth="yes"/>
      <point x="476" y="690"/>
      <point x="183" y="940"/>
      <point x="183" y="1275" type="curve" smooth="yes"/>
      <point x="183" y="1408"/>
      <point x="257" y="1574"/>
      <point x="411" y="1574" type="curve" smooth="yes"/>
      <point x="459" y="1574"/>
      <point x="513" y="1545"/>
      <point x="532" y="1500" type="curve"/>
      <point x="497" y="1456" type="line"/>
      <point x="469" y="1456"/>
      <point x="440" y="1460"/>
      <point x="417" y="1476" type="curve"/>
      <point x="335" y="1468"/>
      <point x="300" y="1360"/>
    </contour>
  </outline>
</glyph>
<glyph name="S" format="1">
  <advance width="774"></advance>
  <unicode hex="0053"></unicode>
  <outline>
    <contour>
      <point x="300" y="1290" type="curve" smooth="yes"></point>
      <point x="300" y="939"></point>
      <point x="597" y="751"></point>
      <point x="597" y="342" type="curve" smooth="yes"></point>
      <point x="597" y="179"></point>
      <point x="509" y="-45"></point>
      <point x="317" y="-45" type="curve" smooth="yes"></point>
      <point x="277" y="-45"></point>
      <point x="158" y="-31"></point>
      <point x="158" y="24" type="curve" smooth="yes"></point>
      <point x="158" y="52"></point>
      <point x="172" y="79"></point>
      <point x="204" y="79" type="curve" smooth="yes"></point>
      <point x="248" y="79"></point>
      <point x="285" y="48"></point>
      <point x="317" y="48" type="curve" smooth="yes"></point>
      <point x="430" y="48"></point>
      <point x="476" y="268"></point>
      <point x="476" y="355" type="curve" smooth="yes"></point>
      <point x="476" y="690"></point>
      <point x="183" y="940"></point>
      <point x="183" y="1275" type="curve" smooth="yes"></point>
      <point x="183" y="1408"></point>
      <point x="257" y="1574"></point>
      <point x="411" y="1574" type="curve" smooth="yes"></point>
      <point x="459" y="1574"></point>
      <point x="513" y="1545"></point>
      <point x="532" y="1500" type="curve"></point>
      <point x="497" y="1456" type="line"></point>
      <point x="469" y="1456"></point>
      <point x="440" y="1460"></point>
      <point x="417" y="1476" type="curve"></point>
      <point x="335" y="1468"></point>
      <point x="300" y="1360"></point>
    </contour>
  </outline>
</glyph>
<glyph name="T" format="1">
  <advance width="720"/>
  <unicode hex="0054"/>
  <outline>
    <contour>
      <point x="394" y="857" type="move" name="mid"/>
    </contour>
    <contour>
      <point x="418" y="0" type="move" name="bot"/>
    </contour>
    <contour>
      <point x="397" y="1536" type="move" name="top"/>
    </contour>
    <contour>
      <point x="441" y="925" type="curve" smooth="yes"/>
      <point x="441" y="765"/>
      <point x="459" y="615"/>
      <point x="459" y="454" type="curve" smooth="yes"/>
      <point x="459" y="331"/>
      <point x="476" y="209"/>
      <point x="476" y="86" type="curve" smooth="yes"/>
      <point x="476" y="46"/>
      <point x="470" y="-14"/>
      <point x="417" y="-14" type="curve" smooth="yes"/>
      <point x="366" y="-14"/>
      <point x="351" y="48"/>
      <point x="351" y="89" type="curve" smooth="yes"/>
      <point x="351" y="198"/>
      <point x="367" y="307"/>
      <point x="367" y="416" type="curve" smooth="yes"/>
      <point x="367" y="629"/>
      <point x="339" y="841"/>
      <point x="339" y="1054" type="curve" smooth="yes"/>
      <point x="339" y="1093"/>
      <point x="342" y="1163"/>
      <point x="342" y="1233" type="curve" smooth="yes"/>
      <point x="342" y="1311"/>
      <point x="338" y="1389"/>
      <point x="323" y="1424" type="curve"/>
      <point x="286" y="1422"/>
      <point x="249" y="1413"/>
      <point x="212" y="1413" type="curve" smooth="yes"/>
      <point x="180" y="1413"/>
      <point x="145" y="1433"/>
      <point x="145" y="1469" type="curve" smooth="yes"/>
      <point x="145" y="1539"/>
      <point x="464" y="1550"/>
      <point x="521" y="1550" type="curve" smooth="yes"/>
      <point x="553" y="1550"/>
      <point x="587" y="1526"/>
      <point x="587" y="1492" type="curve" smooth="yes"/>
      <point x="587" y="1457"/>
      <point x="557" y="1438"/>
      <point x="525" y="1438" type="curve" smooth="yes"/>
      <point x="500" y="1438"/>
      <point x="476" y="1442"/>
      <point x="452" y="1442" type="curve" smooth="yes"/>
      <point x="445" y="1442"/>
      <point x="438" y="1442"/>
      <point x="431" y="1441" type="curve"/>
      <point x="441" y="1357"/>
      <point x="445" y="1273"/>
      <point x="445" y="1189" type="curve" smooth="yes"/>
      <point x="445" y="1102"/>
      <point x="441" y="1013"/>
    </contour>
  </outline>
</glyph>
<glyph name="U" format="1">
  <advance width="936"/>
  <unicode hex="0055"/>
  <outline>
    <contour>
      <point x="606" y="0" type="move" name="ogonek"/>
    </contour>
    <contour>
      <point x="447" y="1536" type="move" name="top"/>
    </contour>
    <contour>
      <point x="173" y="1435" type="curve"/>
      <point x="163" y="1446"/>
      <point x="158" y="1462"/>
      <point x="158" y="1477" type="curve" smooth="yes"/>
      <point x="158" y="1509"/>
      <point x="184" y="1540"/>
      <point x="217" y="1540" type="curve" smooth="yes"/>
      <point x="285" y="1540"/>
      <point x="291" y="1443"/>
      <point x="291" y="1394" type="curve" smooth="yes"/>
      <point x="291" y="1157"/>
      <point x="310" y="919"/>
      <point x="310" y="682" type="curve"/>
      <point x="328" y="641"/>
      <point x="339" y="492"/>
      <point x="339" y="444" type="curve" smooth="yes"/>
      <point x="339" y="335"/>
      <point x="414" y="35"/>
      <point x="555" y="35" type="curve" smooth="yes"/>
      <point x="639" y="35"/>
      <point x="640" y="160"/>
      <point x="640" y="219" type="curve" smooth="yes"/>
      <point x="640" y="619" type="line" smooth="yes"/>
      <point x="640" y="748"/>
      <point x="614" y="876"/>
      <point x="614" y="1005" type="curve" smooth="yes"/>
      <point x="614" y="1019" type="line" smooth="yes"/>
      <point x="614" y="1059"/>
      <point x="610" y="1098"/>
      <point x="610" y="1138" type="curve" smooth="yes"/>
      <point x="610" y="1255"/>
      <point x="595" y="1372"/>
      <point x="595" y="1489" type="curve" smooth="yes"/>
      <point x="595" y="1525"/>
      <point x="640" y="1545"/>
      <point x="672" y="1545" type="curve"/>
      <point x="722" y="1497" type="line"/>
      <point x="722" y="1463" type="line" smooth="yes"/>
      <point x="721" y="1421"/>
      <point x="707" y="1380"/>
      <point x="707" y="1338" type="curve" smooth="yes"/>
      <point x="707" y="989"/>
      <point x="744" y="663"/>
      <point x="744" y="288" type="curve" smooth="yes"/>
      <point x="744" y="137"/>
      <point x="724" y="-37"/>
      <point x="542" y="-37" type="curve" smooth="yes"/>
      <point x="203" y="-37"/>
      <point x="171" y="607"/>
      <point x="171" y="1115" type="curve" smooth="yes"/>
      <point x="171" y="1232"/>
      <point x="173" y="1342"/>
    </contour>
  </outline>
</glyph>
<glyph name="U" format="1">
  <advance width="936"></advance>
  <unicode hex="0055"></unicode>
  <outline>
    <contour>
      <point x="173" y="1435" type="curve"></point>
      <point x="163" y="1446"></point>
      <point x="158" y="1462"></point>
      <point x="158" y="1477" type="curve" smooth="yes"></point>
      <point x="158" y="1509"></point>
      <point x="184" y="1540"></point>
      <point x="217" y="1540" type="curve" smooth="yes"></point>
      <point x="285" y="1540"></point>
      <point x="291" y="1443"></point>
      <point x="291" y="1394" type="curve" smooth="yes"></point>
      <point x="291" y="1157"></point>
      <point x="310" y="919"></point>
      <point x="310" y="682" type="curve"></point>
      <point x="328" y="641"></point>
      <point x="339" y="492"></point>
      <point x="339" y="444" type="curve" smooth="yes"></point>
      <point x="339" y="335"></point>
      <point x="414" y="35"></point>
      <point x="555" y="35" type="curve" smooth="yes"></point>
      <point x="639" y="35"></point>
      <point x="640" y="160"></point>
      <point x="640" y="219" type="curve" smooth="yes"></point>
      <point x="640" y="619" type="line" smooth="yes"></point>
      <point x="640" y="748"></point>
      <point x="614" y="876"></point>
      <point x="614" y="1005" type="curve" smooth="yes"></point>
      <point x="614" y="1019" type="line" smooth="yes"></point>
      <point x="614" y="1059"></point>
      <point x="610" y="1098"></point>
      <point x="610" y="1138" type="curve" smooth="yes"></point>
      <point x="610" y="1255"></point>
      <point x="595" y="1372"></point>
      <point x="595" y="1489" type="curve" smooth="yes"></point>
      <point x="595" y="1525"></point>
      <point x="640" y="1545"></point>
      <point x="672" y="1545" type="curve"></point>
      <point x="722" y="1497" type="line"></point>
      <point x="722" y="1463" type="line"></point>
      <point x="721" y="1421"></point>
      <point x="707" y="1380"></point>
      <point x="707" y="1338" type="curve" smooth="yes"></point>
      <point x="707" y="989"></point>
      <point x="744" y="663"></point>
      <point x="744" y="288" type="curve" smooth="yes"></point>
      <point x="744" y="137"></point>
      <point x="724" y="-37"></point>
      <point x="542" y="-37" type="curve" smooth="yes"></point>
      <point x="203" y="-37"></point>
      <point x="171" y="607"></point>
      <point x="171" y="1115" type="curve" smooth="yes"></point>
      <point x="171" y="1232"></point>
      <point x="173" y="1342"></point>
    </contour>
  </outline>
</glyph>
<glyph name="V" format="1">
  <advance width="810"/>
  <unicode hex="0056"/>
  <outline>
    <contour>
      <point x="183" y="1563" type="curve" smooth="yes"/>
      <point x="255" y="1563"/>
      <point x="398" y="490"/>
      <point x="429" y="339" type="curve"/>
      <point x="474" y="733"/>
      <point x="554" y="1130"/>
      <point x="554" y="1528" type="curve"/>
      <point x="573" y="1552"/>
      <point x="598" y="1569"/>
      <point x="629" y="1569" type="curve"/>
      <point x="672" y="1546" type="line"/>
      <point x="651" y="1356"/>
      <point x="508" y="-34"/>
      <point x="445" y="-34" type="curve" smooth="yes"/>
      <point x="427" y="-34"/>
      <point x="409" y="-26"/>
      <point x="397" y="-12" type="curve"/>
      <point x="307" y="359"/>
      <point x="200" y="1167"/>
      <point x="126" y="1523" type="curve"/>
      <point x="134" y="1549"/>
      <point x="157" y="1563"/>
    </contour>
  </outline>
</glyph>
<glyph name="W" format="1">
  <advance width="1026"></advance>
  <unicode hex="0057"></unicode>
  <outline>
    <contour>
      <point x="749" y="43" type="curve" smooth="yes"></point>
      <point x="749" y="5"></point>
      <point x="731" y="-28"></point>
      <point x="688" y="-28" type="curve" smooth="yes"></point>
      <point x="599" y="-28"></point>
      <point x="501" y="788"></point>
      <point x="482" y="893" type="curve"></point>
      <point x="442" y="606"></point>
      <point x="404" y="318"></point>
      <point x="404" y="28" type="curve" smooth="yes"></point>
      <point x="404" y="-2"></point>
      <point x="374" y="-29"></point>
      <point x="345" y="-29" type="curve" smooth="yes"></point>
      <point x="273" y="-29"></point>
      <point x="270" y="76"></point>
      <point x="270" y="127" type="curve" smooth="yes"></point>
      <point x="270" y="250"></point>
      <point x="110" y="1413"></point>
      <point x="78" y="1491" type="curve"></point>
      <point x="92" y="1517"></point>
      <point x="118" y="1540"></point>
      <point x="149" y="1540" type="curve" smooth="yes"></point>
      <point x="259" y="1540"></point>
      <point x="310" y="645"></point>
      <point x="331" y="503" type="curve"></point>
      <point x="353" y="694"></point>
      <point x="409" y="1115"></point>
      <point x="409" y="1286" type="curve" smooth="yes"></point>
      <point x="409" y="1325" type="line" smooth="yes"></point>
      <point x="409" y="1353"></point>
      <point x="434" y="1388"></point>
      <point x="463" y="1388" type="curve" smooth="yes"></point>
      <point x="502" y="1388"></point>
      <point x="536" y="1374"></point>
      <point x="536" y="1328" type="curve" smooth="yes"></point>
      <point x="536" y="1297" type="line"></point>
      <point x="537" y="1011"></point>
      <point x="639" y="740"></point>
      <point x="685" y="461" type="curve"></point>
      <point x="720" y="809"></point>
      <point x="788" y="1155"></point>
      <point x="788" y="1506" type="curve" smooth="yes"></point>
      <point x="788" y="1561"></point>
      <point x="799" y="1592"></point>
      <point x="862" y="1592" type="curve" smooth="yes"></point>
      <point x="892" y="1592"></point>
      <point x="925" y="1569"></point>
      <point x="925" y="1536" type="curve" smooth="yes"></point>
      <point x="925" y="1519"></point>
      <point x="916" y="1501"></point>
      <point x="904" y="1489" type="curve"></point>
      <point x="904" y="1011"></point>
      <point x="749" y="523"></point>
    </contour>
  </outline>
</glyph>
<glyph name="X" format="1">
  <advance width="756"/>
  <unicode hex="0058"/>
  <outline>
    <contour>
      <point x="389" y="987" type="curve"/>
      <point x="433" y="1194"/>
      <point x="458" y="1329"/>
      <point x="478" y="1415" type="curve" smooth="yes"/>
      <point x="501" y="1518"/>
      <point x="515" y="1550"/>
      <point x="542" y="1550" type="curve" smooth="yes"/>
      <point x="568" y="1550"/>
      <point x="592" y="1536"/>
      <point x="592" y="1505" type="curve" smooth="yes"/>
      <point x="592" y="1481"/>
      <point x="584" y="1439"/>
      <point x="572" y="1386" type="curve" smooth="yes"/>
      <point x="531" y="1204"/>
      <point x="439" y="899"/>
      <point x="439" y="796" type="curve" smooth="yes"/>
      <point x="439" y="765"/>
      <point x="529" y="323"/>
      <point x="545" y="248" type="curve" smooth="yes"/>
      <point x="559" y="182"/>
      <point x="579" y="134"/>
      <point x="579" y="80" type="curve" smooth="yes"/>
      <point x="579" y="50"/>
      <point x="573" y="26"/>
      <point x="543" y="26" type="curve" smooth="yes"/>
      <point x="512" y="26"/>
      <point x="490" y="40"/>
      <point x="483" y="75" type="curve" smooth="yes"/>
      <point x="451" y="238"/>
      <point x="414" y="481"/>
      <point x="380" y="628" type="curve"/>
      <point x="321" y="367"/>
      <point x="283" y="195"/>
      <point x="256" y="97" type="curve" smooth="yes"/>
      <point x="236" y="21"/>
      <point x="221" y="-13"/>
      <point x="206" y="-13" type="curve" smooth="yes"/>
      <point x="183" y="-13"/>
      <point x="150" y="2"/>
      <point x="150" y="26" type="curve" smooth="yes"/>
      <point x="150" y="28"/>
      <point x="150" y="31"/>
      <point x="151" y="33" type="curve" smooth="yes"/>
      <point x="203" y="237"/>
      <point x="251" y="430"/>
      <point x="283" y="578" type="curve" smooth="yes"/>
      <point x="308" y="690"/>
      <point x="323" y="775"/>
      <point x="323" y="819" type="curve" smooth="yes"/>
      <point x="323" y="868"/>
      <point x="319" y="900"/>
      <point x="280" y="1078" type="curve" smooth="yes"/>
      <point x="262" y="1159"/>
      <point x="237" y="1271"/>
      <point x="202" y="1428" type="curve" smooth="yes"/>
      <point x="199" y="1442"/>
      <point x="197" y="1455"/>
      <point x="197" y="1465" type="curve" smooth="yes"/>
      <point x="197" y="1508"/>
      <point x="222" y="1520"/>
      <point x="243" y="1520" type="curve" smooth="yes"/>
      <point x="293" y="1520"/>
      <point x="302" y="1428"/>
      <point x="360" y="1134" type="curve" smooth="yes"/>
      <point x="368" y="1089"/>
      <point x="378" y="1041"/>
    </contour>
  </outline>
</glyph>
<glyph name="Y" format="1">
  <advance width="702"></advance>
  <unicode hex="0059"></unicode>
  <outline>
    <contour>
      <point x="373" y="1006" type="curve"></point>
      <point x="389" y="1088"></point>
      <point x="399" y="1539"></point>
      <point x="497" y="1539" type="curve" smooth="yes"></point>
      <point x="511" y="1539"></point>
      <point x="551" y="1539"></point>
      <point x="551" y="1517" type="curve" smooth="yes"></point>
      <point x="551" y="1287"></point>
      <point x="453" y="1062"></point>
      <point x="453" y="828" type="curve" smooth="yes"></point>
      <point x="453" y="804"></point>
      <point x="446" y="781"></point>
      <point x="447" y="757" type="curve"></point>
      <point x="447" y="726" type="line" smooth="yes"></point>
      <point x="447" y="545"></point>
      <point x="458" y="364"></point>
      <point x="458" y="183" type="curve" smooth="yes"></point>
      <point x="458" y="149"></point>
      <point x="466" y="115"></point>
      <point x="465" y="81" type="curve"></point>
      <point x="465" y="35" type="line" smooth="yes"></point>
      <point x="465" y="-2"></point>
      <point x="431" y="-25"></point>
      <point x="397" y="-25" type="curve" smooth="yes"></point>
      <point x="370" y="-25"></point>
      <point x="345" y="-3"></point>
      <point x="345" y="25" type="curve" smooth="yes"></point>
      <point x="345" y="157"></point>
      <point x="355" y="289"></point>
      <point x="355" y="421" type="curve" smooth="yes"></point>
      <point x="355" y="541"></point>
      <point x="316" y="656"></point>
      <point x="316" y="776" type="curve" smooth="yes"></point>
      <point x="316" y="1025"></point>
      <point x="158" y="1267"></point>
      <point x="158" y="1513" type="curve" smooth="yes"></point>
      <point x="158" y="1534"></point>
      <point x="189" y="1549"></point>
      <point x="210" y="1549" type="curve" smooth="yes"></point>
      <point x="283" y="1549"></point>
      <point x="348" y="1093"></point>
    </contour>
  </outline>
</glyph>
<glyph name="bracketleft" format="1">
  <advance width="702"></advance>
  <unicode hex="005B"></unicode>
  <outline>
    <contour>
      <point x="276" y="48" type="curve" smooth="yes"></point>
      <point x="276" y="6" type="line"></point>
      <point x="297" y="6" type="line" smooth="yes"></point>
      <point x="361" y="6"></point>
      <point x="479" y="2"></point>
      <point x="479" y="-68" type="curve" smooth="yes"></point>
      <point x="479" y="-103"></point>
      <point x="440" y="-112"></point>
      <point x="413" y="-112" type="curve" smooth="yes"></point>
      <point x="362" y="-112"></point>
      <point x="166" y="-108"></point>
      <point x="166" y="-35" type="curve" smooth="yes"></point>
      <point x="166" y="134"></point>
      <point x="209" y="301"></point>
      <point x="209" y="470" type="curve" smooth="yes"></point>
      <point x="209" y="808"></point>
      <point x="262" y="1142"></point>
      <point x="262" y="1480" type="curve" smooth="yes"></point>
      <point x="262" y="1495"></point>
      <point x="260" y="1508"></point>
      <point x="260" y="1519" type="curve" smooth="yes"></point>
      <point x="260" y="1548"></point>
      <point x="267" y="1563"></point>
      <point x="301" y="1577" type="curve"></point>
      <point x="379" y="1577" type="line" smooth="yes"></point>
      <point x="421" y="1577"></point>
      <point x="565" y="1572"></point>
      <point x="565" y="1511" type="curve" smooth="yes"></point>
      <point x="565" y="1481"></point>
      <point x="535" y="1465"></point>
      <point x="509" y="1465" type="curve" smooth="yes"></point>
      <point x="470" y="1465"></point>
      <point x="433" y="1478"></point>
      <point x="394" y="1478" type="curve" smooth="yes"></point>
      <point x="381" y="1478"></point>
      <point x="356" y="1478"></point>
      <point x="356" y="1458" type="curve" smooth="yes"></point>
      <point x="356" y="987"></point>
      <point x="276" y="502"></point>
    </contour>
  </outline>
</glyph>
<glyph name="backslash" format="1">
  <advance width="756"></advance>
  <unicode hex="005C"></unicode>
  <outline>
    <contour>
      <point x="583" y="31" type="curve" smooth="yes"></point>
      <point x="583" y="6"></point>
      <point x="558" y="-17"></point>
      <point x="537" y="-30" type="curve"></point>
      <point x="537" y="-31" type="line"></point>
      <point x="415" y="-31"></point>
      <point x="221" y="1145"></point>
      <point x="184" y="1312" type="curve" smooth="yes"></point>
      <point x="170" y="1376"></point>
      <point x="142" y="1439"></point>
      <point x="142" y="1505" type="curve" smooth="yes"></point>
      <point x="142" y="1535"></point>
      <point x="169" y="1555"></point>
      <point x="197" y="1555" type="curve" smooth="yes"></point>
      <point x="316" y="1555"></point>
      <point x="583" y="127"></point>
    </contour>
  </outline>
</glyph>
<glyph name="bracketright" format="1">
  <advance width="828"></advance>
  <unicode hex="005D"></unicode>
  <outline>
    <contour>
      <point x="407" y="-112" type="curve" smooth="yes"></point>
      <point x="378" y="-112"></point>
      <point x="340" y="-103"></point>
      <point x="340" y="-68" type="curve" smooth="yes"></point>
      <point x="340" y="11"></point>
      <point x="491" y="5"></point>
      <point x="543" y="6" type="curve"></point>
      <point x="543" y="48" type="line"></point>
      <point x="530" y="519"></point>
      <point x="462" y="986"></point>
      <point x="462" y="1458" type="curve" smooth="yes"></point>
      <point x="462" y="1476" type="line"></point>
      <point x="417" y="1475"></point>
      <point x="373" y="1465"></point>
      <point x="328" y="1465" type="curve" smooth="yes"></point>
      <point x="297" y="1465"></point>
      <point x="254" y="1471"></point>
      <point x="254" y="1511" type="curve" smooth="yes"></point>
      <point x="254" y="1573"></point>
      <point x="404" y="1577"></point>
      <point x="447" y="1577" type="curve" smooth="yes"></point>
      <point x="463" y="1577"></point>
      <point x="477" y="1578"></point>
      <point x="489" y="1578" type="curve" smooth="yes"></point>
      <point x="538" y="1578"></point>
      <point x="558" y="1569"></point>
      <point x="558" y="1481" type="curve" smooth="yes"></point>
      <point x="558" y="1156"></point>
      <point x="614" y="835"></point>
      <point x="614" y="510" type="curve" smooth="yes"></point>
      <point x="614" y="327"></point>
      <point x="655" y="148"></point>
      <point x="655" y="-35" type="curve" smooth="yes"></point>
      <point x="655" y="-108"></point>
      <point x="458" y="-112"></point>
    </contour>
  </outline>
</glyph>
<glyph name="asciicircum" format="1">
  <advance width="594"/>
  <unicode hex="005E"/>
  <outline>
    <contour>
      <point x="254" y="1575" type="curve" smooth="yes"/>
      <point x="254" y="1612"/>
      <point x="274" y="1656"/>
      <point x="317" y="1656" type="curve" smooth="yes"/>
      <point x="357" y="1656"/>
      <point x="391" y="1623"/>
      <point x="391" y="1583" type="curve" smooth="yes"/>
      <point x="391" y="1546"/>
      <point x="365" y="1515"/>
      <point x="327" y="1515" type="curve" smooth="yes"/>
      <point x="290" y="1515"/>
      <point x="254" y="1534"/>
    </contour>
  </outline>
</glyph>
<glyph name="grave" format="1">
  <advance width="774"/>
  <unicode hex="0060"/>
  <outline>
    <contour>
      <point x="322" y="1752" type="curve" smooth="yes"/>
      <point x="337" y="1752"/>
      <point x="647" y="1599"/>
      <point x="647" y="1557" type="curve" smooth="yes"/>
      <point x="647" y="1549"/>
      <point x="641" y="1543"/>
      <point x="632" y="1543" type="curve" smooth="yes"/>
      <point x="594" y="1543"/>
      <point x="254" y="1645"/>
      <point x="254" y="1672" type="curve" smooth="yes"/>
      <point x="254" y="1699"/>
      <point x="286" y="1752"/>
    </contour>
  </outline>
</glyph>
<glyph name="a" format="1">
  <advance width="810"/>
  <unicode hex="0061"/>
  <outline>
    <contour>
      <point x="616" y="0" type="move" name="ogonek"/>
    </contour>
    <contour>
      <point x="447" y="1365" type="move" name="top"/>
    </contour>
    <contour>
      <point x="516" y="302" type="curve"/>
      <point x="314" y="332" type="line"/>
      <point x="270" y="174"/>
      <point x="289" y="-11"/>
      <point x="199" y="-11" type="curve" smooth="yes"/>
      <point x="169" y="-11"/>
      <point x="134" y="11"/>
      <point x="134" y="44" type="curve" smooth="yes"/>
      <point x="134" y="49"/>
      <point x="138" y="57"/>
      <point x="139" y="62" type="curve" smooth="yes"/>
      <point x="226" y="397"/>
      <point x="299" y="759"/>
      <point x="344" y="1100" type="curve" smooth="yes"/>
      <point x="353" y="1169"/>
      <point x="351" y="1317"/>
      <point x="388" y="1373" type="curve"/>
      <point x="457" y="1373" type="line" smooth="yes"/>
      <point x="489" y="1373"/>
      <point x="527" y="1359"/>
      <point x="527" y="1321" type="curve" smooth="yes"/>
      <point x="527" y="1016"/>
      <point x="610" y="693"/>
      <point x="610" y="416" type="curve" smooth="yes"/>
      <point x="610" y="376"/>
      <point x="632" y="330"/>
      <point x="632" y="290" type="curve" smooth="yes"/>
      <point x="632" y="239"/>
      <point x="671" y="99"/>
      <point x="671" y="41" type="curve" smooth="yes"/>
      <point x="671" y="39" type="line" smooth="yes"/>
      <point x="671" y="15"/>
      <point x="660" y="-10"/>
      <point x="637" y="-19" type="curve"/>
      <point x="588" y="-19"/>
      <point x="546" y="-10"/>
      <point x="546" y="49" type="curve" smooth="yes"/>
      <point x="546" y="136"/>
      <point x="516" y="302"/>
    </contour>
    <contour>
      <point x="503" y="375" type="curve"/>
      <point x="498" y="400"/>
      <point x="497" y="425"/>
      <point x="497" y="451" type="curve" smooth="yes"/>
      <point x="497" y="680"/>
      <point x="462" y="907"/>
      <point x="442" y="1134" type="curve"/>
      <point x="399" y="897"/>
      <point x="340" y="551"/>
      <point x="322" y="408" type="curve"/>
      <point x="357" y="385"/>
      <point x="459" y="378"/>
    </contour>
  </outline>
</glyph>
<glyph name="b" format="1">
  <advance width="702"></advance>
  <unicode hex="0062"></unicode>
  <outline>
    <contour>
      <point x="311" y="1068" type="curve" smooth="yes"></point>
      <point x="311" y="763" type="line"></point>
      <point x="413" y="766"></point>
      <point x="419" y="939"></point>
      <point x="419" y="1012" type="curve" smooth="yes"></point>
      <point x="419" y="1076"></point>
      <point x="420" y="1278"></point>
      <point x="335" y="1288" type="curve"></point>
      <point x="316" y="1247"></point>
      <point x="311" y="1128"></point>
    </contour>
    <contour>
      <point x="305" y="333" type="curve" smooth="yes"></point>
      <point x="305" y="278"></point>
      <point x="298" y="231"></point>
      <point x="298" y="186" type="curve" smooth="yes"></point>
      <point x="298" y="183"></point>
      <point x="300" y="179"></point>
      <point x="300" y="176" type="curve" smooth="yes"></point>
      <point x="300" y="84" type="line"></point>
      <point x="399" y="107"></point>
      <point x="438" y="217"></point>
      <point x="438" y="308" type="curve" smooth="yes"></point>
      <point x="438" y="400"></point>
      <point x="429" y="619"></point>
      <point x="314" y="643" type="curve"></point>
      <point x="307" y="540"></point>
      <point x="305" y="436"></point>
    </contour>
    <contour>
      <point x="453" y="705" type="curve"></point>
      <point x="542" y="620"></point>
      <point x="548" y="475"></point>
      <point x="548" y="360" type="curve" smooth="yes"></point>
      <point x="548" y="167"></point>
      <point x="466" y="-20"></point>
      <point x="246" y="-20" type="curve" smooth="yes"></point>
      <point x="184" y="-20"></point>
      <point x="182" y="42"></point>
      <point x="182" y="88" type="curve" smooth="yes"></point>
      <point x="182" y="234"></point>
      <point x="202" y="378"></point>
      <point x="202" y="524" type="curve" smooth="yes"></point>
      <point x="202" y="740"></point>
      <point x="211" y="957"></point>
      <point x="211" y="1173" type="curve" smooth="yes"></point>
      <point x="211" y="1208"></point>
      <point x="202" y="1244"></point>
      <point x="200" y="1279" type="curve"></point>
      <point x="200" y="1290" type="line" smooth="yes"></point>
      <point x="200" y="1338"></point>
      <point x="209" y="1383"></point>
      <point x="267" y="1383" type="curve" smooth="yes"></point>
      <point x="462" y="1383"></point>
      <point x="536" y="1212"></point>
      <point x="536" y="1028" type="curve" smooth="yes"></point>
      <point x="536" y="883"></point>
      <point x="514" y="791"></point>
    </contour>
  </outline>
</glyph>
<glyph name="c" format="1">
  <advance width="774"></advance>
  <unicode hex="0063"></unicode>
  <outline>
    <contour>
      <point x="524" y="1364" type="curve" smooth="yes"></point>
      <point x="569" y="1364"></point>
      <point x="587" y="1338"></point>
      <point x="587" y="1312" type="curve" smooth="yes"></point>
      <point x="587" y="1286"></point>
      <point x="569" y="1260"></point>
      <point x="543" y="1258" type="curve"></point>
      <point x="447" y="1258" type="line" smooth="yes"></point>
      <point x="327" y="1258"></point>
      <point x="305" y="913"></point>
      <point x="305" y="827" type="curve" smooth="yes"></point>
      <point x="305" y="817" type="line" smooth="yes"></point>
      <point x="305" y="685"></point>
      <point x="296" y="554"></point>
      <point x="296" y="422" type="curve" smooth="yes"></point>
      <point x="296" y="286"></point>
      <point x="308" y="79"></point>
      <point x="490" y="79" type="curve" smooth="yes"></point>
      <point x="506" y="79"></point>
      <point x="522" y="86"></point>
      <point x="534" y="97" type="curve"></point>
      <point x="562" y="97"></point>
      <point x="596" y="85"></point>
      <point x="596" y="52" type="curve" smooth="yes"></point>
      <point x="596" y="-9"></point>
      <point x="544" y="-29"></point>
      <point x="483" y="-29" type="curve" smooth="yes"></point>
      <point x="418" y="-29"></point>
      <point x="342" y="-6"></point>
      <point x="311" y="14" type="curve" smooth="yes"></point>
      <point x="183" y="97"></point>
      <point x="175" y="359"></point>
      <point x="175" y="495" type="curve" smooth="yes"></point>
      <point x="175" y="527"></point>
      <point x="174" y="569"></point>
      <point x="174" y="615" type="curve" smooth="yes"></point>
      <point x="174" y="664" type="line" smooth="yes"></point>
      <point x="174" y="1005"></point>
      <point x="182" y="1364"></point>
    </contour>
  </outline>
</glyph>
<glyph name="d" format="1">
  <advance width="846"></advance>
  <unicode hex="0064"></unicode>
  <outline>
    <contour>
      <point x="166" y="1286" type="curve" smooth="yes"></point>
      <point x="166" y="1322"></point>
      <point x="204" y="1353"></point>
      <point x="238" y="1353" type="curve" smooth="yes"></point>
      <point x="488" y="1353"></point>
      <point x="657" y="1054"></point>
      <point x="657" y="808" type="curve" smooth="yes"></point>
      <point x="657" y="778"></point>
      <point x="653" y="741"></point>
      <point x="653" y="705" type="curve" smooth="yes"></point>
      <point x="653" y="592" type="line" smooth="yes"></point>
      <point x="653" y="340"></point>
      <point x="637" y="119"></point>
      <point x="384" y="-12" type="curve"></point>
      <point x="236" y="-12" type="line" smooth="yes"></point>
      <point x="186" y="-12"></point>
      <point x="184" y="190"></point>
      <point x="184" y="256" type="curve" smooth="yes"></point>
      <point x="184" y="471"></point>
      <point x="190" y="686"></point>
      <point x="190" y="901" type="curve" smooth="yes"></point>
      <point x="190" y="1027"></point>
      <point x="166" y="1184"></point>
    </contour>
    <contour>
      <point x="327" y="141" type="curve" smooth="yes"></point>
      <point x="327" y="92" type="line"></point>
      <point x="531" y="92"></point>
      <point x="549" y="480"></point>
      <point x="549" y="612" type="curve" smooth="yes"></point>
      <point x="549" y="784"></point>
      <point x="543" y="1231"></point>
      <point x="311" y="1258" type="curve"></point>
      <point x="298" y="1188"></point>
      <point x="296" y="1116"></point>
      <point x="296" y="1045" type="curve" smooth="yes"></point>
      <point x="296" y="743"></point>
      <point x="327" y="443"></point>
    </contour>
  </outline>
</glyph>
<glyph name="e" format="1">
  <advance width="720"></advance>
  <unicode hex="0065"></unicode>
  <outline>
    <contour>
      <point x="524" y="1261" type="curve" smooth="yes"></point>
      <point x="524" y="1229"></point>
      <point x="491" y="1207"></point>
      <point x="464" y="1197" type="curve"></point>
      <point x="414" y="1214"></point>
      <point x="362" y="1230"></point>
      <point x="309" y="1236" type="curve"></point>
      <point x="311" y="1207"></point>
      <point x="312" y="1177"></point>
      <point x="312" y="1148" type="curve" smooth="yes"></point>
      <point x="312" y="1050"></point>
      <point x="303" y="952"></point>
      <point x="303" y="854" type="curve" smooth="yes"></point>
      <point x="303" y="844"></point>
      <point x="307" y="832"></point>
      <point x="309" y="822" type="curve"></point>
      <point x="326" y="822"></point>
      <point x="354" y="825"></point>
      <point x="382" y="825" type="curve" smooth="yes"></point>
      <point x="431" y="825"></point>
      <point x="481" y="816"></point>
      <point x="481" y="769" type="curve" smooth="yes"></point>
      <point x="481" y="742"></point>
      <point x="457" y="714"></point>
      <point x="416" y="714" type="curve" smooth="yes"></point>
      <point x="396" y="714"></point>
      <point x="374" y="716"></point>
      <point x="358" y="718" type="curve"></point>
      <point x="306" y="718" type="line"></point>
      <point x="310" y="666"></point>
      <point x="312" y="615"></point>
      <point x="312" y="563" type="curve" smooth="yes"></point>
      <point x="312" y="440"></point>
      <point x="303" y="315"></point>
      <point x="303" y="192" type="curve" smooth="yes"></point>
      <point x="303" y="139"></point>
      <point x="306" y="77"></point>
      <point x="307" y="77" type="curve" smooth="yes"></point>
      <point x="341" y="77"></point>
      <point x="400" y="82"></point>
      <point x="458" y="82" type="curve" smooth="yes"></point>
      <point x="498" y="82"></point>
      <point x="536" y="73"></point>
      <point x="536" y="32" type="curve" smooth="yes"></point>
      <point x="536" y="-13"></point>
      <point x="485" y="-27"></point>
      <point x="448" y="-27" type="curve" smooth="yes"></point>
      <point x="275" y="-27" type="line" smooth="yes"></point>
      <point x="239" y="-27"></point>
      <point x="205" y="1"></point>
      <point x="203" y="36" type="curve"></point>
      <point x="203" y="90" type="line" smooth="yes"></point>
      <point x="203" y="117"></point>
      <point x="200" y="145"></point>
      <point x="200" y="174" type="curve" smooth="yes"></point>
      <point x="200" y="261"></point>
      <point x="190" y="349"></point>
      <point x="190" y="436" type="curve" smooth="yes"></point>
      <point x="190" y="635"></point>
      <point x="204" y="835"></point>
      <point x="204" y="1034" type="curve" smooth="yes"></point>
      <point x="204" y="1092"></point>
      <point x="193" y="1149"></point>
      <point x="193" y="1207" type="curve" smooth="yes"></point>
      <point x="193" y="1266"></point>
      <point x="202" y="1352"></point>
      <point x="279" y="1352" type="curve" smooth="yes"></point>
      <point x="321" y="1352"></point>
      <point x="524" y="1323"></point>
    </contour>
  </outline>
</glyph>
<glyph name="f" format="1">
  <advance width="756"></advance>
  <unicode hex="0066"></unicode>
  <outline>
    <contour>
      <point x="316" y="753" type="line"></point>
      <point x="326" y="753"></point>
      <point x="339" y="754"></point>
      <point x="354" y="754" type="curve" smooth="yes"></point>
      <point x="398" y="754"></point>
      <point x="453" y="747"></point>
      <point x="453" y="700" type="curve" smooth="yes"></point>
      <point x="453" y="662"></point>
      <point x="415" y="640"></point>
      <point x="381" y="640" type="curve" smooth="yes"></point>
      <point x="358" y="640"></point>
      <point x="322" y="645"></point>
      <point x="300" y="652" type="curve"></point>
      <point x="300" y="72" type="line" smooth="yes"></point>
      <point x="300" y="6"></point>
      <point x="278" y="-18"></point>
      <point x="247" y="-18" type="curve" smooth="yes"></point>
      <point x="225" y="-18"></point>
      <point x="199" y="-6"></point>
      <point x="174" y="13" type="curve"></point>
      <point x="203" y="333"></point>
      <point x="197" y="655"></point>
      <point x="214" y="975" type="curve"></point>
      <point x="214" y="1025" type="line"></point>
      <point x="219" y="1118"></point>
      <point x="222" y="1210"></point>
      <point x="222" y="1303" type="curve" smooth="yes"></point>
      <point x="222" y="1344"></point>
      <point x="265" y="1364"></point>
      <point x="301" y="1364" type="curve" smooth="yes"></point>
      <point x="355" y="1364"></point>
      <point x="570" y="1358"></point>
      <point x="570" y="1281" type="curve" smooth="yes"></point>
      <point x="570" y="1229"></point>
      <point x="505" y="1223"></point>
      <point x="466" y="1223" type="curve"></point>
      <point x="433" y="1239"></point>
      <point x="395" y="1243"></point>
      <point x="359" y="1243" type="curve" smooth="yes"></point>
      <point x="335" y="1243" type="line"></point>
      <point x="335" y="1219" type="line"></point>
      <point x="334" y="1082"></point>
      <point x="316" y="945"></point>
      <point x="316" y="808" type="curve" smooth="yes"></point>
    </contour>
  </outline>
</glyph>
<glyph name="g" format="1">
  <advance width="882"></advance>
  <unicode hex="0067"></unicode>
  <outline>
    <contour>
      <point x="464" y="-16" type="curve" smooth="yes"></point>
      <point x="170" y="-16"></point>
      <point x="172" y="356"></point>
      <point x="172" y="622" type="curve" smooth="yes"></point>
      <point x="172" y="897"></point>
      <point x="158" y="1354"></point>
      <point x="474" y="1354" type="curve" smooth="yes"></point>
      <point x="509" y="1354"></point>
      <point x="561" y="1349"></point>
      <point x="561" y="1302" type="curve" smooth="yes"></point>
      <point x="561" y="1268"></point>
      <point x="527" y="1247"></point>
      <point x="496" y="1247" type="curve" smooth="yes"></point>
      <point x="481" y="1247"></point>
      <point x="467" y="1252"></point>
      <point x="453" y="1252" type="curve" smooth="yes"></point>
      <point x="304" y="1252"></point>
      <point x="294" y="732"></point>
      <point x="294" y="629" type="curve" smooth="yes"></point>
      <point x="294" y="434"></point>
      <point x="301" y="91"></point>
      <point x="489" y="91" type="curve" smooth="yes"></point>
      <point x="583" y="91"></point>
      <point x="588" y="316"></point>
      <point x="588" y="417" type="curve" smooth="yes"></point>
      <point x="588" y="450" type="line" smooth="yes"></point>
      <point x="588" y="511" type="line"></point>
      <point x="573" y="519"></point>
      <point x="557" y="519"></point>
      <point x="540" y="519" type="curve" smooth="yes"></point>
      <point x="529" y="519"></point>
      <point x="515" y="518"></point>
      <point x="500" y="518" type="curve" smooth="yes"></point>
      <point x="465" y="518"></point>
      <point x="429" y="524"></point>
      <point x="429" y="565" type="curve" smooth="yes"></point>
      <point x="429" y="606"></point>
      <point x="463" y="624"></point>
      <point x="499" y="624" type="curve"></point>
      <point x="499" y="623" type="line"></point>
      <point x="527" y="623" type="line" smooth="yes"></point>
      <point x="591" y="623"></point>
      <point x="711" y="619"></point>
      <point x="711" y="560" type="curve" smooth="yes"></point>
      <point x="711" y="509"></point>
      <point x="689" y="462"></point>
      <point x="689" y="411" type="curve" smooth="yes"></point>
      <point x="689" y="341"></point>
      <point x="699" y="266"></point>
      <point x="699" y="194" type="curve" smooth="yes"></point>
      <point x="699" y="50"></point>
      <point x="578" y="-16"></point>
    </contour>
  </outline>
</glyph>
<glyph name="h" format="1">
  <advance width="792"/>
  <unicode hex="0068"/>
  <outline>
    <contour>
      <point x="387" y="1365" type="move" name="top"/>
    </contour>
    <contour>
      <point x="481" y="548" type="curve" smooth="yes"/>
      <point x="481" y="556" type="line" smooth="yes"/>
      <point x="482" y="576"/>
      <point x="484" y="595"/>
      <point x="484" y="615" type="curve" smooth="yes"/>
      <point x="484" y="621"/>
      <point x="472" y="628"/>
      <point x="472" y="634" type="curve" smooth="yes"/>
      <point x="472" y="636" type="line"/>
      <point x="459" y="633"/>
      <point x="447" y="632"/>
      <point x="435" y="632" type="curve" smooth="yes"/>
      <point x="390" y="632"/>
      <point x="350" y="649"/>
      <point x="303" y="651" type="curve"/>
      <point x="303" y="416" type="line" smooth="yes"/>
      <point x="303" y="304"/>
      <point x="315" y="191"/>
      <point x="315" y="79" type="curve" smooth="yes"/>
      <point x="315" y="44"/>
      <point x="297" y="5"/>
      <point x="257" y="5" type="curve" smooth="yes"/>
      <point x="197" y="5"/>
      <point x="185" y="134"/>
      <point x="185" y="283" type="curve" smooth="yes"/>
      <point x="185" y="391"/>
      <point x="191" y="509"/>
      <point x="191" y="595" type="curve" smooth="yes"/>
      <point x="191" y="619"/>
      <point x="192" y="641"/>
      <point x="192" y="659" type="curve" smooth="yes"/>
      <point x="192" y="677"/>
      <point x="191" y="692"/>
      <point x="188" y="702" type="curve" smooth="yes"/>
      <point x="188" y="712" type="line" smooth="yes"/>
      <point x="191" y="752"/>
      <point x="196" y="792"/>
      <point x="196" y="832" type="curve" smooth="yes"/>
      <point x="196" y="986"/>
      <point x="182" y="1140"/>
      <point x="182" y="1294" type="curve" smooth="yes"/>
      <point x="182" y="1325"/>
      <point x="208" y="1355"/>
      <point x="240" y="1355" type="curve" smooth="yes"/>
      <point x="298" y="1355"/>
      <point x="305" y="1276"/>
      <point x="305" y="1233" type="curve" smooth="yes"/>
      <point x="305" y="1063"/>
      <point x="297" y="892"/>
      <point x="297" y="722" type="curve"/>
      <point x="334" y="712"/>
      <point x="372" y="712"/>
      <point x="409" y="712" type="curve" smooth="yes"/>
      <point x="483" y="712" type="line"/>
      <point x="487" y="719"/>
      <point x="488" y="729"/>
      <point x="488" y="738" type="curve" smooth="yes"/>
      <point x="488" y="932"/>
      <point x="461" y="1125"/>
      <point x="461" y="1320" type="curve" smooth="yes"/>
      <point x="461" y="1351"/>
      <point x="490" y="1374"/>
      <point x="520" y="1374" type="curve" smooth="yes"/>
      <point x="541" y="1374"/>
      <point x="560" y="1362"/>
      <point x="580" y="1356" type="curve"/>
      <point x="580" y="912"/>
      <point x="617" y="208"/>
      <point x="619" y="62" type="curve" smooth="yes"/>
      <point x="619" y="20"/>
      <point x="582" y="0"/>
      <point x="548" y="0" type="curve" smooth="yes"/>
      <point x="488" y="0"/>
      <point x="478" y="176"/>
      <point x="478" y="337" type="curve" smooth="yes"/>
      <point x="478" y="419"/>
      <point x="481" y="498"/>
    </contour>
  </outline>
</glyph>
<glyph name="i" format="1">
  <advance width="774"></advance>
  <unicode hex="0069"></unicode>
  <outline>
    <contour>
      <point x="429" y="185" type="line" smooth="yes"></point>
      <point x="429" y="166"></point>
      <point x="428" y="144"></point>
      <point x="428" y="128" type="curve"></point>
      <point x="455" y="128" type="line" smooth="yes"></point>
      <point x="470" y="128"></point>
      <point x="491" y="130"></point>
      <point x="514" y="130" type="curve" smooth="yes"></point>
      <point x="555" y="130"></point>
      <point x="598" y="122"></point>
      <point x="598" y="79" type="curve" smooth="yes"></point>
      <point x="598" y="43"></point>
      <point x="565" y="16"></point>
      <point x="530" y="16" type="curve" smooth="yes"></point>
      <point x="440" y="16" type="line" smooth="yes"></point>
      <point x="394" y="16"></point>
      <point x="347" y="16"></point>
      <point x="321" y="20" type="curve"></point>
      <point x="313" y="19"></point>
      <point x="304" y="18"></point>
      <point x="296" y="18" type="curve" smooth="yes"></point>
      <point x="241" y="18"></point>
      <point x="223" y="40"></point>
      <point x="223" y="64" type="curve" smooth="yes"></point>
      <point x="223" y="90"></point>
      <point x="243" y="117"></point>
      <point x="259" y="118" type="curve"></point>
      <point x="317" y="118" type="line"></point>
      <point x="318" y="127"></point>
      <point x="321" y="136"></point>
      <point x="321" y="145" type="curve" smooth="yes"></point>
      <point x="321" y="290"></point>
      <point x="307" y="435"></point>
      <point x="307" y="580" type="curve" smooth="yes"></point>
      <point x="307" y="732"></point>
      <point x="318" y="884"></point>
      <point x="318" y="1036" type="curve" smooth="yes"></point>
      <point x="318" y="1109"></point>
      <point x="315" y="1184"></point>
      <point x="308" y="1256" type="curve"></point>
      <point x="269" y="1256" type="line" smooth="yes"></point>
      <point x="254" y="1256"></point>
      <point x="238" y="1254"></point>
      <point x="222" y="1254" type="curve" smooth="yes"></point>
      <point x="188" y="1254"></point>
      <point x="158" y="1262"></point>
      <point x="158" y="1309" type="curve" smooth="yes"></point>
      <point x="158" y="1353"></point>
      <point x="220" y="1356"></point>
      <point x="259" y="1356" type="curve" smooth="yes"></point>
      <point x="503" y="1356" type="line" smooth="yes"></point>
      <point x="564" y="1356"></point>
      <point x="586" y="1335"></point>
      <point x="586" y="1313" type="curve" smooth="yes"></point>
      <point x="586" y="1288"></point>
      <point x="559" y="1262"></point>
      <point x="527" y="1262" type="curve" smooth="yes"></point>
      <point x="422" y="1262" type="line"></point>
      <point x="428" y="1199"></point>
      <point x="430" y="1136"></point>
      <point x="430" y="1072" type="curve" smooth="yes"></point>
      <point x="430" y="942"></point>
      <point x="419" y="811"></point>
      <point x="419" y="681" type="curve" smooth="yes"></point>
      <point x="419" y="536"></point>
      <point x="429" y="391"></point>
      <point x="429" y="246" type="curve" smooth="yes"></point>
    </contour>
  </outline>
</glyph>
<glyph name="j" format="1">
  <advance width="756"></advance>
  <unicode hex="006A"></unicode>
  <outline>
    <contour>
      <point x="460" y="164" type="line" smooth="yes"></point>
      <point x="460" y="46"></point>
      <point x="437" y="-193"></point>
      <point x="149" y="-193" type="curve" smooth="yes"></point>
      <point x="129" y="-193"></point>
      <point x="125" y="-183"></point>
      <point x="125" y="-168" type="curve" smooth="yes"></point>
      <point x="125" y="-158"></point>
      <point x="127" y="-146"></point>
      <point x="127" y="-134" type="curve" smooth="yes"></point>
      <point x="127" y="-106"></point>
      <point x="238" y="-102"></point>
      <point x="289" y="-46" type="curve" smooth="yes"></point>
      <point x="337" y="6"></point>
      <point x="348" y="117"></point>
      <point x="348" y="187" type="curve" smooth="yes"></point>
      <point x="348" y="536"></point>
      <point x="325" y="884"></point>
      <point x="325" y="1233" type="curve" smooth="yes"></point>
      <point x="325" y="1242" type="line"></point>
      <point x="283" y="1246"></point>
      <point x="168" y="1249"></point>
      <point x="168" y="1292" type="curve" smooth="yes"></point>
      <point x="168" y="1322"></point>
      <point x="211" y="1339"></point>
      <point x="235" y="1339" type="curve" smooth="yes"></point>
      <point x="295" y="1339"></point>
      <point x="600" y="1325"></point>
      <point x="600" y="1293" type="curve" smooth="yes"></point>
      <point x="600" y="1262"></point>
      <point x="572" y="1245"></point>
      <point x="544" y="1245" type="curve" smooth="yes"></point>
      <point x="439" y="1245" type="line"></point>
      <point x="439" y="963"></point>
      <point x="460" y="664"></point>
      <point x="460" y="382" type="curve" smooth="yes"></point>
    </contour>
  </outline>
</glyph>
<glyph name="k" format="1">
  <advance width="864"/>
  <unicode hex="006B"/>
  <outline>
    <contour>
      <point x="420" y="0" type="move" name="bot"/>
    </contour>
    <contour>
      <point x="447" y="1365" type="move" name="top"/>
    </contour>
    <contour>
      <point x="688" y="1289" type="curve" smooth="yes"/>
      <point x="687" y="1284"/>
      <point x="496" y="976"/>
      <point x="468" y="919" type="curve"/>
      <point x="468" y="878"/>
      <point x="464" y="838"/>
      <point x="464" y="797" type="curve" smooth="yes"/>
      <point x="464" y="678"/>
      <point x="590" y="252"/>
      <point x="652" y="149" type="curve" smooth="yes"/>
      <point x="677" y="108"/>
      <point x="718" y="71"/>
      <point x="718" y="19" type="curve" smooth="yes"/>
      <point x="718" y="-13"/>
      <point x="690" y="-35"/>
      <point x="660" y="-35" type="curve" smooth="yes"/>
      <point x="521" y="-35"/>
      <point x="387" y="626"/>
      <point x="366" y="752" type="curve"/>
      <point x="310" y="641"/>
      <point x="292" y="519"/>
      <point x="292" y="396" type="curve" smooth="yes"/>
      <point x="292" y="17" type="line" smooth="yes"/>
      <point x="292" y="-14"/>
      <point x="278" y="-31"/>
      <point x="250" y="-31" type="curve" smooth="yes"/>
      <point x="210" y="-31"/>
      <point x="182" y="-7"/>
      <point x="182" y="34" type="curve" smooth="yes"/>
      <point x="182" y="656" type="line" smooth="yes"/>
      <point x="182" y="877"/>
      <point x="221" y="1097"/>
      <point x="221" y="1318" type="curve"/>
      <point x="232" y="1342"/>
      <point x="256" y="1357"/>
      <point x="282" y="1357" type="curve" smooth="yes"/>
      <point x="316" y="1357"/>
      <point x="345" y="1328"/>
      <point x="345" y="1294" type="curve" smooth="yes"/>
      <point x="345" y="1288" type="line"/>
      <point x="319" y="1243"/>
      <point x="318" y="1038"/>
      <point x="318" y="915" type="curve" smooth="yes"/>
      <point x="318" y="842" type="line"/>
      <point x="357" y="912"/>
      <point x="556" y="1344"/>
      <point x="609" y="1344" type="curve" smooth="yes"/>
      <point x="642" y="1344"/>
      <point x="688" y="1329"/>
    </contour>
  </outline>
</glyph>
<glyph name="m" format="1">
  <advance width="1206"></advance>
  <unicode hex="006D"></unicode>
  <outline>
    <contour>
      <point x="887" y="806" type="curve" smooth="yes"></point>
      <point x="887" y="890"></point>
      <point x="895" y="975"></point>
      <point x="895" y="1059" type="curve"></point>
      <point x="855" y="937"></point>
      <point x="690" y="114"></point>
      <point x="603" y="114" type="curve" smooth="yes"></point>
      <point x="549" y="114"></point>
      <point x="518" y="149"></point>
      <point x="518" y="202" type="curve" smooth="yes"></point>
      <point x="518" y="348"></point>
      <point x="365" y="904"></point>
      <point x="312" y="1065" type="curve"></point>
      <point x="295" y="740"></point>
      <point x="273" y="415"></point>
      <point x="273" y="89" type="curve" smooth="yes"></point>
      <point x="273" y="69"></point>
      <point x="276" y="47"></point>
      <point x="276" y="28" type="curve" smooth="yes"></point>
      <point x="276" y="-10"></point>
      <point x="266" y="-40"></point>
      <point x="208" y="-40" type="curve" smooth="yes"></point>
      <point x="183" y="-40"></point>
      <point x="150" y="-20"></point>
      <point x="150" y="9" type="curve" smooth="yes"></point>
      <point x="150" y="427"></point>
      <point x="213" y="843"></point>
      <point x="213" y="1261" type="curve"></point>
      <point x="206" y="1272"></point>
      <point x="201" y="1288"></point>
      <point x="201" y="1301" type="curve" smooth="yes"></point>
      <point x="201" y="1340"></point>
      <point x="250" y="1351"></point>
      <point x="280" y="1351" type="curve" smooth="yes"></point>
      <point x="347" y="1351"></point>
      <point x="586" y="520"></point>
      <point x="614" y="370" type="curve"></point>
      <point x="655" y="505"></point>
      <point x="821" y="1348"></point>
      <point x="928" y="1348" type="curve" smooth="yes"></point>
      <point x="959" y="1348"></point>
      <point x="1003" y="1329"></point>
      <point x="1003" y="1292" type="curve" smooth="yes"></point>
      <point x="1003" y="1002"></point>
      <point x="1029" y="693"></point>
      <point x="1029" y="423" type="curve" smooth="yes"></point>
      <point x="1029" y="351"></point>
      <point x="1024" y="279"></point>
      <point x="1024" y="207" type="curve" smooth="yes"></point>
      <point x="1024" y="206" type="line" smooth="yes"></point>
      <point x="1024" y="176"></point>
      <point x="1040" y="23"></point>
      <point x="1040" y="20" type="curve"></point>
      <point x="1045" y="8"></point>
      <point x="1049" y="-6"></point>
      <point x="1049" y="-19" type="curve" smooth="yes"></point>
      <point x="1049" y="-58"></point>
      <point x="1024" y="-107"></point>
      <point x="980" y="-107" type="curve" smooth="yes"></point>
      <point x="921" y="-107"></point>
      <point x="916" y="-21"></point>
      <point x="916" y="21" type="curve" smooth="yes"></point>
      <point x="916" y="108"></point>
      <point x="917" y="196"></point>
      <point x="917" y="283" type="curve" smooth="yes"></point>
      <point x="917" y="461"></point>
      <point x="887" y="643"></point>
    </contour>
  </outline>
</glyph>
<glyph name="n" format="1">
  <advance width="1044"/>
  <unicode hex="006E"/>
  <outline>
    <contour>
      <point x="500" y="0" type="move" name="bot"/>
    </contour>
    <contour>
      <point x="567" y="1365" type="move" name="top"/>
    </contour>
    <contour>
      <point x="721" y="189" type="curve"/>
      <point x="754" y="534"/>
      <point x="762" y="881"/>
      <point x="762" y="1228" type="curve" smooth="yes"/>
      <point x="762" y="1244"/>
      <point x="759" y="1264"/>
      <point x="759" y="1283" type="curve" smooth="yes"/>
      <point x="759" y="1315"/>
      <point x="767" y="1344"/>
      <point x="810" y="1344" type="curve" smooth="yes"/>
      <point x="852" y="1344"/>
      <point x="868" y="1302"/>
      <point x="868" y="1264" type="curve" smooth="yes"/>
      <point x="868" y="1109" type="line" smooth="yes"/>
      <point x="867" y="951"/>
      <point x="846" y="92"/>
      <point x="794" y="11" type="curve"/>
      <point x="771" y="4"/>
      <point x="746" y="-6"/>
      <point x="722" y="-6" type="curve" smooth="yes"/>
      <point x="663" y="-6"/>
      <point x="672" y="55"/>
      <point x="653" y="93" type="curve" smooth="yes"/>
      <point x="653" y="95"/>
      <point x="654" y="98"/>
      <point x="654" y="102" type="curve" smooth="yes"/>
      <point x="654" y="219"/>
      <point x="350" y="1016"/>
      <point x="294" y="1145" type="curve"/>
      <point x="294" y="114" type="line"/>
      <point x="301" y="99"/>
      <point x="315" y="83"/>
      <point x="315" y="66" type="curve" smooth="yes"/>
      <point x="315" y="32"/>
      <point x="287" y="2"/>
      <point x="253" y="2" type="curve" smooth="yes"/>
      <point x="194" y="2"/>
      <point x="186" y="84"/>
      <point x="186" y="127" type="curve" smooth="yes"/>
      <point x="186" y="361"/>
      <point x="182" y="595"/>
      <point x="182" y="829" type="curve" smooth="yes"/>
      <point x="182" y="956"/>
      <point x="194" y="1084"/>
      <point x="194" y="1211" type="curve" smooth="yes"/>
      <point x="194" y="1274"/>
      <point x="215" y="1322"/>
      <point x="269" y="1362" type="curve"/>
      <point x="269" y="1349" type="line"/>
      <point x="274" y="1352"/>
      <point x="279" y="1354"/>
      <point x="284" y="1354" type="curve" smooth="yes"/>
      <point x="424" y="1354"/>
      <point x="666" y="324"/>
    </contour>
  </outline>
</glyph>
<glyph name="q" format="1">
  <advance width="882"></advance>
  <unicode hex="0071"></unicode>
  <outline>
    <contour>
      <point x="630" y="-434" type="curve"></point>
      <point x="630" y="-432" type="line"></point>
      <point x="577" y="-432"></point>
      <point x="510" y="-427"></point>
      <point x="472" y="-385" type="curve"></point>
      <point x="472" y="-276"></point>
      <point x="448" y="-169"></point>
      <point x="427" y="-62" type="curve"></point>
      <point x="134" y="1"></point>
      <point x="180" y="426"></point>
      <point x="180" y="754" type="curve" smooth="yes"></point>
      <point x="180" y="903"></point>
      <point x="195" y="1369"></point>
      <point x="411" y="1369" type="curve"></point>
      <point x="441" y="1356"></point>
      <point x="474" y="1353"></point>
      <point x="504" y="1341" type="curve" smooth="yes"></point>
      <point x="698" y="1262"></point>
      <point x="710" y="990"></point>
      <point x="710" y="812" type="curve" smooth="yes"></point>
      <point x="710" y="635"></point>
      <point x="707" y="30"></point>
      <point x="527" y="-49" type="curve"></point>
      <point x="527" y="-143"></point>
      <point x="563" y="-235"></point>
      <point x="583" y="-326" type="curve"></point>
      <point x="624" y="-326"></point>
      <point x="678" y="-333"></point>
      <point x="678" y="-384" type="curve" smooth="yes"></point>
      <point x="678" y="-412"></point>
      <point x="658" y="-434"></point>
    </contour>
    <contour>
      <point x="399" y="1288" type="curve" smooth="yes"></point>
      <point x="300" y="1288"></point>
      <point x="279" y="785"></point>
      <point x="279" y="699" type="curve" smooth="yes"></point>
      <point x="279" y="590"></point>
      <point x="279" y="7"></point>
      <point x="421" y="6" type="curve"></point>
      <point x="440" y="14"></point>
      <point x="461" y="18"></point>
      <point x="481" y="18" type="curve" smooth="yes"></point>
      <point x="536" y="18"></point>
      <point x="601" y="439"></point>
      <point x="601" y="511" type="curve" smooth="yes"></point>
      <point x="601" y="869" type="line" smooth="yes"></point>
      <point x="601" y="1004"></point>
      <point x="587" y="1288"></point>
    </contour>
  </outline>
</glyph>
<glyph name="r" format="1">
  <advance width="720"/>
  <unicode hex="0072"/>
  <outline>
    <contour>
      <point x="400" y="0" type="move" name="bot"/>
    </contour>
    <contour>
      <point x="347" y="1365" type="move" name="top"/>
    </contour>
    <contour>
      <point x="545" y="-35" type="curve" smooth="yes"/>
      <point x="421" y="-35"/>
      <point x="359" y="573"/>
      <point x="310" y="686" type="curve"/>
      <point x="285" y="686" type="line"/>
      <point x="285" y="615"/>
      <point x="283" y="540"/>
      <point x="283" y="464" type="curve" smooth="yes"/>
      <point x="283" y="319"/>
      <point x="289" y="169"/>
      <point x="322" y="37" type="curve"/>
      <point x="299" y="-18" type="line"/>
      <point x="242" y="-18" type="line"/>
      <point x="215" y="12" type="line"/>
      <point x="216" y="58"/>
      <point x="217" y="103"/>
      <point x="217" y="149" type="curve" smooth="yes"/>
      <point x="217" y="518"/>
      <point x="182" y="898"/>
      <point x="182" y="1268" type="curve" smooth="yes"/>
      <point x="182" y="1314"/>
      <point x="193" y="1365"/>
      <point x="250" y="1365" type="curve" smooth="yes"/>
      <point x="384" y="1365"/>
      <point x="503" y="1295"/>
      <point x="503" y="1149" type="curve" smooth="yes"/>
      <point x="503" y="1005" type="line" smooth="yes"/>
      <point x="503" y="912"/>
      <point x="440" y="817"/>
      <point x="398" y="736" type="curve"/>
      <point x="444" y="533"/>
      <point x="470" y="296"/>
      <point x="557" y="107" type="curve" smooth="yes"/>
      <point x="569" y="80"/>
      <point x="591" y="47"/>
      <point x="591" y="17" type="curve" smooth="yes"/>
      <point x="591" y="-10"/>
      <point x="574" y="-35"/>
    </contour>
    <contour>
      <point x="401" y="1098" type="curve" smooth="yes"/>
      <point x="401" y="1175"/>
      <point x="395" y="1287"/>
      <point x="293" y="1289" type="curve"/>
      <point x="291" y="1280"/>
      <point x="286" y="1269"/>
      <point x="286" y="1260" type="curve" smooth="yes"/>
      <point x="286" y="1102"/>
      <point x="293" y="945"/>
      <point x="294" y="787" type="curve"/>
      <point x="366" y="824"/>
      <point x="401" y="1023"/>
    </contour>
  </outline>
</glyph>
<glyph name="s" format="1">
  <advance width="720"></advance>
  <unicode hex="0073"></unicode>
  <outline>
    <contour>
      <point x="291" y="1075" type="curve" smooth="yes"></point>
      <point x="291" y="811"></point>
      <point x="536" y="689"></point>
      <point x="536" y="342" type="curve" smooth="yes"></point>
      <point x="536" y="191"></point>
      <point x="466" y="-19"></point>
      <point x="282" y="-23" type="curve"></point>
      <point x="282" y="-28" type="line"></point>
      <point x="238" y="-22"></point>
      <point x="196" y="3"></point>
      <point x="190" y="51" type="curve"></point>
      <point x="213" y="86" type="line"></point>
      <point x="241" y="82"></point>
      <point x="269" y="71"></point>
      <point x="298" y="71" type="curve" smooth="yes"></point>
      <point x="409" y="71"></point>
      <point x="436" y="286"></point>
      <point x="436" y="367" type="curve" smooth="yes"></point>
      <point x="436" y="631"></point>
      <point x="191" y="790"></point>
      <point x="191" y="1086" type="curve" smooth="yes"></point>
      <point x="191" y="1194"></point>
      <point x="240" y="1381"></point>
      <point x="376" y="1381" type="curve" smooth="yes"></point>
      <point x="420" y="1381"></point>
      <point x="477" y="1349"></point>
      <point x="477" y="1300" type="curve" smooth="yes"></point>
      <point x="477" y="1273"></point>
      <point x="450" y="1261"></point>
      <point x="427" y="1261" type="curve" smooth="yes"></point>
      <point x="413" y="1261"></point>
      <point x="396" y="1266"></point>
      <point x="384" y="1273" type="curve"></point>
      <point x="316" y="1271"></point>
      <point x="291" y="1127"></point>
    </contour>
  </outline>
</glyph>
<glyph name="t" format="1">
  <advance width="702"></advance>
  <unicode hex="0074"></unicode>
  <outline>
    <contour>
      <point x="339" y="190" type="curve" smooth="yes"></point>
      <point x="339" y="213"></point>
      <point x="341" y="237"></point>
      <point x="342" y="260" type="curve"></point>
      <point x="330" y="299"></point>
      <point x="285" y="1154"></point>
      <point x="283" y="1255" type="curve"></point>
      <point x="241" y="1256"></point>
      <point x="109" y="1255"></point>
      <point x="109" y="1316" type="curve" smooth="yes"></point>
      <point x="109" y="1344"></point>
      <point x="151" y="1360"></point>
      <point x="174" y="1360" type="curve" smooth="yes"></point>
      <point x="267" y="1360"></point>
      <point x="359" y="1341"></point>
      <point x="452" y="1341" type="curve" smooth="yes"></point>
      <point x="462" y="1341"></point>
      <point x="473" y="1342"></point>
      <point x="485" y="1342" type="curve" smooth="yes"></point>
      <point x="517" y="1342"></point>
      <point x="549" y="1336"></point>
      <point x="549" y="1293" type="curve" smooth="yes"></point>
      <point x="549" y="1257"></point>
      <point x="513" y="1237"></point>
      <point x="481" y="1237" type="curve" smooth="yes"></point>
      <point x="449" y="1237"></point>
      <point x="418" y="1247"></point>
      <point x="387" y="1251" type="curve"></point>
      <point x="386" y="1245"></point>
      <point x="383" y="1237"></point>
      <point x="383" y="1230" type="curve" smooth="yes"></point>
      <point x="383" y="841"></point>
      <point x="451" y="456"></point>
      <point x="451" y="67" type="curve" smooth="yes"></point>
      <point x="451" y="34"></point>
      <point x="414" y="6"></point>
      <point x="381" y="6" type="curve"></point>
      <point x="343" y="33" type="line"></point>
      <point x="343" y="85"></point>
      <point x="339" y="138"></point>
    </contour>
  </outline>
</glyph>
<glyph name="u" format="1">
  <advance width="882"/>
  <unicode hex="0075"/>
  <outline>
    <contour>
      <point x="446" y="0" type="move" name="ogonek"/>
    </contour>
    <contour>
      <point x="447" y="1365" type="move" name="top"/>
    </contour>
    <contour>
      <point x="426" y="-31" type="curve" smooth="yes"/>
      <point x="221" y="-31"/>
      <point x="196" y="257"/>
      <point x="196" y="473" type="curve"/>
      <point x="191" y="693"/>
      <point x="191" y="821"/>
      <point x="191" y="1013" type="curve" smooth="yes"/>
      <point x="191" y="1114"/>
      <point x="185" y="1203"/>
      <point x="182" y="1306" type="curve"/>
      <point x="196" y="1337"/>
      <point x="211" y="1349"/>
      <point x="226" y="1349" type="curve" smooth="yes"/>
      <point x="259" y="1349"/>
      <point x="288" y="1287"/>
      <point x="288" y="1232" type="curve" smooth="yes"/>
      <point x="288" y="675" type="line" smooth="yes"/>
      <point x="288" y="530"/>
      <point x="317" y="386"/>
      <point x="317" y="241" type="curve" smooth="yes"/>
      <point x="317" y="177"/>
      <point x="332" y="91"/>
      <point x="447" y="91" type="curve" smooth="yes"/>
      <point x="584" y="91"/>
      <point x="593" y="862"/>
      <point x="593" y="1192" type="curve" smooth="yes"/>
      <point x="593" y="1307" type="line" smooth="yes"/>
      <point x="593" y="1319"/>
      <point x="592" y="1330"/>
      <point x="592" y="1341" type="curve" smooth="yes"/>
      <point x="592" y="1369"/>
      <point x="599" y="1389"/>
      <point x="648" y="1389" type="curve" smooth="yes"/>
      <point x="708" y="1389"/>
      <point x="711" y="1336"/>
      <point x="711" y="1290" type="curve" smooth="yes"/>
      <point x="711" y="1221"/>
      <point x="697" y="1151"/>
      <point x="697" y="1084" type="curve" smooth="yes"/>
      <point x="697" y="1027"/>
      <point x="688" y="970"/>
      <point x="688" y="913" type="curve" smooth="yes"/>
      <point x="688" y="901"/>
      <point x="690" y="890"/>
      <point x="690" y="878" type="curve" smooth="yes"/>
      <point x="690" y="676"/>
      <point x="691" y="-31"/>
    </contour>
  </outline>
</glyph>
<glyph name="v" format="1">
  <advance width="864"/>
  <unicode hex="0076"/>
  <outline>
    <contour>
      <point x="447" y="1365" type="move" name="top"/>
    </contour>
    <contour>
      <point x="449" y="247" type="curve"/>
      <point x="526" y="630"/>
      <point x="574" y="1019"/>
      <point x="637" y="1396" type="curve"/>
      <point x="683" y="1396" type="line" smooth="yes"/>
      <point x="706" y="1396"/>
      <point x="730" y="1377"/>
      <point x="730" y="1351" type="curve" smooth="yes"/>
      <point x="730" y="1170"/>
      <point x="650" y="998"/>
      <point x="621" y="821" type="curve" smooth="yes"/>
      <point x="594" y="658"/>
      <point x="586" y="-24"/>
      <point x="410" y="-24" type="curve"/>
      <point x="372" y="7" type="line"/>
      <point x="372" y="377"/>
      <point x="282" y="754"/>
      <point x="190" y="1110" type="curve" smooth="yes"/>
      <point x="177" y="1161"/>
      <point x="134" y="1274"/>
      <point x="134" y="1319" type="curve" smooth="yes"/>
      <point x="134" y="1345"/>
      <point x="159" y="1366"/>
      <point x="184" y="1366" type="curve" smooth="yes"/>
      <point x="321" y="1366"/>
      <point x="426" y="404"/>
    </contour>
  </outline>
</glyph>
<glyph name="y" format="1">
  <advance width="774"></advance>
  <unicode hex="0079"></unicode>
  <outline>
    <contour>
      <point x="491" y="109" type="line" smooth="yes"></point>
      <point x="491" y="53"></point>
      <point x="486" y="-28"></point>
      <point x="424" y="-28" type="curve" smooth="yes"></point>
      <point x="397" y="-28"></point>
      <point x="377" y="-6"></point>
      <point x="367" y="17" type="curve"></point>
      <point x="390" y="62"></point>
      <point x="390" y="300"></point>
      <point x="390" y="364" type="curve" smooth="yes"></point>
      <point x="390" y="464"></point>
      <point x="370" y="564"></point>
      <point x="366" y="664" type="curve"></point>
      <point x="366" y="717" type="line"></point>
      <point x="326" y="825"></point>
      <point x="166" y="1202"></point>
      <point x="166" y="1288" type="curve" smooth="yes"></point>
      <point x="166" y="1299" type="line"></point>
      <point x="212" y="1333" type="line"></point>
      <point x="291" y="1331"></point>
      <point x="374" y="951"></point>
      <point x="400" y="877" type="curve"></point>
      <point x="430" y="954"></point>
      <point x="470" y="1362"></point>
      <point x="560" y="1362" type="curve" smooth="yes"></point>
      <point x="584" y="1362"></point>
      <point x="610" y="1346"></point>
      <point x="610" y="1319" type="curve" smooth="yes"></point>
      <point x="610" y="1118"></point>
      <point x="495" y="932"></point>
      <point x="491" y="726" type="curve"></point>
    </contour>
  </outline>
</glyph>
<glyph name="z" format="1">
  <advance width="738"/>
  <unicode hex="007A"/>
  <outline>
    <contour>
      <point x="447" y="1365" type="move" name="top"/>
    </contour>
    <contour>
      <point x="469" y="1256" type="curve"/>
      <point x="413" y="1254"/>
      <point x="358" y="1244"/>
      <point x="302" y="1244" type="curve" smooth="yes"/>
      <point x="272" y="1244"/>
      <point x="249" y="1272"/>
      <point x="249" y="1301" type="curve" smooth="yes"/>
      <point x="249" y="1356"/>
      <point x="409" y="1359"/>
      <point x="474" y="1359" type="curve" smooth="yes"/>
      <point x="513" y="1359"/>
      <point x="575" y="1355"/>
      <point x="575" y="1302" type="curve" smooth="yes"/>
      <point x="575" y="1172"/>
      <point x="498" y="1059"/>
      <point x="478" y="933" type="curve" smooth="yes"/>
      <point x="433" y="653"/>
      <point x="314" y="264"/>
      <point x="282" y="105" type="curve"/>
      <point x="317" y="105" type="line" smooth="yes"/>
      <point x="346" y="105"/>
      <point x="374" y="111"/>
      <point x="403" y="111" type="curve"/>
      <point x="403" y="112" type="line"/>
      <point x="438" y="112"/>
      <point x="486" y="109"/>
      <point x="486" y="62" type="curve" smooth="yes"/>
      <point x="486" y="25"/>
      <point x="445" y="12"/>
      <point x="415" y="12" type="curve" smooth="yes"/>
      <point x="375" y="12"/>
      <point x="334" y="18"/>
      <point x="294" y="18" type="curve" smooth="yes"/>
      <point x="267" y="18"/>
      <point x="248" y="-4"/>
      <point x="221" y="-4" type="curve" smooth="yes"/>
      <point x="194" y="-4"/>
      <point x="166" y="15"/>
      <point x="166" y="42" type="curve" smooth="yes"/>
      <point x="166" y="339"/>
      <point x="373" y="878"/>
    </contour>
  </outline>
</glyph>
<glyph name="braceleft" format="1">
  <advance width="774"></advance>
  <unicode hex="007B"></unicode>
  <outline>
    <contour>
      <point x="452" y="-48" type="curve" smooth="yes"></point>
      <point x="287" y="-48"></point>
      <point x="249" y="52"></point>
      <point x="249" y="198" type="curve" smooth="yes"></point>
      <point x="249" y="621" type="line" smooth="yes"></point>
      <point x="249" y="785"></point>
      <point x="110" y="673"></point>
      <point x="110" y="766" type="curve" smooth="yes"></point>
      <point x="110" y="866"></point>
      <point x="249" y="754"></point>
      <point x="249" y="916" type="curve" smooth="yes"></point>
      <point x="249" y="958"></point>
      <point x="239" y="1054"></point>
      <point x="239" y="1130" type="curve" smooth="yes"></point>
      <point x="239" y="1173"></point>
      <point x="242" y="1209"></point>
      <point x="252" y="1226" type="curve"></point>
      <point x="249" y="1244"></point>
      <point x="247" y="1262"></point>
      <point x="247" y="1280" type="curve" smooth="yes"></point>
      <point x="247" y="1399"></point>
      <point x="315" y="1495"></point>
      <point x="452" y="1495" type="curve" smooth="yes"></point>
      <point x="486" y="1495"></point>
      <point x="595" y="1482"></point>
      <point x="595" y="1435" type="curve" smooth="yes"></point>
      <point x="595" y="1404"></point>
      <point x="565" y="1389"></point>
      <point x="538" y="1389" type="curve" smooth="yes"></point>
      <point x="503" y="1389"></point>
      <point x="472" y="1408"></point>
      <point x="437" y="1408" type="curve" smooth="yes"></point>
      <point x="339" y="1408"></point>
      <point x="339" y="1222"></point>
      <point x="339" y="1157" type="curve" smooth="yes"></point>
      <point x="339" y="1106"></point>
      <point x="347" y="1024"></point>
      <point x="347" y="947" type="curve" smooth="yes"></point>
      <point x="347" y="875"></point>
      <point x="340" y="806"></point>
      <point x="311" y="768" type="curve"></point>
      <point x="343" y="728"></point>
      <point x="345" y="672"></point>
      <point x="345" y="622" type="curve" smooth="yes"></point>
      <point x="345" y="182" type="line" smooth="yes"></point>
      <point x="345" y="118"></point>
      <point x="355" y="39"></point>
      <point x="437" y="39" type="curve" smooth="yes"></point>
      <point x="479" y="39"></point>
      <point x="516" y="62"></point>
      <point x="558" y="62" type="curve" smooth="yes"></point>
      <point x="570" y="62"></point>
      <point x="575" y="25"></point>
      <point x="575" y="16" type="curve" smooth="yes"></point>
      <point x="575" y="-36"></point>
      <point x="490" y="-48"></point>
    </contour>
  </outline>
</glyph>
<glyph name="bar" format="1">
  <advance width="576"></advance>
  <unicode hex="007C"></unicode>
  <outline>
    <contour>
      <point x="236" y="114" type="curve" smooth="yes"></point>
      <point x="236" y="580"></point>
      <point x="222" y="1045"></point>
      <point x="222" y="1510" type="curve" smooth="yes"></point>
      <point x="222" y="1556"></point>
      <point x="245" y="1584"></point>
      <point x="293" y="1584" type="curve" smooth="yes"></point>
      <point x="319" y="1584"></point>
      <point x="335" y="1556"></point>
      <point x="335" y="1533" type="curve" smooth="yes"></point>
      <point x="335" y="1148"></point>
      <point x="339" y="763"></point>
      <point x="339" y="379" type="curve" smooth="yes"></point>
      <point x="339" y="-29" type="line" smooth="yes"></point>
      <point x="339" y="-57"></point>
      <point x="315" y="-80"></point>
      <point x="287" y="-80" type="curve" smooth="yes"></point>
      <point x="235" y="-80"></point>
      <point x="236" y="82"></point>
    </contour>
  </outline>
</glyph>
<glyph name="braceright" format="1">
  <advance width="774"></advance>
  <unicode hex="007D"></unicode>
  <outline>
    <contour>
      <point x="325" y="1495" type="curve" smooth="yes"></point>
      <point x="488" y="1495"></point>
      <point x="526" y="1394"></point>
      <point x="527" y="1249" type="curve" smooth="yes"></point>
      <point x="528" y="876" type="line" smooth="yes"></point>
      <point x="528" y="712"></point>
      <point x="657" y="821"></point>
      <point x="657" y="731" type="curve" smooth="yes"></point>
      <point x="657" y="630"></point>
      <point x="528" y="745"></point>
      <point x="528" y="581" type="curve" smooth="yes"></point>
      <point x="528" y="538"></point>
      <point x="536" y="421"></point>
      <point x="536" y="330" type="curve" smooth="yes"></point>
      <point x="536" y="279"></point>
      <point x="534" y="236"></point>
      <point x="525" y="221" type="curve"></point>
      <point x="528" y="202"></point>
      <point x="529" y="184"></point>
      <point x="529" y="166" type="curve" smooth="yes"></point>
      <point x="529" y="47"></point>
      <point x="462" y="-48"></point>
      <point x="325" y="-48" type="curve" smooth="yes"></point>
      <point x="291" y="-48"></point>
      <point x="182" y="-35"></point>
      <point x="182" y="12" type="curve" smooth="yes"></point>
      <point x="182" y="43"></point>
      <point x="212" y="58"></point>
      <point x="239" y="58" type="curve" smooth="yes"></point>
      <point x="274" y="58"></point>
      <point x="305" y="39"></point>
      <point x="340" y="39" type="curve" smooth="yes"></point>
      <point x="437" y="39"></point>
      <point x="438" y="224"></point>
      <point x="438" y="289" type="curve" smooth="yes"></point>
      <point x="438" y="346"></point>
      <point x="428" y="443"></point>
      <point x="428" y="534" type="curve" smooth="yes"></point>
      <point x="428" y="615"></point>
      <point x="436" y="691"></point>
      <point x="466" y="729" type="curve"></point>
      <point x="434" y="770"></point>
      <point x="429" y="825"></point>
      <point x="429" y="875" type="curve" smooth="yes"></point>
      <point x="429" y="915"></point>
      <point x="439" y="1021"></point>
      <point x="439" y="1127" type="curve" smooth="yes"></point>
      <point x="439" y="1267"></point>
      <point x="422" y="1408"></point>
      <point x="340" y="1408" type="curve" smooth="yes"></point>
      <point x="298" y="1408"></point>
      <point x="261" y="1385"></point>
      <point x="219" y="1385" type="curve" smooth="yes"></point>
      <point x="207" y="1385"></point>
      <point x="202" y="1422"></point>
      <point x="202" y="1431" type="curve" smooth="yes"></point>
      <point x="202" y="1483"></point>
      <point x="287" y="1495"></point>
    </contour>
  </outline>
</glyph>
<glyph name="asciitilde" format="1">
  <advance width="972"></advance>
  <unicode hex="007E"></unicode>
  <outline>
    <contour>
      <point x="738" y="1223" type="curve" smooth="yes"></point>
      <point x="785" y="1223"></point>
      <point x="805" y="1194"></point>
      <point x="805" y="1170" type="curve" smooth="yes"></point>
      <point x="805" y="1099"></point>
      <point x="744" y="1038"></point>
      <point x="673" y="1038" type="curve" smooth="yes"></point>
      <point x="389" y="1038"></point>
      <point x="365" y="1121"></point>
      <point x="285" y="1125" type="curve"></point>
      <point x="237" y="1107"></point>
      <point x="286" y="1065"></point>
      <point x="232" y="1046" type="curve"></point>
      <point x="195" y="1046"></point>
      <point x="158" y="1063"></point>
      <point x="158" y="1105" type="curve" smooth="yes"></point>
      <point x="158" y="1167"></point>
      <point x="211" y="1224"></point>
      <point x="306" y="1224" type="curve" smooth="yes"></point>
      <point x="404" y="1224"></point>
      <point x="565" y="1141"></point>
      <point x="649" y="1141" type="curve" smooth="yes"></point>
      <point x="708" y="1141"></point>
      <point x="678" y="1223"></point>
    </contour>
  </outline>
</glyph>
<glyph name="cent" format="1">
  <advance width="846"/>
  <unicode hex="00A2"/>
  <outline>
    <contour>
      <point x="404" y="203" type="curve"/>
      <point x="401" y="202" type="line"/>
      <point x="401" y="239"/>
      <point x="409" y="276"/>
      <point x="409" y="313" type="curve"/>
      <point x="177" y="402"/>
      <point x="174" y="560"/>
      <point x="174" y="777" type="curve" smooth="yes"/>
      <point x="174" y="943"/>
      <point x="179" y="1156"/>
      <point x="337" y="1254" type="curve"/>
      <point x="333" y="1292"/>
      <point x="326" y="1330"/>
      <point x="326" y="1368" type="curve" smooth="yes"/>
      <point x="326" y="1403"/>
      <point x="332" y="1456"/>
      <point x="378" y="1456" type="curve" smooth="yes"/>
      <point x="385" y="1456" type="line"/>
      <point x="415" y="1436" type="line"/>
      <point x="412" y="1414"/>
      <point x="410" y="1393"/>
      <point x="410" y="1371" type="curve" smooth="yes"/>
      <point x="410" y="1332"/>
      <point x="415" y="1293"/>
      <point x="420" y="1254" type="curve"/>
      <point x="479" y="1236"/>
      <point x="597" y="1218"/>
      <point x="604" y="1140" type="curve"/>
      <point x="602" y="1140" type="line"/>
      <point x="602" y="1135" type="line" smooth="yes"/>
      <point x="602" y="1114"/>
      <point x="584" y="1084"/>
      <point x="560" y="1084" type="curve" smooth="yes"/>
      <point x="528" y="1084"/>
      <point x="503" y="1112"/>
      <point x="492" y="1140" type="curve"/>
      <point x="434" y="1169" type="line"/>
      <point x="429" y="1169" type="line"/>
      <point x="434" y="921"/>
      <point x="490" y="676"/>
      <point x="490" y="428" type="curve" smooth="yes"/>
      <point x="490" y="420"/>
      <point x="488" y="411"/>
      <point x="488" y="403" type="curve" smooth="yes"/>
      <point x="488" y="399"/>
      <point x="489" y="395"/>
      <point x="490" y="391" type="curve"/>
      <point x="568" y="395"/>
      <point x="603" y="452"/>
      <point x="642" y="511" type="curve"/>
      <point x="683" y="511"/>
      <point x="701" y="492"/>
      <point x="701" y="451" type="curve" smooth="yes"/>
      <point x="701" y="373"/>
      <point x="563" y="307"/>
      <point x="497" y="301" type="curve"/>
      <point x="493" y="275"/>
      <point x="489" y="249"/>
      <point x="489" y="222" type="curve" smooth="yes"/>
      <point x="489" y="157"/>
      <point x="503" y="93"/>
      <point x="503" y="28" type="curve" smooth="yes"/>
      <point x="503" y="2"/>
      <point x="481" y="-20"/>
      <point x="455" y="-20" type="curve" smooth="yes"/>
      <point x="446" y="-20" type="line"/>
      <point x="408" y="15" type="line"/>
      <point x="411" y="32"/>
      <point x="412" y="49"/>
      <point x="412" y="65" type="curve" smooth="yes"/>
      <point x="412" y="111"/>
      <point x="404" y="157"/>
    </contour>
    <contour>
      <point x="338" y="1125" type="curve"/>
      <point x="286" y="1049"/>
      <point x="273" y="882"/>
      <point x="273" y="790" type="curve" smooth="yes"/>
      <point x="273" y="699"/>
      <point x="277" y="444"/>
      <point x="396" y="424" type="curve"/>
      <point x="395" y="656"/>
      <point x="383" y="897"/>
    </contour>
  </outline>
</glyph>
<glyph name="currency" format="1">
  <advance width="1008"></advance>
  <unicode hex="00A4"></unicode>
  <outline>
    <contour>
      <point x="722" y="251" type="curve"></point>
      <point x="722" y="248" type="line"></point>
      <point x="697" y="293" type="line"></point>
      <point x="632" y="235"></point>
      <point x="545" y="205"></point>
      <point x="458" y="205" type="curve" smooth="yes"></point>
      <point x="389" y="205"></point>
      <point x="324" y="243"></point>
      <point x="276" y="290" type="curve"></point>
      <point x="259" y="253"></point>
      <point x="239" y="201"></point>
      <point x="190" y="201" type="curve" smooth="yes"></point>
      <point x="146" y="201"></point>
      <point x="126" y="236"></point>
      <point x="126" y="276" type="curve" smooth="yes"></point>
      <point x="126" y="315"></point>
      <point x="191" y="360"></point>
      <point x="212" y="392" type="curve"></point>
      <point x="183" y="446"></point>
      <point x="180" y="507"></point>
      <point x="180" y="567" type="curve" smooth="yes"></point>
      <point x="180" y="692"></point>
      <point x="184" y="977"></point>
      <point x="252" y="1078" type="curve"></point>
      <point x="229" y="1119"></point>
      <point x="155" y="1160"></point>
      <point x="155" y="1209" type="curve" smooth="yes"></point>
      <point x="155" y="1235"></point>
      <point x="178" y="1255"></point>
      <point x="203" y="1255" type="curve" smooth="yes"></point>
      <point x="255" y="1255"></point>
      <point x="284" y="1209"></point>
      <point x="311" y="1172" type="curve"></point>
      <point x="338" y="1202"></point>
      <point x="399" y="1285"></point>
      <point x="441" y="1285" type="curve" smooth="yes"></point>
      <point x="520" y="1285"></point>
      <point x="597" y="1259"></point>
      <point x="663" y="1216" type="curve"></point>
      <point x="697" y="1260"></point>
      <point x="724" y="1351"></point>
      <point x="792" y="1351" type="curve" smooth="yes"></point>
      <point x="802" y="1351" type="line"></point>
      <point x="845" y="1304" type="line"></point>
      <point x="841" y="1241"></point>
      <point x="750" y="1165"></point>
      <point x="750" y="1141" type="curve" smooth="yes"></point>
      <point x="750" y="1019"></point>
      <point x="840" y="902"></point>
      <point x="840" y="772" type="curve" smooth="yes"></point>
      <point x="840" y="643"></point>
      <point x="773" y="525"></point>
      <point x="773" y="396" type="curve" smooth="yes"></point>
      <point x="773" y="335"></point>
      <point x="850" y="308"></point>
      <point x="850" y="247" type="curve" smooth="yes"></point>
      <point x="850" y="219"></point>
      <point x="828" y="195"></point>
      <point x="800" y="195" type="curve" smooth="yes"></point>
      <point x="765" y="195"></point>
      <point x="726" y="212"></point>
    </contour>
    <contour>
      <point x="290" y="696" type="curve"></point>
      <point x="293" y="696" type="line"></point>
      <point x="294" y="687"></point>
      <point x="295" y="678"></point>
      <point x="295" y="669" type="curve" smooth="yes"></point>
      <point x="295" y="641"></point>
      <point x="290" y="614"></point>
      <point x="290" y="585" type="curve" smooth="yes"></point>
      <point x="290" y="527"></point>
      <point x="297" y="462"></point>
      <point x="344" y="421" type="curve"></point>
      <point x="344" y="332"></point>
      <point x="417" y="305"></point>
      <point x="494" y="305" type="curve" smooth="yes"></point>
      <point x="684" y="305"></point>
      <point x="721" y="640"></point>
      <point x="721" y="779" type="curve" smooth="yes"></point>
      <point x="721" y="840"></point>
      <point x="696" y="1027"></point>
      <point x="660" y="1071" type="curve"></point>
      <point x="631" y="1077"></point>
      <point x="611" y="1103"></point>
      <point x="608" y="1132" type="curve"></point>
      <point x="578" y="1165"></point>
      <point x="529" y="1181"></point>
      <point x="485" y="1181" type="curve" smooth="yes"></point>
      <point x="459" y="1181"></point>
      <point x="394" y="1121"></point>
      <point x="378" y="1100" type="curve"></point>
      <point x="393" y="1086" type="line"></point>
      <point x="393" y="1055"></point>
      <point x="387" y="1009"></point>
      <point x="346" y="1009" type="curve" smooth="yes"></point>
      <point x="321" y="1009"></point>
      <point x="290" y="774"></point>
    </contour>
  </outline>
</glyph>
<glyph name="section" format="1">
  <advance width="720"/>
  <unicode hex="00A7"/>
  <outline>
    <contour>
      <point x="534" y="634" type="curve" smooth="yes"/>
      <point x="534" y="566"/>
      <point x="502" y="502"/>
      <point x="445" y="465" type="curve"/>
      <point x="487" y="399"/>
      <point x="519" y="326"/>
      <point x="519" y="246" type="curve" smooth="yes"/>
      <point x="519" y="139"/>
      <point x="457" y="1"/>
      <point x="334" y="1" type="curve" smooth="yes"/>
      <point x="290" y="1"/>
      <point x="233" y="33"/>
      <point x="233" y="82" type="curve" smooth="yes"/>
      <point x="233" y="109"/>
      <point x="260" y="121"/>
      <point x="283" y="121" type="curve" smooth="yes"/>
      <point x="297" y="121"/>
      <point x="314" y="116"/>
      <point x="326" y="109" type="curve"/>
      <point x="388" y="110"/>
      <point x="419" y="206"/>
      <point x="419" y="257" type="curve" smooth="yes"/>
      <point x="419" y="457"/>
      <point x="174" y="550"/>
      <point x="174" y="820" type="curve" smooth="yes"/>
      <point x="174" y="895"/>
      <point x="204" y="972"/>
      <point x="265" y="1018" type="curve"/>
      <point x="226" y="1099"/>
      <point x="207" y="1186"/>
      <point x="207" y="1275" type="curve" smooth="yes"/>
      <point x="207" y="1385"/>
      <point x="262" y="1443"/>
      <point x="374" y="1443" type="curve" smooth="yes"/>
      <point x="401" y="1443"/>
      <point x="475" y="1430"/>
      <point x="475" y="1392" type="curve" smooth="yes"/>
      <point x="475" y="1308"/>
      <point x="289" y="1405"/>
      <point x="289" y="1277" type="curve" smooth="yes"/>
      <point x="289" y="1046"/>
      <point x="534" y="943"/>
    </contour>
    <contour>
      <point x="434" y="649" type="curve" smooth="yes"/>
      <point x="434" y="754"/>
      <point x="372" y="840"/>
      <point x="318" y="925" type="curve"/>
      <point x="290" y="890"/>
      <point x="274" y="840"/>
      <point x="274" y="795" type="curve" smooth="yes"/>
      <point x="274" y="701"/>
      <point x="331" y="622"/>
      <point x="385" y="549" type="curve"/>
      <point x="413" y="573"/>
      <point x="434" y="612"/>
    </contour>
  </outline>
</glyph>
<glyph name="dieresis" format="1">
  <advance width="792"></advance>
  <unicode hex="00A8"></unicode>
  <outline>
    <contour>
      <point x="241" y="954" type="curve" smooth="yes"></point>
      <point x="202" y="954"></point>
      <point x="182" y="984"></point>
      <point x="182" y="1021" type="curve" smooth="yes"></point>
      <point x="182" y="1061"></point>
      <point x="211" y="1095"></point>
      <point x="252" y="1095" type="curve" smooth="yes"></point>
      <point x="290" y="1095"></point>
      <point x="323" y="1065"></point>
      <point x="323" y="1026" type="curve" smooth="yes"></point>
      <point x="323" y="984"></point>
      <point x="280" y="954"></point>
    </contour>
    <contour>
      <point x="462" y="1023" type="curve" smooth="yes"></point>
      <point x="462" y="1062"></point>
      <point x="496" y="1098"></point>
      <point x="535" y="1098" type="curve" smooth="yes"></point>
      <point x="572" y="1098"></point>
      <point x="603" y="1061"></point>
      <point x="603" y="1025" type="curve" smooth="yes"></point>
      <point x="603" y="983"></point>
      <point x="566" y="954"></point>
      <point x="526" y="954" type="curve" smooth="yes"></point>
      <point x="490" y="954"></point>
      <point x="462" y="988"></point>
    </contour>
  </outline>
</glyph>
<glyph name="ordfeminine" format="1">
  <advance width="864"/>
  <unicode hex="00AA"/>
  <outline>
    <contour>
      <point x="723" y="311" type="curve" smooth="yes"/>
      <point x="723" y="309" type="line" smooth="yes"/>
      <point x="723" y="285"/>
      <point x="712" y="260"/>
      <point x="689" y="251" type="curve"/>
      <point x="640" y="251"/>
      <point x="598" y="260"/>
      <point x="598" y="319" type="curve" smooth="yes"/>
      <point x="598" y="406"/>
      <point x="568" y="572"/>
      <point x="568" y="572" type="curve"/>
      <point x="366" y="602" type="line"/>
      <point x="322" y="444"/>
      <point x="341" y="259"/>
      <point x="251" y="259" type="curve" smooth="yes"/>
      <point x="221" y="259"/>
      <point x="186" y="281"/>
      <point x="186" y="314" type="curve" smooth="yes"/>
      <point x="186" y="554"/>
      <point x="321" y="859"/>
      <point x="356" y="1100" type="curve" smooth="yes"/>
      <point x="365" y="1169"/>
      <point x="363" y="1317"/>
      <point x="400" y="1373" type="curve"/>
      <point x="469" y="1373" type="line" smooth="yes"/>
      <point x="601" y="1373"/>
      <point x="723" y="431"/>
    </contour>
    <contour>
      <point x="555" y="645" type="curve"/>
      <point x="533" y="755"/>
      <point x="517" y="967"/>
      <point x="484" y="1184" type="curve"/>
      <point x="445" y="1019"/>
      <point x="390" y="777"/>
      <point x="374" y="678" type="curve"/>
      <point x="409" y="655"/>
      <point x="511" y="648"/>
    </contour>
    <contour>
      <point x="674" y="160" type="line" smooth="yes"/>
      <point x="709" y="160"/>
      <point x="724" y="144"/>
      <point x="724" y="124" type="curve" smooth="yes"/>
      <point x="724" y="103"/>
      <point x="702" y="78"/>
      <point x="668" y="78" type="curve" smooth="yes"/>
      <point x="638" y="78"/>
      <point x="607" y="78"/>
      <point x="579" y="76" type="curve" smooth="yes"/>
      <point x="452" y="76"/>
      <point x="324" y="66"/>
      <point x="197" y="66" type="curve" smooth="yes"/>
      <point x="153" y="66"/>
      <point x="118" y="89"/>
      <point x="118" y="110" type="curve" smooth="yes"/>
      <point x="118" y="138"/>
      <point x="140" y="160"/>
      <point x="168" y="160" type="curve" smooth="yes"/>
    </contour>
  </outline>
</glyph>
<glyph name="guillemotleft" format="1">
  <advance width="936"></advance>
  <unicode hex="00AB"></unicode>
  <outline>
    <contour>
      <point x="837" y="49" type="line"></point>
      <point x="835" y="19"></point>
      <point x="820" y="-22"></point>
      <point x="783" y="-22" type="curve" smooth="yes"></point>
      <point x="771" y="-22"></point>
      <point x="755" y="-22"></point>
      <point x="743" y="-18" type="curve" smooth="yes"></point>
      <point x="711" y="-8"></point>
      <point x="423" y="612"></point>
      <point x="383" y="698" type="curve"></point>
      <point x="386" y="798"></point>
      <point x="569" y="1125"></point>
      <point x="607" y="1255" type="curve" smooth="yes"></point>
      <point x="618" y="1293"></point>
      <point x="645" y="1447"></point>
      <point x="706" y="1447" type="curve" smooth="yes"></point>
      <point x="708" y="1447"></point>
      <point x="710" y="1446"></point>
      <point x="713" y="1446" type="curve"></point>
      <point x="758" y="1411" type="line"></point>
      <point x="731" y="1193"></point>
      <point x="500" y="869"></point>
      <point x="500" y="702" type="curve" smooth="yes"></point>
      <point x="500" y="679"></point>
      <point x="774" y="135"></point>
      <point x="811" y="69" type="curve"></point>
    </contour>
    <contour>
      <point x="523" y="1440" type="curve"></point>
      <point x="416" y="1193"></point>
      <point x="343" y="929"></point>
      <point x="229" y="687" type="curve"></point>
      <point x="262" y="526"></point>
      <point x="586" y="65"></point>
      <point x="586" y="-13" type="curve" smooth="yes"></point>
      <point x="586" y="-45"></point>
      <point x="548" y="-59"></point>
      <point x="522" y="-59" type="curve" smooth="yes"></point>
      <point x="477" y="-59"></point>
      <point x="118" y="607"></point>
      <point x="118" y="697" type="curve" smooth="yes"></point>
      <point x="118" y="749"></point>
      <point x="341" y="1261"></point>
      <point x="379" y="1361" type="curve"></point>
      <point x="383" y="1398"></point>
      <point x="415" y="1456"></point>
      <point x="440" y="1483" type="curve"></point>
      <point x="440" y="1485" type="line"></point>
      <point x="446" y="1486"></point>
      <point x="453" y="1489"></point>
      <point x="459" y="1489" type="curve" smooth="yes"></point>
      <point x="488" y="1489"></point>
      <point x="521" y="1473"></point>
    </contour>
  </outline>
</glyph>
